<svg id="Слой_1" data-name="Слой 1" xmlns="http://www.w3.org/2000/svg" viewBox="0 0 300 400"><defs><style>.cls-1{fill:#2478db;}.cls-2{fill:none;stroke:#000;stroke-miterlimit:10;stroke-width:0.12px;}</style></defs><path class="cls-1" d="M164.24,177.78H128.37a7.48,7.48,0,0,0-7.48,7.48v42.81a7.49,7.49,0,0,0,7.48,7.49h42.81a7.5,7.5,0,0,0,7.49-7.49V192.2H164.24Z"/><path class="cls-1" d="M185.64,163.31H171.73a7.49,7.49,0,0,0-7.49,7.49v7h14.43V192.2h7a7.48,7.48,0,0,0,7.49-7.48V170.8A7.49,7.49,0,0,0,185.64,163.31Z"/><line class="cls-2" x1="207.66" y1="150" x2="207.66" y2="250"/><line class="cls-2" x1="222.44" y1="150" x2="222.44" y2="250"/><line class="cls-2" x1="193.2" y1="150" x2="193.2" y2="250"/><line class="cls-2" x1="178.74" y1="150" x2="178.74" y2="250"/><line class="cls-2" x1="164.28" y1="150" x2="164.28" y2="250"/><line class="cls-2" x1="149.81" y1="150" x2="149.81" y2="250"/><line class="cls-2" x1="135.35" y1="150" x2="135.35" y2="250"/><line class="cls-2" x1="120.89" y1="150" x2="120.89" y2="250"/><line class="cls-2" x1="106.43" y1="150" x2="106.43" y2="250"/><line class="cls-2" x1="91.96" y1="150" x2="91.96" y2="250"/><line class="cls-2" x1="91.96" y1="235.56" x2="222.44" y2="235.56"/><line class="cls-2" x1="91.96" y1="250" x2="222.44" y2="250"/><line class="cls-2" x1="91.96" y1="221.11" x2="222.44" y2="221.11"/><line class="cls-2" x1="91.96" y1="206.67" x2="222.09" y2="206.67"/><line class="cls-2" x1="91.96" y1="192.22" x2="222.09" y2="192.22"/><line class="cls-2" x1="91.96" y1="177.78" x2="222.09" y2="177.78"/><line class="cls-2" x1="91.96" y1="163.33" x2="222.09" y2="163.33"/><line class="cls-2" x1="91.96" y1="150" x2="222.09" y2="150"/></svg>