<svg width="132" height="102" viewBox="0 0 132 102" fill="none" xmlns="http://www.w3.org/2000/svg">
<path d="M73.2401 28.78H37.3701C35.3863 28.78 33.4838 29.5681 32.081 30.9709C30.6782 32.3736 29.8901 34.2762 29.8901 36.26V79.07C29.8901 81.0548 30.6779 82.9584 32.0804 84.3627C33.4829 85.7671 35.3854 86.5574 37.3701 86.56H80.1801C82.1658 86.5574 84.0694 85.7674 85.4734 84.3633C86.8775 82.9593 87.6675 81.0557 87.6701 79.07V43.2H73.2401V28.78Z" fill="#2478DB"/>
<path d="M94.64 14.3101H80.73C78.7435 14.3101 76.8384 15.0992 75.4338 16.5039C74.0291 17.9085 73.24 19.8137 73.24 21.8001V28.8001H87.67V43.2001H94.67C95.6531 43.2014 96.6269 43.0089 97.5355 42.6336C98.4442 42.2583 99.27 41.7075 99.9656 41.0128C100.661 40.3181 101.213 39.4931 101.59 38.5849C101.966 37.6767 102.16 36.7033 102.16 35.7201V21.8001C102.16 20.814 101.965 19.8376 101.587 18.9269C101.209 18.0162 100.654 17.1892 99.9556 16.4933C99.2569 15.7974 98.4277 15.2463 97.5155 14.8716C96.6033 14.497 95.6261 14.3062 94.64 14.3101Z" fill="#2478DB"/>
<path d="M116.66 1V101" stroke="black" stroke-width="0.12" stroke-miterlimit="10"/>
<path d="M131.44 1V101" stroke="black" stroke-width="0.12" stroke-miterlimit="10"/>
<path d="M102.2 1V101" stroke="black" stroke-width="0.12" stroke-miterlimit="10"/>
<path d="M87.74 1V101" stroke="black" stroke-width="0.12" stroke-miterlimit="10"/>
<path d="M73.28 1V101" stroke="black" stroke-width="0.12" stroke-miterlimit="10"/>
<path d="M58.8101 1V101" stroke="black" stroke-width="0.12" stroke-miterlimit="10"/>
<path d="M44.3501 1V101" stroke="black" stroke-width="0.12" stroke-miterlimit="10"/>
<path d="M29.8901 1V101" stroke="black" stroke-width="0.12" stroke-miterlimit="10"/>
<path d="M15.4302 1V101" stroke="black" stroke-width="0.12" stroke-miterlimit="10"/>
<path d="M0.959961 1V101" stroke="black" stroke-width="0.12" stroke-miterlimit="10"/>
<path d="M0.959961 86.5601H131.44" stroke="black" stroke-width="0.12" stroke-miterlimit="10"/>
<path d="M0.959961 101H131.44" stroke="black" stroke-width="0.12" stroke-miterlimit="10"/>
<path d="M0.959961 72.1101H131.44" stroke="black" stroke-width="0.12" stroke-miterlimit="10"/>
<path d="M0.959961 57.6699H131.09" stroke="black" stroke-width="0.12" stroke-miterlimit="10"/>
<path d="M0.959961 43.22H131.09" stroke="black" stroke-width="0.12" stroke-miterlimit="10"/>
<path d="M0.959961 28.78H131.09" stroke="black" stroke-width="0.12" stroke-miterlimit="10"/>
<path d="M0.959961 14.3301H131.09" stroke="black" stroke-width="0.12" stroke-miterlimit="10"/>
<path d="M0.959961 1H131.09" stroke="black" stroke-width="0.12" stroke-miterlimit="10"/>
</svg>
