<svg id="Слой_1" data-name="Слой 1" xmlns="http://www.w3.org/2000/svg" xmlns:xlink="http://www.w3.org/1999/xlink" viewBox="0 0 600 400"><defs><style>.cls-1{fill:#2478db;}.cls-2{fill:#fff;}.cls-3{clip-path:url(#clip-path);}.cls-4,.cls-5,.cls-6{fill:none;stroke:#000;stroke-miterlimit:10;}.cls-4{stroke-width:0.97px;}.cls-5{stroke-width:0.5px;}.cls-6{stroke-width:0.1px;}</style><clipPath id="clip-path"><rect class="cls-1" x="213" y="168.98" width="144.85" height="72.5"/></clipPath></defs><rect class="cls-2" x="213" y="88.87" width="14.5" height="36.64"/><rect class="cls-2" x="227.5" y="88.87" width="43.4" height="22.11"/><rect class="cls-2" x="270.9" y="88.87" width="29.1" height="51.11"/><rect class="cls-2" x="343.5" y="88.87" width="43.55" height="65.61"/><polygon points="372.65 182.99 345.64 182.99 345.64 181.39 344.03 181.39 344.03 154.52 343.07 154.52 343.07 181.39 341.46 181.39 341.46 182.99 314.45 182.99 314.45 183.95 341.46 183.95 341.46 185.55 343.07 185.55 343.07 212.42 344.03 212.42 344.03 185.55 345.64 185.55 345.64 183.95 372.65 183.95 372.65 182.99"/><rect class="cls-1" x="213" y="168.98" width="144.85" height="72.5"/><g class="cls-3"><polygon class="cls-2" points="372.65 182.99 345.64 182.99 345.64 181.39 344.03 181.39 344.03 154.52 343.07 154.52 343.07 181.39 341.46 181.39 341.46 182.99 314.45 182.99 314.45 183.95 341.46 183.95 341.46 185.55 343.07 185.55 343.07 212.42 344.03 212.42 344.03 185.55 345.64 185.55 345.64 183.95 372.65 183.95 372.65 182.99"/><rect class="cls-2" x="242" y="197.95" width="86.8" height="29.03"/><rect class="cls-2" x="285.4" y="182.99" width="29.05" height="43.91"/></g><rect class="cls-2" x="343.5" y="96.12" width="43.55" height="14.69"/><rect class="cls-4" x="169.5" y="81.98" width="261" height="203"/><rect class="cls-5" x="169.5" y="284.98" width="261" height="14.5"/><rect class="cls-5" x="387" y="284.98" width="43.5" height="29"/><line class="cls-6" x1="155" y1="328.48" x2="445" y2="328.48"/><line class="cls-6" x1="155" y1="313.98" x2="445" y2="313.98"/><line class="cls-6" x1="155" y1="299.48" x2="445" y2="299.48"/><line class="cls-6" x1="155" y1="284.98" x2="445" y2="284.98"/><line class="cls-6" x1="155" y1="270.48" x2="445" y2="270.48"/><line class="cls-6" x1="155" y1="255.98" x2="445" y2="255.98"/><line class="cls-6" x1="155" y1="241.48" x2="445" y2="241.48"/><line class="cls-6" x1="155" y1="226.98" x2="445" y2="226.98"/><line class="cls-6" x1="155" y1="212.48" x2="445" y2="212.48"/><line class="cls-6" x1="155" y1="197.98" x2="445" y2="197.98"/><line class="cls-6" x1="155" y1="183.48" x2="445" y2="183.48"/><line class="cls-6" x1="155" y1="168.98" x2="445" y2="168.98"/><line class="cls-6" x1="155" y1="154.48" x2="445" y2="154.48"/><line class="cls-6" x1="155" y1="139.98" x2="445" y2="139.98"/><line class="cls-6" x1="155" y1="125.48" x2="445" y2="125.48"/><line class="cls-6" x1="155" y1="110.98" x2="445" y2="110.98"/><line class="cls-6" x1="155" y1="96.48" x2="445" y2="96.48"/><line class="cls-6" x1="155" y1="81.98" x2="445" y2="81.98"/><line class="cls-6" x1="155" y1="67.48" x2="445" y2="67.48"/><line class="cls-6" x1="445" y1="328.42" x2="445" y2="67.48"/><line class="cls-6" x1="430.5" y1="328.42" x2="430.5" y2="67.48"/><line class="cls-6" x1="416" y1="328.42" x2="416" y2="67.48"/><line class="cls-6" x1="401.5" y1="328.42" x2="401.5" y2="67.48"/><line class="cls-6" x1="387" y1="328.42" x2="387" y2="67.48"/><line class="cls-6" x1="372.5" y1="328.42" x2="372.5" y2="67.48"/><line class="cls-6" x1="358" y1="328.42" x2="358" y2="67.48"/><line class="cls-6" x1="343.5" y1="328.42" x2="343.5" y2="67.48"/><line class="cls-6" x1="329" y1="328.42" x2="329" y2="67.48"/><line class="cls-6" x1="314.5" y1="328.42" x2="314.5" y2="67.48"/><line class="cls-6" x1="300" y1="328.42" x2="300" y2="67.48"/><line class="cls-6" x1="285.5" y1="328.42" x2="285.5" y2="67.48"/><line class="cls-6" x1="271" y1="328.42" x2="271" y2="67.48"/><line class="cls-6" x1="256.5" y1="328.42" x2="256.5" y2="67.48"/><line class="cls-6" x1="242" y1="328.42" x2="242" y2="67.48"/><line class="cls-6" x1="227.5" y1="328.42" x2="227.5" y2="67.48"/><line class="cls-6" x1="213" y1="328.42" x2="213" y2="67.48"/><line class="cls-6" x1="198.5" y1="328.42" x2="198.5" y2="67.48"/><line class="cls-6" x1="184" y1="328.42" x2="184" y2="67.48"/><line class="cls-6" x1="169.5" y1="328.42" x2="169.5" y2="67.48"/><line class="cls-6" x1="155" y1="328.42" x2="155" y2="67.48"/></svg>