<svg width="302" height="273" viewBox="0 0 302 273" fill="none" xmlns="http://www.w3.org/2000/svg">
<path d="M78.5 26.8701H64V63.5101H78.5V26.8701Z" fill="white"/>
<path d="M121.9 26.8701H78.5V48.9801H121.9V26.8701Z" fill="white"/>
<path d="M151 26.8701H121.9V77.9801H151V26.8701Z" fill="white"/>
<path d="M238.05 26.8701H194.5V92.4801H238.05V26.8701Z" fill="white"/>
<path d="M223.65 120.99H196.64V119.39H195.03V92.52H194.07V119.39H192.46V120.99H165.45V121.95H192.46V123.55H194.07V150.42H195.03V123.55H196.64V121.95H223.65V120.99Z" fill="black"/>
<path d="M208.85 106.98H64V179.48H208.85V106.98Z" fill="#2478DB"/>
<path d="M223.65 120.99H196.64V119.39H195.03V92.52H194.07V119.39H192.46V120.99H165.45V121.95H192.46V123.55H194.07V150.42H195.03V123.55H196.64V121.95H223.65V120.99Z" fill="white"/>
<path d="M179.8 135.95H93V164.98H179.8V135.95Z" fill="white"/>
<path d="M165.45 120.99H136.4V164.9H165.45V120.99Z" fill="white"/>
<path d="M238.05 34.1201H194.5V48.8101H238.05V34.1201Z" fill="white"/>
<path d="M281.5 19.98H20.5V222.98H281.5V19.98Z" stroke="black" stroke-width="0.97" stroke-miterlimit="10"/>
<path d="M281.5 222.98H20.5V237.48H281.5V222.98Z" stroke="black" stroke-width="0.5" stroke-miterlimit="10"/>
<path d="M281.5 222.98H238V251.98H281.5V222.98Z" stroke="black" stroke-width="0.5" stroke-miterlimit="10"/>
<path d="M6 266.48H296" stroke="black" stroke-width="0.1" stroke-miterlimit="10"/>
<path d="M6 251.98H296" stroke="black" stroke-width="0.1" stroke-miterlimit="10"/>
<path d="M6 237.48H296" stroke="black" stroke-width="0.1" stroke-miterlimit="10"/>
<path d="M6 222.98H296" stroke="black" stroke-width="0.1" stroke-miterlimit="10"/>
<path d="M6 208.48H296" stroke="black" stroke-width="0.1" stroke-miterlimit="10"/>
<path d="M6 193.98H296" stroke="black" stroke-width="0.1" stroke-miterlimit="10"/>
<path d="M6 179.48H296" stroke="black" stroke-width="0.1" stroke-miterlimit="10"/>
<path d="M6 164.98H296" stroke="black" stroke-width="0.1" stroke-miterlimit="10"/>
<path d="M6 150.48H296" stroke="black" stroke-width="0.1" stroke-miterlimit="10"/>
<path d="M6 135.98H296" stroke="black" stroke-width="0.1" stroke-miterlimit="10"/>
<path d="M6 121.48H296" stroke="black" stroke-width="0.1" stroke-miterlimit="10"/>
<path d="M6 106.98H296" stroke="black" stroke-width="0.1" stroke-miterlimit="10"/>
<path d="M6 92.48H296" stroke="black" stroke-width="0.1" stroke-miterlimit="10"/>
<path d="M6 77.98H296" stroke="black" stroke-width="0.1" stroke-miterlimit="10"/>
<path d="M6 63.48H296" stroke="black" stroke-width="0.1" stroke-miterlimit="10"/>
<path d="M6 48.98H296" stroke="black" stroke-width="0.1" stroke-miterlimit="10"/>
<path d="M6 34.48H296" stroke="black" stroke-width="0.1" stroke-miterlimit="10"/>
<path d="M6 19.98H296" stroke="black" stroke-width="0.1" stroke-miterlimit="10"/>
<path d="M6 5.47998H296" stroke="black" stroke-width="0.1" stroke-miterlimit="10"/>
<path d="M296 266.42V5.47998" stroke="black" stroke-width="0.1" stroke-miterlimit="10"/>
<path d="M281.5 266.42V5.47998" stroke="black" stroke-width="0.1" stroke-miterlimit="10"/>
<path d="M267 266.42V5.47998" stroke="black" stroke-width="0.1" stroke-miterlimit="10"/>
<path d="M252.5 266.42V5.47998" stroke="black" stroke-width="0.1" stroke-miterlimit="10"/>
<path d="M238 266.42V5.47998" stroke="black" stroke-width="0.1" stroke-miterlimit="10"/>
<path d="M223.5 266.42V5.47998" stroke="black" stroke-width="0.1" stroke-miterlimit="10"/>
<path d="M209 266.42V5.47998" stroke="black" stroke-width="0.1" stroke-miterlimit="10"/>
<path d="M194.5 266.42V5.47998" stroke="black" stroke-width="0.1" stroke-miterlimit="10"/>
<path d="M180 266.42V5.47998" stroke="black" stroke-width="0.1" stroke-miterlimit="10"/>
<path d="M165.5 266.42V5.47998" stroke="black" stroke-width="0.1" stroke-miterlimit="10"/>
<path d="M151 266.42V5.47998" stroke="black" stroke-width="0.1" stroke-miterlimit="10"/>
<path d="M136.5 266.42V5.47998" stroke="black" stroke-width="0.1" stroke-miterlimit="10"/>
<path d="M122 266.42V5.47998" stroke="black" stroke-width="0.1" stroke-miterlimit="10"/>
<path d="M107.5 266.42V5.47998" stroke="black" stroke-width="0.1" stroke-miterlimit="10"/>
<path d="M93 266.42V5.47998" stroke="black" stroke-width="0.1" stroke-miterlimit="10"/>
<path d="M78.5 266.42V5.47998" stroke="black" stroke-width="0.1" stroke-miterlimit="10"/>
<path d="M64 266.42V5.47998" stroke="black" stroke-width="0.1" stroke-miterlimit="10"/>
<path d="M49.5 266.42V5.47998" stroke="black" stroke-width="0.1" stroke-miterlimit="10"/>
<path d="M35 266.42V5.47998" stroke="black" stroke-width="0.1" stroke-miterlimit="10"/>
<path d="M20.5 266.42V5.47998" stroke="black" stroke-width="0.1" stroke-miterlimit="10"/>
<path d="M6 266.42V5.47998" stroke="black" stroke-width="0.1" stroke-miterlimit="10"/>
</svg>
