<svg width="151" height="142" viewBox="0 0 151 142" fill="none" xmlns="http://www.w3.org/2000/svg">
<g clip-path="url(#clip0_423_3212)">
<path d="M46.2401 50H31.6401V64.56H46.2401V50Z" stroke="#010101" stroke-width="0.48" stroke-miterlimit="10"/>
<path d="M118.89 35.5H104.35V50.17H118.89V35.5Z" stroke="#010101" stroke-width="0.48" stroke-miterlimit="10"/>
<path d="M104.35 107.92H89.8101V122.5H104.35V107.92Z" stroke="#010101" stroke-width="0.47" stroke-miterlimit="10"/>
<path d="M147.44 21V137" stroke="#010101" stroke-width="0.12" stroke-miterlimit="10"/>
<path d="M133.44 21V137" stroke="#010101" stroke-width="0.12" stroke-miterlimit="10"/>
<path d="M118.9 21V137" stroke="#010101" stroke-width="0.12" stroke-miterlimit="10"/>
<path d="M104.35 21V137" stroke="#010101" stroke-width="0.12" stroke-miterlimit="10"/>
<path d="M89.8101 21V137" stroke="#010101" stroke-width="0.12" stroke-miterlimit="10"/>
<path d="M75.27 21V137" stroke="#010101" stroke-width="0.12" stroke-miterlimit="10"/>
<path d="M60.73 21V137" stroke="#010101" stroke-width="0.12" stroke-miterlimit="10"/>
<path d="M46.1899 21V137" stroke="#010101" stroke-width="0.12" stroke-miterlimit="10"/>
<path d="M31.6401 21V137" stroke="#010101" stroke-width="0.12" stroke-miterlimit="10"/>
<path d="M17.1001 21V137" stroke="#010101" stroke-width="0.12" stroke-miterlimit="10"/>
<path d="M2.56006 21V137" stroke="#010101" stroke-width="0.12" stroke-miterlimit="10"/>
<path d="M2.56006 137H147.47" stroke="#010101" stroke-width="0.12" stroke-miterlimit="10"/>
<path d="M2.56006 122.5H147.47" stroke="#010101" stroke-width="0.12" stroke-miterlimit="10"/>
<path d="M2.56006 108H147.47" stroke="#010101" stroke-width="0.12" stroke-miterlimit="10"/>
<path d="M2.56006 93.5H147.47" stroke="#010101" stroke-width="0.12" stroke-miterlimit="10"/>
<path d="M2.56006 79H147.47" stroke="#010101" stroke-width="0.12" stroke-miterlimit="10"/>
<path d="M2.56006 64.5H147.47" stroke="#010101" stroke-width="0.12" stroke-miterlimit="10"/>
<path d="M2.56006 50H147.47" stroke="#010101" stroke-width="0.12" stroke-miterlimit="10"/>
<path d="M2.56006 35.5H147.47" stroke="#010101" stroke-width="0.12" stroke-miterlimit="10"/>
<path d="M2.56006 21H147.47" stroke="#010101" stroke-width="0.12" stroke-miterlimit="10"/>
<path d="M85.6999 196.1H68.85L68.46 195.69C68.3589 195.419 68.17 195.19 67.9234 195.04C67.6768 194.889 67.3868 194.826 67.1 194.86C64.86 195.16 62.71 194.26 60.49 194.47C59.28 193.9 58.02 193.47 56.83 192.87C55.02 191.92 53.38 190.87 52.69 188.87C52.4482 188.317 52.0569 187.842 51.5599 187.5C50.746 186.88 50.107 186.059 49.7056 185.117C49.3042 184.176 49.1541 183.147 49.2699 182.13C49.2495 179.85 49.3898 177.571 49.69 175.31C50.4 174.13 50.82 172.77 51.87 171.8C53.67 170.04 54.3499 167.64 55.5099 165.52C56.7299 162.97 57.37 160.18 58.8 157.72C59.3869 157.419 59.8889 156.975 60.2599 156.43C60.5013 155.477 61.0538 154.633 61.83 154.03C62.285 153.687 62.6576 153.247 62.9206 152.742C63.1836 152.237 63.3303 151.679 63.35 151.11C63.52 148.38 63.64 145.65 65.35 143.34C66.7428 142.722 67.952 141.754 68.8599 140.53C70.6525 139.089 71.8435 137.032 72.1999 134.76C72.271 134.385 72.4294 134.032 72.6622 133.73C72.895 133.428 73.1957 133.184 73.5399 133.02C74.1006 132.875 74.6928 132.914 75.2299 133.13C75.9199 133.33 76.4999 133.7 76.5399 134.46C76.6699 137.02 78.54 138.58 79.91 140.46C80.1296 141.43 79.9985 142.447 79.5399 143.33C79.1339 144.144 78.9576 145.053 79.0299 145.96C78.4799 147.2 78.3099 148.58 77.6999 149.8C77.5137 150.124 77.3883 150.48 77.33 150.85C77.2001 151.301 77.0294 151.74 76.82 152.16C76.317 152.732 76.0119 153.451 75.9499 154.21C75.8788 157.589 75.3952 160.948 74.5099 164.21C74.3384 164.917 74.398 165.66 74.6799 166.33C75.0799 167.5 75.7499 168.65 75.4799 169.97C75.4799 170.27 75.4799 170.58 75.4799 170.87C73.6999 173.87 72.2 177.11 68.35 178.12C67.3751 178.413 66.4724 178.907 65.6999 179.57C68.2499 179.25 70.5899 180.37 73.0899 180.44C73.9885 180.53 74.8603 180.798 75.655 181.227C76.4496 181.656 77.1515 182.238 77.7199 182.94C78.8799 185.54 81.41 186.85 83.27 188.8C84.1617 189.702 84.8657 190.772 85.3412 191.947C85.8166 193.123 86.0541 194.382 86.0399 195.65C85.9343 195.806 85.8208 195.956 85.6999 196.1Z" fill="#2478DB"/>
<path d="M80.0699 60.5201C80.3699 61.5201 81.2199 61.9801 81.8799 62.6001C83.2991 63.9221 84.3179 65.6166 84.8199 67.4901C85.3814 69.2941 86.4176 70.9139 87.8199 72.1801C91.1799 75.4101 91.7299 79.7601 92.9799 83.8401C93.2799 84.8401 92.2099 85.5001 92.1299 86.4401C91.8699 86.9701 92.4399 87.4401 92.2999 87.9201C91.7499 92.0801 90.0299 95.9201 88.8299 99.9201C88.6299 100.18 88.4198 100.53 88.1199 100.58C86.2598 100.92 85.2399 102.26 84.2999 103.7C82.5903 105.224 81.1383 107.013 79.9999 109C79.1899 110.06 79.7799 111.41 79.2598 112.53C78.8586 113.186 78.5996 113.918 78.4999 114.68C78.0807 115.546 77.6133 116.387 77.0999 117.2C77.0913 118.272 76.9262 119.336 76.6099 120.36C76.6099 122.18 77.4799 123.77 77.9899 125.45C78.439 126.553 78.81 127.685 79.0999 128.84C79.8099 130.13 79.4398 131.51 79.4799 132.84C79.7199 134.36 80.0799 135.84 79.5299 137.4C78.1899 138.25 77.4799 138 76.9699 136.54C76.7699 135.97 76.9699 135.35 76.7299 134.81C76.4899 134.27 76.3399 133.3 75.2699 133.7H73.6299C73.3572 133.833 73.058 133.902 72.7549 133.902C72.4517 133.902 72.1525 133.833 71.8799 133.7C71.1768 132.998 70.6015 132.18 70.1798 131.28C69.9698 130.92 69.5899 130.76 69.3099 130.5C67.7899 129.13 67.7199 128.34 68.8499 126.56C69.0599 126.222 69.2183 125.855 69.3199 125.47C70.3199 122.16 68.4299 120.05 66.3199 118.03C64.8399 116.24 64.6899 115.32 65.8199 113.38C66.606 111.869 67.2134 110.272 67.6299 108.62C68.2799 106.51 69.6299 104.67 70.7999 102.73C72.3999 99.9801 74.7999 97.9901 77.1099 95.9101C77.7811 95.4023 78.3712 94.7954 78.8599 94.1101C79.8135 93.1917 80.6347 92.145 81.2999 91.0001C82.3106 90.1289 83.1927 89.1189 83.9199 88.0001C84.2898 87.61 84.4961 87.0928 84.4961 86.5551C84.4961 86.0174 84.2898 85.5003 83.9199 85.1101C83.3128 84.4393 82.7798 83.705 82.3299 82.9201C81.9399 82.4101 81.3298 82.1001 81.1199 81.4401C80.4565 79.6176 79.5117 77.9102 78.3199 76.3801C77.3999 72.9401 74.8699 70.7601 72.2399 68.6601C71.6768 68.1878 70.974 67.9137 70.2399 67.8801C69.4699 67.7201 69.2399 66.7201 68.3998 66.6901C68.1505 66.5744 67.9099 66.4407 67.6798 66.2901C67.4359 66.1669 67.2184 65.997 67.0398 65.7901C66.6886 64.9569 66.1792 64.1996 65.5398 63.5601C64.9998 62.5601 64.3299 61.7001 63.8199 60.7201C63.2699 59.2401 62.2299 57.9901 61.8899 56.4201C61.6899 55.4201 61.6799 54.3601 61.4999 53.3301C61.4209 52.5866 61.5098 51.8348 61.7599 51.1301C62.1336 49.8808 62.3256 48.5842 62.3299 47.2801C62.9999 45.7801 64.2699 45.4701 65.7399 45.5601C65.9747 45.5332 66.2121 45.578 66.421 45.6887C66.6298 45.7994 66.8003 45.9707 66.9099 46.1801C67.9999 48.5501 70.2599 49.5201 72.3599 50.6401C75.7227 52.4461 78.3477 55.3718 79.7799 58.9101C79.9999 59.3901 79.7099 60.0001 80.0699 60.5201Z" fill="#2478DB"/>
<path d="M66.88 141.68L66.77 140.46C66.31 138.46 65.77 136.36 67.33 134.51C68.33 134.33 69.4 133.65 70.45 134.51C70.98 134.61 71.6 134.58 71.68 135.33C71.68 137.49 69.89 138.56 68.83 140.08L66.88 141.68Z" fill="#2478DB"/>
<path d="M65.2601 45.3399L62.9201 45.9499C62.917 45.894 62.8973 45.8404 62.8634 45.7958C62.8296 45.7512 62.7831 45.7178 62.7301 45.6999C61.3101 44.8499 61.1101 43.4499 61.0601 41.9799C60.8201 37.4899 61.9301 33.2499 63.3701 29.0599C63.5846 28.5868 63.8639 28.1459 64.2001 27.7499C64.9901 26.1699 66.3501 24.9699 67.1201 23.3799C68.1201 21.6499 69.5201 20.1699 70.3401 18.3799C72.2901 14.6699 72.1601 10.8199 71.0701 6.91994C70.3801 5.05994 69.3801 3.33994 68.6101 1.51994C68.4971 1.34204 68.4372 1.13567 68.4372 0.924942C68.4372 0.714213 68.4971 0.507837 68.6101 0.329941C69.6064 -0.468631 70.8178 -0.952517 72.0901 -1.06006C72.5162 -0.861434 72.8932 -0.571082 73.194 -0.20977C73.4948 0.151541 73.712 0.574875 73.8301 1.02994C74.3701 2.02994 73.4601 2.86994 73.5701 3.80994C75.1801 8.66994 75.7801 13.5199 73.5701 18.3799C72.3838 20.9007 70.8708 23.2542 69.0701 25.3799C67.9811 26.6376 67.1863 28.1223 66.7435 29.7259C66.3006 31.3295 66.2209 33.0116 66.5101 34.6499C66.6607 35.3145 66.6191 36.0082 66.3901 36.6499C65.1401 39.3999 65.1801 42.3599 65.2601 45.3399Z" fill="#2478DB"/>
<path d="M71.2101 -5.89996C71.2101 -5.36996 71.27 -4.82996 71.37 -4.31996C72.02 -0.839962 71.99 -0.779959 68.48 0.0500412L68.04 -0.679962C67.8065 -0.6959 67.5792 -0.762255 67.3738 -0.874466C67.1683 -0.986677 66.9897 -1.14208 66.8501 -1.32996C64.9801 -3.85996 62.8501 -6.18996 61.1001 -8.81996C61.0134 -9.00064 60.9722 -9.19974 60.98 -9.39996C60.3836 -11.3135 60.1364 -13.3188 60.25 -15.32C60.2392 -16.2647 60.598 -17.1762 61.25 -17.86C63.25 -19.72 64.81 -21.95 66.69 -23.86C67.0711 -24.3566 67.5816 -24.7387 68.1654 -24.9645C68.7493 -25.1903 69.384 -25.251 70 -25.14L72.81 -25.71C73.81 -25.14 73.95 -24.42 73.15 -23.56C72.67 -22.33 71.29 -22.56 70.45 -21.98C69.8076 -21.5846 69.1898 -21.1504 68.6001 -20.68C67.8401 -20.28 67.73 -19.39 67.19 -18.82C66.8277 -18.6007 66.5495 -18.2662 66.4 -17.87C66.3 -17.63 66.2 -17.4 66.08 -17.17C65.3769 -16.1653 64.8931 -15.0239 64.6601 -13.82C64.3701 -10.69 64.5701 -10.37 67.6601 -9.04996C68.6001 -8.51996 69.6601 -8.35996 70.6601 -7.87996C71.0905 -7.31489 71.2874 -6.60607 71.2101 -5.89996Z" fill="#2478DB"/>
</g>
<defs>
<clipPath id="clip0_423_3212">
<rect width="151" height="142" fill="white"/>
</clipPath>
</defs>
</svg>
