<svg id="Слой_1" data-name="Слой 1" xmlns="http://www.w3.org/2000/svg" xmlns:xlink="http://www.w3.org/1999/xlink" viewBox="0 0 300 400"><defs><style>.cls-1{fill:#2478db;}.cls-2{clip-path:url(#clip-path);}.cls-3,.cls-5,.cls-6,.cls-7,.cls-8{fill:none;stroke-miterlimit:10;}.cls-3{stroke:#fff;}.cls-3,.cls-5{stroke-width:0.25px;}.cls-4{clip-path:url(#clip-path-2);}.cls-5,.cls-6,.cls-7,.cls-8{stroke:#010101;}.cls-7{stroke-width:1.21px;}.cls-8{stroke-width:0.5px;}</style><clipPath id="clip-path"><rect class="cls-1" x="135.3" y="185.51" width="14.49" height="86.93"/></clipPath><clipPath id="clip-path-2"><rect class="cls-1" x="149.79" y="127.56" width="43.46" height="28.98"/></clipPath></defs><rect class="cls-1" x="135.3" y="185.51" width="14.49" height="86.93"/><g class="cls-2"><line class="cls-3" x1="135.3" y1="272.44" x2="280.18" y2="272.44"/><line class="cls-3" x1="135.3" y1="257.95" x2="280.18" y2="257.95"/><line class="cls-3" x1="135.3" y1="243.46" x2="280.18" y2="243.46"/><line class="cls-3" x1="135.3" y1="228.98" x2="280.18" y2="228.98"/><line class="cls-3" x1="135.3" y1="214.49" x2="280.18" y2="214.49"/><line class="cls-3" x1="135.3" y1="200" x2="280.18" y2="200"/><line class="cls-3" x1="135.3" y1="185.51" x2="280.18" y2="185.51"/><line class="cls-3" x1="135.3" y1="171.02" x2="280.18" y2="171.02"/><line class="cls-3" x1="135.3" y1="156.54" x2="280.18" y2="156.54"/><line class="cls-3" x1="135.3" y1="142.05" x2="280.18" y2="142.05"/><line class="cls-3" x1="280.18" y1="127.56" x2="135.3" y2="127.56"/><line class="cls-3" x1="280.18" y1="127.56" x2="280.18" y2="272.44"/><line class="cls-3" x1="265.69" y1="127.56" x2="265.69" y2="272.44"/><line class="cls-3" x1="251.21" y1="127.56" x2="251.21" y2="272.44"/><line class="cls-3" x1="236.72" y1="127.56" x2="236.72" y2="272.44"/><line class="cls-3" x1="222.23" y1="127.56" x2="222.23" y2="272.44"/><line class="cls-3" x1="207.74" y1="127.56" x2="207.74" y2="272.44"/><line class="cls-3" x1="193.25" y1="127.56" x2="193.25" y2="272.44"/><line class="cls-3" x1="178.77" y1="127.56" x2="178.77" y2="272.44"/><line class="cls-3" x1="164.28" y1="127.56" x2="164.28" y2="272.44"/><line class="cls-3" x1="149.79" y1="127.56" x2="149.79" y2="272.44"/><line class="cls-3" x1="135.3" y1="272.44" x2="135.3" y2="127.56"/></g><rect class="cls-1" x="149.79" y="127.56" width="43.46" height="28.98"/><g class="cls-4"><line class="cls-3" x1="149.79" y1="156.54" x2="294.67" y2="156.54"/><line class="cls-3" x1="149.79" y1="142.05" x2="294.67" y2="142.05"/><line class="cls-3" x1="149.79" y1="127.56" x2="294.67" y2="127.56"/><line class="cls-3" x1="149.79" y1="113.07" x2="294.67" y2="113.07"/><line class="cls-3" x1="149.79" y1="98.58" x2="294.67" y2="98.58"/><line class="cls-3" x1="149.79" y1="84.1" x2="294.67" y2="84.1"/><line class="cls-3" x1="149.79" y1="69.61" x2="294.67" y2="69.61"/><line class="cls-3" x1="149.79" y1="55.12" x2="294.67" y2="55.12"/><line class="cls-3" x1="149.79" y1="40.63" x2="294.67" y2="40.63"/><line class="cls-3" x1="149.79" y1="26.15" x2="294.67" y2="26.15"/><line class="cls-3" x1="294.67" y1="11.66" x2="149.79" y2="11.66"/><line class="cls-3" x1="294.67" y1="11.66" x2="294.67" y2="156.54"/><line class="cls-3" x1="280.18" y1="11.66" x2="280.18" y2="156.54"/><line class="cls-3" x1="265.69" y1="11.66" x2="265.69" y2="156.54"/><line class="cls-3" x1="251.21" y1="11.66" x2="251.21" y2="156.54"/><line class="cls-3" x1="236.72" y1="11.66" x2="236.72" y2="156.54"/><line class="cls-3" x1="222.23" y1="11.66" x2="222.23" y2="156.54"/><line class="cls-3" x1="207.74" y1="11.66" x2="207.74" y2="156.54"/><line class="cls-3" x1="193.25" y1="11.66" x2="193.25" y2="156.54"/><line class="cls-3" x1="178.77" y1="11.66" x2="178.77" y2="156.54"/><line class="cls-3" x1="164.28" y1="11.66" x2="164.28" y2="156.54"/><line class="cls-3" x1="149.79" y1="156.54" x2="149.79" y2="11.66"/></g><polyline class="cls-5" points="149.53 127.56 193.25 127.56 193.25 272.44 106.85 272.44 106.85 228.98"/><polyline class="cls-6" points="178.77 272.44 193.25 272.44 193.25 257.95"/><polyline class="cls-6" points="192.75 142.05 192.75 127.56 178.27 127.56"/><rect class="cls-7" x="106.85" y="142.05" width="42.67" height="43.46"/><polyline class="cls-7" points="135.3 272.44 135.3 185.51 106.85 185.51 106.85 214.49 135.3 214.49"/><line class="cls-7" x1="135.3" y1="142.05" x2="135.3" y2="185.51"/><line class="cls-7" x1="149.53" y1="156.54" x2="149.53" y2="127.56"/><line class="cls-7" x1="106.85" y1="228.98" x2="135.3" y2="228.98"/><line class="cls-8" x1="149.79" y1="272.44" x2="149.79" y2="185.51"/><line class="cls-8" x1="149.79" y1="214.49" x2="193.25" y2="214.49"/><line class="cls-8" x1="149.79" y1="156.54" x2="193.25" y2="156.54"/><line class="cls-7" x1="106.85" y1="272.44" x2="106.85" y2="228.98"/></svg>