<svg width="92" height="147" viewBox="0 0 92 147" fill="none" xmlns="http://www.w3.org/2000/svg">
<g clip-path="url(#clip0_423_3257)">
<path d="M45.79 58.51H31.3V145.44H45.79V58.51Z" fill="#2478DB"/>
<path d="M31.3 145.44H176.18" stroke="white" stroke-width="0.25" stroke-miterlimit="10"/>
<path d="M31.3 130.95H176.18" stroke="white" stroke-width="0.25" stroke-miterlimit="10"/>
<path d="M31.3 116.46H176.18" stroke="white" stroke-width="0.25" stroke-miterlimit="10"/>
<path d="M31.3 101.98H176.18" stroke="white" stroke-width="0.25" stroke-miterlimit="10"/>
<path d="M31.3 87.49H176.18" stroke="white" stroke-width="0.25" stroke-miterlimit="10"/>
<path d="M31.3 73H176.18" stroke="white" stroke-width="0.25" stroke-miterlimit="10"/>
<path d="M31.3 58.51H176.18" stroke="white" stroke-width="0.25" stroke-miterlimit="10"/>
<path d="M31.3 44.02H176.18" stroke="white" stroke-width="0.25" stroke-miterlimit="10"/>
<path d="M31.3 29.54H176.18" stroke="white" stroke-width="0.25" stroke-miterlimit="10"/>
<path d="M31.3 15.05H176.18" stroke="white" stroke-width="0.25" stroke-miterlimit="10"/>
<path d="M176.18 0.560059H31.3" stroke="white" stroke-width="0.25" stroke-miterlimit="10"/>
<path d="M89.25 0.560059V145.44" stroke="white" stroke-width="0.25" stroke-miterlimit="10"/>
<path d="M74.77 0.560059V145.44" stroke="white" stroke-width="0.25" stroke-miterlimit="10"/>
<path d="M60.28 0.560059V145.44" stroke="white" stroke-width="0.25" stroke-miterlimit="10"/>
<path d="M45.79 0.560059V145.44" stroke="white" stroke-width="0.25" stroke-miterlimit="10"/>
<path d="M31.3 145.44V0.560059" stroke="white" stroke-width="0.25" stroke-miterlimit="10"/>
<path d="M89.25 0.560059H45.79V29.5401H89.25V0.560059Z" fill="#2478DB"/>
<path d="M45.79 29.5398H190.67" stroke="white" stroke-width="0.25" stroke-miterlimit="10"/>
<path d="M45.79 15.0498H190.67" stroke="white" stroke-width="0.25" stroke-miterlimit="10"/>
<path d="M45.79 0.559814H190.67" stroke="white" stroke-width="0.25" stroke-miterlimit="10"/>
<path d="M89.25 -115.34V29.5399" stroke="white" stroke-width="0.25" stroke-miterlimit="10"/>
<path d="M74.77 -115.34V29.5399" stroke="white" stroke-width="0.25" stroke-miterlimit="10"/>
<path d="M60.28 -115.34V29.5399" stroke="white" stroke-width="0.25" stroke-miterlimit="10"/>
<path d="M45.79 29.5399V-115.34" stroke="white" stroke-width="0.25" stroke-miterlimit="10"/>
<path d="M45.5301 0.560059H89.2501V145.44H2.8501V101.98" stroke="#010101" stroke-width="0.25" stroke-miterlimit="10"/>
<path d="M74.77 145.44H89.25V130.95" stroke="#010101" stroke-miterlimit="10"/>
<path d="M88.75 15.0501V0.560059H74.27" stroke="#010101" stroke-miterlimit="10"/>
<path d="M45.5201 15.05H2.8501V58.51H45.5201V15.05Z" stroke="#010101" stroke-width="1.21" stroke-miterlimit="10"/>
<path d="M31.3001 145.44V58.51H2.8501V87.49H31.3001" stroke="#010101" stroke-width="1.21" stroke-miterlimit="10"/>
<path d="M31.3 15.05V58.51" stroke="#010101" stroke-width="1.21" stroke-miterlimit="10"/>
<path d="M45.53 29.5401V0.560059" stroke="#010101" stroke-width="1.21" stroke-miterlimit="10"/>
<path d="M2.8501 101.98H31.3001" stroke="#010101" stroke-width="1.21" stroke-miterlimit="10"/>
<path d="M45.79 145.44V58.51" stroke="#010101" stroke-width="0.5" stroke-miterlimit="10"/>
<path d="M45.79 87.49H89.25" stroke="#010101" stroke-width="0.5" stroke-miterlimit="10"/>
<path d="M45.79 29.54H89.25" stroke="#010101" stroke-width="0.5" stroke-miterlimit="10"/>
<path d="M2.8501 145.44V101.98" stroke="#010101" stroke-width="1.21" stroke-miterlimit="10"/>
</g>
<defs>
<clipPath id="clip0_423_3257">
<rect width="92" height="147" fill="white"/>
</clipPath>
</defs>
</svg>
