<svg id="Слой_1" data-name="Слой 1" xmlns="http://www.w3.org/2000/svg" viewBox="0 0 300 400"><defs><style>.cls-1{fill:#2478db;}.cls-2{fill:none;stroke:#010101;stroke-miterlimit:10;}</style></defs><circle class="cls-1" cx="92" cy="214.5" r="14.5"/><circle class="cls-1" cx="121" cy="258.07" r="14.5"/><circle class="cls-1" cx="150" cy="171" r="14.5"/><circle class="cls-1" cx="179" cy="229" r="14.5"/><circle class="cls-1" cx="208" cy="229" r="14.5"/><circle class="cls-1" cx="208" cy="156.5" r="14.5"/><path class="cls-2" d="M77.5,214.5a14.5,14.5,0,0,1,29,0v43.57"/><path class="cls-2" d="M106.5,258.07a14.5,14.5,0,0,0,29,0V171"/><path class="cls-2" d="M135.5,171a14.5,14.5,0,0,1,29,0v58"/><path class="cls-2" d="M164.5,229A14.5,14.5,0,0,0,179,243.5h29A14.5,14.5,0,0,0,222.5,229V127.5"/><circle class="cls-2" cx="208" cy="156.5" r="14.5"/><line class="cls-2" x1="77.5" y1="272.5" x2="77.5" y2="214.5"/></svg>