<svg width="152" height="151" viewBox="0 0 152 151" fill="none" xmlns="http://www.w3.org/2000/svg">
<path d="M18 106C26.0081 106 32.5 99.5081 32.5 91.5C32.5 83.4919 26.0081 77 18 77C9.99187 77 3.5 83.4919 3.5 91.5C3.5 99.5081 9.99187 106 18 106Z" fill="#2478DB"/>
<path d="M47 149.57C55.0081 149.57 61.5 143.078 61.5 135.07C61.5 127.062 55.0081 120.57 47 120.57C38.9919 120.57 32.5 127.062 32.5 135.07C32.5 143.078 38.9919 149.57 47 149.57Z" fill="#2478DB"/>
<path d="M76 62.5C84.0081 62.5 90.5 56.0081 90.5 48C90.5 39.9919 84.0081 33.5 76 33.5C67.9919 33.5 61.5 39.9919 61.5 48C61.5 56.0081 67.9919 62.5 76 62.5Z" fill="#2478DB"/>
<path d="M105 120.5C113.008 120.5 119.5 114.008 119.5 106C119.5 97.9919 113.008 91.5 105 91.5C96.9919 91.5 90.5 97.9919 90.5 106C90.5 114.008 96.9919 120.5 105 120.5Z" fill="#2478DB"/>
<path d="M134 120.5C142.008 120.5 148.5 114.008 148.5 106C148.5 97.9919 142.008 91.5 134 91.5C125.992 91.5 119.5 97.9919 119.5 106C119.5 114.008 125.992 120.5 134 120.5Z" fill="#2478DB"/>
<path d="M134 48C142.008 48 148.5 41.5081 148.5 33.5C148.5 25.4919 142.008 19 134 19C125.992 19 119.5 25.4919 119.5 33.5C119.5 41.5081 125.992 48 134 48Z" fill="#2478DB"/>
<path d="M3.5 91.5C3.5 87.6544 5.02767 83.9662 7.74695 81.2469C10.4662 78.5277 14.1544 77 18 77C21.8456 77 25.5338 78.5277 28.2531 81.2469C30.9723 83.9662 32.5 87.6544 32.5 91.5V135.07" stroke="#010101" stroke-miterlimit="10"/>
<path d="M32.5 135.07C32.5 138.916 34.0277 142.604 36.7469 145.323C39.4662 148.042 43.1544 149.57 47 149.57C50.8456 149.57 54.5338 148.042 57.2531 145.323C59.9723 142.604 61.5 138.916 61.5 135.07V48" stroke="#010101" stroke-miterlimit="10"/>
<path d="M61.5 48C61.5 44.1544 63.0277 40.4662 65.7469 37.7469C68.4662 35.0277 72.1544 33.5 76 33.5C79.8456 33.5 83.5338 35.0277 86.2531 37.7469C88.9723 40.4662 90.5 44.1544 90.5 48V106" stroke="#010101" stroke-miterlimit="10"/>
<path d="M90.5 106C90.5 109.846 92.0277 113.534 94.7469 116.253C97.4662 118.972 101.154 120.5 105 120.5H134C137.846 120.5 141.534 118.972 144.253 116.253C146.972 113.534 148.5 109.846 148.5 106V4.5" stroke="#010101" stroke-miterlimit="10"/>
<path d="M134 48C142.008 48 148.5 41.5081 148.5 33.5C148.5 25.4919 142.008 19 134 19C125.992 19 119.5 25.4919 119.5 33.5C119.5 41.5081 125.992 48 134 48Z" stroke="#010101" stroke-miterlimit="10"/>
<path d="M3.5 149.5V91.5" stroke="#010101" stroke-miterlimit="10"/>
</svg>
