<svg id="Слой_1" data-name="Слой 1" xmlns="http://www.w3.org/2000/svg" xmlns:xlink="http://www.w3.org/1999/xlink" viewBox="0 0 300 400"><defs><style>.cls-1{fill:#2478db;}.cls-2,.cls-4,.cls-5{fill:none;stroke-miterlimit:10;}.cls-2,.cls-5{stroke:#010101;}.cls-2{stroke-width:0.5px;}.cls-3{clip-path:url(#clip-path);}.cls-4{stroke:#fff;stroke-width:0.12px;}</style><clipPath id="clip-path"><path class="cls-1" d="M164.57,183.52A43.51,43.51,0,1,0,150.08,216v26.11h14.49V183.74h0C164.56,183.66,164.57,183.59,164.57,183.52Z"/></clipPath></defs><ellipse class="cls-2" cx="164.5" cy="213.24" rx="57.89" ry="57.98"/><path class="cls-1" d="M164.57,183.52A43.51,43.51,0,1,0,150.08,216v26.11h14.49V183.74h0C164.56,183.66,164.57,183.59,164.57,183.52Z"/><g class="cls-3"><line class="cls-4" x1="222.39" y1="111.83" x2="222.39" y2="169.16"/><line class="cls-4" x1="208.4" y1="111.83" x2="208.4" y2="169.16"/><line class="cls-4" x1="193.88" y1="111.83" x2="193.88" y2="169.16"/><line class="cls-4" x1="179.35" y1="111.83" x2="179.35" y2="169.16"/><line class="cls-4" x1="164.82" y1="111.83" x2="164.82" y2="169.16"/><line class="cls-4" x1="150.29" y1="111.83" x2="150.29" y2="169.16"/><line class="cls-4" x1="135.76" y1="111.83" x2="135.76" y2="169.16"/><line class="cls-4" x1="121.23" y1="111.83" x2="121.23" y2="169.16"/><line class="cls-4" x1="106.7" y1="111.83" x2="106.7" y2="169.16"/><line class="cls-4" x1="92.17" y1="111.83" x2="92.17" y2="169.16"/><line class="cls-4" x1="77.64" y1="111.83" x2="77.64" y2="169.16"/><line class="cls-4" x1="77.64" y1="170.06" x2="222.43" y2="170.06"/><line class="cls-4" x1="77.64" y1="154.57" x2="222.43" y2="154.57"/><line class="cls-4" x1="77.64" y1="139.99" x2="222.43" y2="139.99"/><line class="cls-4" x1="77.64" y1="125.4" x2="222.43" y2="125.4"/><line class="cls-4" x1="77.64" y1="111.83" x2="222.43" y2="111.83"/><line class="cls-4" x1="222.39" y1="169.16" x2="222.39" y2="285.83"/><line class="cls-4" x1="208.4" y1="169.16" x2="208.4" y2="285.83"/><line class="cls-4" x1="193.88" y1="169.16" x2="193.88" y2="285.83"/><line class="cls-4" x1="179.35" y1="169.16" x2="179.35" y2="285.83"/><line class="cls-4" x1="164.82" y1="169.16" x2="164.82" y2="285.83"/><line class="cls-4" x1="150.29" y1="169.16" x2="150.29" y2="285.83"/><line class="cls-4" x1="135.76" y1="169.16" x2="135.76" y2="285.83"/><line class="cls-4" x1="121.23" y1="169.16" x2="121.23" y2="285.83"/><line class="cls-4" x1="106.7" y1="169.16" x2="106.7" y2="285.83"/><line class="cls-4" x1="92.17" y1="169.16" x2="92.17" y2="285.83"/><line class="cls-4" x1="77.64" y1="169.16" x2="77.64" y2="285.83"/><line class="cls-4" x1="77.64" y1="285.83" x2="222.43" y2="285.83"/><line class="cls-4" x1="77.64" y1="271.24" x2="222.43" y2="271.24"/><line class="cls-4" x1="77.64" y1="256.66" x2="222.43" y2="256.66"/><line class="cls-4" x1="77.64" y1="242.07" x2="222.43" y2="242.07"/><line class="cls-4" x1="77.64" y1="227.49" x2="222.43" y2="227.49"/><line class="cls-4" x1="77.64" y1="212.91" x2="222.43" y2="212.91"/><line class="cls-4" x1="77.64" y1="198.32" x2="222.43" y2="198.32"/><line class="cls-4" x1="77.64" y1="183.74" x2="222.43" y2="183.74"/></g><polyline class="cls-5" points="77.64 256.66 193.88 256.66 193.88 111.83"/><line class="cls-5" x1="179.35" y1="285.83" x2="179.35" y2="157.18"/><path class="cls-2" d="M164.57,242.07V183.74h0c0-.08,0-.15,0-.22a43.38,43.38,0,0,0-9.74-27.46"/><path class="cls-5" d="M107.8,225a43.45,43.45,0,0,0,42.28-9v26.11H179"/></svg>