<svg width="154" height="178" viewBox="0 0 154 178" fill="none" xmlns="http://www.w3.org/2000/svg">
<path d="M75.7101 14.5H32.4901C24.4102 14.5 17.8601 21.0501 17.8601 29.13V29.14C17.8601 37.2199 24.4102 43.77 32.4901 43.77H75.7101C83.79 43.77 90.3401 37.2199 90.3401 29.14V29.13C90.3401 21.0501 83.79 14.5 75.7101 14.5Z" fill="#2478DB"/>
<path d="M119.35 14.5H76.13C68.0501 14.5 61.5 21.0501 61.5 29.13V29.14C61.5 37.2199 68.0501 43.77 76.13 43.77H119.35C127.43 43.77 133.98 37.2199 133.98 29.14V29.13C133.98 21.0501 127.43 14.5 119.35 14.5Z" fill="#2478DB"/>
<path d="M76 173.98V0" stroke="#010101" stroke-miterlimit="10"/>
<path d="M90.4999 167H61.6399V174H90.4999V167Z" fill="#010101"/>
<path d="M47.0001 43.77C55.0856 43.77 61.6401 37.2154 61.6401 29.13C61.6401 21.0445 55.0856 14.49 47.0001 14.49C38.9147 14.49 32.3601 21.0445 32.3601 29.13C32.3601 37.2154 38.9147 43.77 47.0001 43.77Z" fill="white"/>
<path d="M133.87 29.63L132.06 32.92C131.97 33.1459 131.8 33.331 131.582 33.4407C131.365 33.5503 131.115 33.577 130.88 33.5157C130.644 33.4543 130.439 33.3092 130.303 33.1075C130.167 32.9058 130.109 32.6613 130.14 32.42V25.84C130.113 25.5998 130.173 25.3578 130.31 25.1588C130.447 24.9598 130.652 24.8172 130.886 24.7574C131.121 24.6976 131.368 24.7247 131.584 24.8336C131.8 24.9426 131.969 25.126 132.06 25.35L133.87 28.64C133.956 28.7908 134.001 28.9614 134.001 29.135C134.001 29.3086 133.956 29.4792 133.87 29.63Z" fill="white"/>
<path d="M3.5 174H148.5" stroke="#010101" stroke-miterlimit="10"/>
</svg>
