<svg width="160" height="179" viewBox="0 0 160 179" fill="none" xmlns="http://www.w3.org/2000/svg">
<g clip-path="url(#clip0_423_3167)">
<path d="M138.28 37.8H50.28C46.567 37.8 43.006 39.275 40.3805 41.9005C37.755 44.5261 36.28 48.087 36.28 51.8V124.3C36.28 131.991 39.3354 139.368 44.7739 144.806C50.2125 150.245 57.5888 153.3 65.28 153.3H68.9C75.6009 153.3 82.0298 155.951 86.783 160.674C91.5362 165.397 94.2278 171.809 94.27 178.51V178.59C94.27 178.59 94.27 178.64 94.27 178.67V178.51C94.3097 171.808 97.0004 165.395 101.754 160.671C106.508 155.947 112.938 153.297 119.64 153.3H123.26C130.951 153.3 138.328 150.245 143.766 144.806C149.205 139.368 152.26 131.991 152.26 124.3V51.8C152.26 48.0905 150.788 44.5325 148.167 41.9076C145.545 39.2827 141.99 37.8053 138.28 37.8Z" fill="#2478DB"/>
<path d="M21.76 168.3H166.76" stroke="white" stroke-width="0.1" stroke-miterlimit="10"/>
<path d="M21.76 153.8H166.76" stroke="white" stroke-width="0.1" stroke-miterlimit="10"/>
<path d="M21.76 139.3H166.76" stroke="white" stroke-width="0.1" stroke-miterlimit="10"/>
<path d="M21.76 124.8H166.76" stroke="white" stroke-width="0.1" stroke-miterlimit="10"/>
<path d="M21.76 110.3H166.76" stroke="white" stroke-width="0.1" stroke-miterlimit="10"/>
<path d="M21.76 95.8H166.76" stroke="white" stroke-width="0.1" stroke-miterlimit="10"/>
<path d="M21.76 81.3H166.76" stroke="white" stroke-width="0.1" stroke-miterlimit="10"/>
<path d="M21.76 66.8H166.76" stroke="white" stroke-width="0.1" stroke-miterlimit="10"/>
<path d="M21.76 52.3H166.76" stroke="white" stroke-width="0.1" stroke-miterlimit="10"/>
<path d="M21.76 37.8H166.76" stroke="white" stroke-width="0.1" stroke-miterlimit="10"/>
<path d="M21.76 23.3H166.76" stroke="white" stroke-width="0.1" stroke-miterlimit="10"/>
<path d="M152.26 23.3V197.3" stroke="white" stroke-width="0.1" stroke-miterlimit="10"/>
<path d="M137.76 23.3V197.3" stroke="white" stroke-width="0.1" stroke-miterlimit="10"/>
<path d="M123.26 23.3V197.3" stroke="white" stroke-width="0.1" stroke-miterlimit="10"/>
<path d="M108.76 23.3V197.3" stroke="white" stroke-width="0.1" stroke-miterlimit="10"/>
<path d="M94.26 23.3V197.3" stroke="white" stroke-width="0.1" stroke-miterlimit="10"/>
<path d="M79.76 23.3V197.3" stroke="white" stroke-width="0.1" stroke-miterlimit="10"/>
<path d="M65.26 23.3V197.3" stroke="white" stroke-width="0.1" stroke-miterlimit="10"/>
<path d="M50.76 23.3V197.3" stroke="white" stroke-width="0.1" stroke-miterlimit="10"/>
<path d="M36.26 23.3V197.3" stroke="white" stroke-width="0.1" stroke-miterlimit="10"/>
<path d="M21.76 23.3V197.3" stroke="white" stroke-width="0.1" stroke-miterlimit="10"/>
<path d="M94.25 66.7301V81.3001L79.75 95.7301H72.34C72.2182 90.0543 69.8779 84.6519 65.8207 80.6809C61.7635 76.7098 56.3122 74.486 50.635 74.486C44.9578 74.486 39.5065 76.7098 35.4493 80.6809C31.3921 84.6519 29.0518 90.0543 28.93 95.7301H21.56L7.25 81.3001V66.7301C7.24952 64.2112 7.90798 61.7359 9.16 59.5501C7.90088 57.345 7.2429 54.8479 7.25191 52.3087C7.26092 49.7694 7.93659 47.2771 9.21133 45.081C10.4861 42.8848 12.3152 41.062 14.5156 39.7948C16.7161 38.5276 19.2107 37.8604 21.75 37.8601C21.7498 34.0395 23.2586 30.3735 25.948 27.6598C28.6373 24.9461 32.2896 23.4044 36.11 23.3701V23.3701C36.11 19.5245 37.6377 15.8363 40.3569 13.1171C43.0762 10.3978 46.7644 8.87012 50.61 8.87012C54.4556 8.87012 58.1438 10.3978 60.8631 13.1171C63.5823 15.8363 65.11 19.5245 65.11 23.3701C68.9556 23.3701 72.6438 24.8978 75.3631 27.6171C78.0823 30.3364 79.61 34.0245 79.61 37.8701V37.8701H79.87C82.4204 37.8665 84.9265 38.5365 87.1348 39.8124C89.343 41.0884 91.1752 42.9249 92.4457 45.1362C93.7163 47.3476 94.3803 49.8553 94.3705 52.4057C94.3607 54.956 93.6775 57.4586 92.39 59.6601C93.6037 61.8192 94.244 64.2533 94.25 66.7301V66.7301Z" stroke="white" stroke-width="7" stroke-linecap="round" stroke-linejoin="round"/>
<path d="M94.25 66.7301V81.3001L79.75 95.7301H72.34C72.2182 90.0543 69.8779 84.6519 65.8207 80.6809C61.7635 76.7098 56.3122 74.486 50.635 74.486C44.9578 74.486 39.5065 76.7098 35.4493 80.6809C31.3921 84.6519 29.0518 90.0543 28.93 95.7301H21.56L7.25 81.3001V66.7301C7.24952 64.2112 7.90798 61.7359 9.16 59.5501C7.90088 57.345 7.2429 54.8479 7.25191 52.3087C7.26092 49.7694 7.93659 47.2771 9.21133 45.081C10.4861 42.8848 12.3152 41.062 14.5156 39.7948C16.7161 38.5276 19.2107 37.8604 21.75 37.8601C21.7498 34.0395 23.2586 30.3735 25.948 27.6598C28.6373 24.9461 32.2896 23.4044 36.11 23.3701C36.11 19.5245 37.6377 15.8363 40.3569 13.1171C43.0762 10.3978 46.7644 8.87012 50.61 8.87012C54.4556 8.87012 58.1438 10.3978 60.8631 13.1171C63.5823 15.8363 65.11 19.5245 65.11 23.3701C68.9556 23.3701 72.6438 24.8978 75.3631 27.6171C78.0823 30.3363 79.61 34.0245 79.61 37.8701H79.87C82.4204 37.8665 84.9265 38.5365 87.1348 39.8124C89.343 41.0884 91.1751 42.9249 92.4457 45.1362C93.7163 47.3476 94.3803 49.8553 94.3705 52.4057C94.3607 54.956 93.6775 57.4586 92.39 59.6601C93.6037 61.8192 94.244 64.2533 94.25 66.7301Z" fill="#2478DB"/>
<path d="M79.75 153.8V150.17C79.7506 151.385 79.8375 152.598 80.01 153.8H79.75Z" fill="#2478DB"/>
<path d="M43.8001 46.1401L36.1201 23.3701" stroke="white" stroke-width="0.1" stroke-miterlimit="10"/>
<path d="M65.1201 23.3601L57.5601 46.1701" stroke="white" stroke-width="0.1" stroke-miterlimit="10"/>
<path d="M35.32 51.3601L21.76 37.8601" stroke="white" stroke-width="0.1" stroke-miterlimit="10"/>
<path d="M29.2499 63.0201L9.16992 59.55" stroke="white" stroke-width="0.1" stroke-miterlimit="10"/>
<path d="M92.4 59.6499L72.03 63.1099" stroke="white" stroke-width="0.1" stroke-miterlimit="10"/>
<path d="M79.8801 37.8601L66.1001 51.5201" stroke="white" stroke-width="0.1" stroke-miterlimit="10"/>
<path d="M28.9299 95.7299V66.7299C28.9239 61.2849 30.965 56.0366 34.6483 52.0265C38.3316 48.0164 43.3879 45.5375 48.8137 45.0818C54.2396 44.6261 59.6385 46.2268 63.9391 49.5664C68.2397 52.9059 71.1277 57.7402 72.0299 63.1099C72.2403 64.305 72.3441 65.5164 72.3399 66.7299V95.7299" stroke="white" stroke-width="0.1" stroke-miterlimit="10"/>
</g>
<defs>
<clipPath id="clip0_423_3167">
<rect width="160" height="179" fill="white"/>
</clipPath>
</defs>
</svg>
