<svg id="Слой_1" data-name="Слой 1" xmlns="http://www.w3.org/2000/svg" xmlns:xlink="http://www.w3.org/1999/xlink" viewBox="0 0 300 400"><defs><style>.cls-1{fill:#2478db;}.cls-2{clip-path:url(#clip-path);}.cls-3,.cls-4{fill:none;stroke:#fff;}.cls-3{stroke-miterlimit:10;stroke-width:0.1px;}.cls-4{stroke-linecap:round;stroke-linejoin:round;stroke-width:7px;}</style><clipPath id="clip-path"><path class="cls-1" d="M210.28,145.8h-88a14,14,0,0,0-14,14v72.5a29,29,0,0,0,29,29h3.62a25.37,25.37,0,0,1,25.37,25.21v.08s0,.05,0,.08v-.16a25.36,25.36,0,0,1,25.37-25.21h3.62a29,29,0,0,0,29-29v-72.5A14,14,0,0,0,210.28,145.8Z"/></clipPath></defs><path class="cls-1" d="M210.28,145.8h-88a14,14,0,0,0-14,14v72.5a29,29,0,0,0,29,29h3.62a25.37,25.37,0,0,1,25.37,25.21v.08s0,.05,0,.08v-.16a25.36,25.36,0,0,1,25.37-25.21h3.62a29,29,0,0,0,29-29v-72.5A14,14,0,0,0,210.28,145.8Z"/><g class="cls-2"><line class="cls-3" x1="93.76" y1="305.3" x2="238.76" y2="305.3"/><line class="cls-3" x1="93.76" y1="290.8" x2="238.76" y2="290.8"/><line class="cls-3" x1="93.76" y1="276.3" x2="238.76" y2="276.3"/><line class="cls-3" x1="93.76" y1="261.8" x2="238.76" y2="261.8"/><line class="cls-3" x1="93.76" y1="247.3" x2="238.76" y2="247.3"/><line class="cls-3" x1="93.76" y1="232.8" x2="238.76" y2="232.8"/><line class="cls-3" x1="93.76" y1="218.3" x2="238.76" y2="218.3"/><line class="cls-3" x1="93.76" y1="203.8" x2="238.76" y2="203.8"/><line class="cls-3" x1="93.76" y1="189.3" x2="238.76" y2="189.3"/><line class="cls-3" x1="93.76" y1="174.8" x2="238.76" y2="174.8"/><line class="cls-3" x1="93.76" y1="160.3" x2="238.76" y2="160.3"/><line class="cls-3" x1="93.76" y1="145.8" x2="238.76" y2="145.8"/><line class="cls-3" x1="93.76" y1="131.3" x2="238.76" y2="131.3"/><line class="cls-3" x1="238.76" y1="131.3" x2="238.76" y2="305.3"/><line class="cls-3" x1="224.26" y1="131.3" x2="224.26" y2="305.3"/><line class="cls-3" x1="209.76" y1="131.3" x2="209.76" y2="305.3"/><line class="cls-3" x1="195.26" y1="131.3" x2="195.26" y2="305.3"/><line class="cls-3" x1="180.76" y1="131.3" x2="180.76" y2="305.3"/><line class="cls-3" x1="166.26" y1="131.3" x2="166.26" y2="305.3"/><line class="cls-3" x1="151.76" y1="131.3" x2="151.76" y2="305.3"/><line class="cls-3" x1="137.26" y1="131.3" x2="137.26" y2="305.3"/><line class="cls-3" x1="122.76" y1="131.3" x2="122.76" y2="305.3"/><line class="cls-3" x1="108.26" y1="131.3" x2="108.26" y2="305.3"/><line class="cls-3" x1="93.76" y1="131.3" x2="93.76" y2="305.3"/></g><path class="cls-4" d="M166.25,174.73h0V189.3l-14.5,14.43h-7.41a21.71,21.71,0,0,0-43.41,0H93.56L79.25,189.3V174.73h0a14.44,14.44,0,0,1,1.91-7.18,14.5,14.5,0,0,1,12.59-21.69,14.49,14.49,0,0,1,14.36-14.49h0a14.5,14.5,0,1,1,29,0,14.5,14.5,0,0,1,14.5,14.5v0l.26,0a14.48,14.48,0,0,1,12.52,21.79A14.5,14.5,0,0,1,166.25,174.73Z"/><path class="cls-1" d="M166.25,174.73h0V189.3l-14.5,14.43h-7.41a21.71,21.71,0,0,0-43.41,0H93.56L79.25,189.3V174.73h0a14.44,14.44,0,0,1,1.91-7.18,14.5,14.5,0,0,1,12.59-21.69,14.49,14.49,0,0,1,14.36-14.49h0a14.5,14.5,0,1,1,29,0,14.5,14.5,0,0,1,14.5,14.5v0l.26,0a14.48,14.48,0,0,1,12.52,21.79A14.5,14.5,0,0,1,166.25,174.73Z"/><path class="cls-1" d="M151.75,261.8v-3.63a25.64,25.64,0,0,0,.26,3.63Z"/><line class="cls-3" x1="115.8" y1="154.14" x2="108.12" y2="131.37"/><line class="cls-3" x1="137.12" y1="131.36" x2="129.56" y2="154.17"/><line class="cls-3" x1="107.32" y1="159.36" x2="93.76" y2="145.86"/><line class="cls-3" x1="101.25" y1="171.02" x2="81.17" y2="167.55"/><line class="cls-3" x1="164.4" y1="167.65" x2="144.03" y2="171.11"/><line class="cls-3" x1="151.88" y1="145.86" x2="138.1" y2="159.52"/><path class="cls-3" d="M100.93,203.73v-29a21.7,21.7,0,0,1,43.1-3.62,20.48,20.48,0,0,1,.31,3.62v29"/></svg>