<svg id="Слой_1" data-name="Слой 1" xmlns="http://www.w3.org/2000/svg" xmlns:xlink="http://www.w3.org/1999/xlink" viewBox="0 0 300 400"><defs><style>.cls-1,.cls-2,.cls-3,.cls-4,.cls-5{fill:none;}.cls-2,.cls-3,.cls-4,.cls-5{stroke:#010101;stroke-miterlimit:10;}.cls-2{stroke-width:0.48px;}.cls-3{stroke-width:0.48px;}.cls-4{stroke-width:0.47px;}.cls-5{stroke-width:0.12px;}.cls-6{clip-path:url(#clip-path);}.cls-7{fill:#2478db;}</style><clipPath id="clip-path"><rect class="cls-1" x="77.56" y="128.16" width="144.91" height="144.91"/></clipPath></defs><rect class="cls-2" x="106.64" y="171" width="14.6" height="14.56"/><rect class="cls-3" x="179.35" y="156.5" width="14.54" height="14.67"/><rect class="cls-4" x="164.81" y="228.92" width="14.54" height="14.58"/><line class="cls-5" x1="222.44" y1="142" x2="222.44" y2="258"/><line class="cls-5" x1="208.44" y1="142" x2="208.44" y2="258"/><line class="cls-5" x1="193.9" y1="142" x2="193.9" y2="258"/><line class="cls-5" x1="179.35" y1="142" x2="179.35" y2="258"/><line class="cls-5" x1="164.81" y1="142" x2="164.81" y2="258"/><line class="cls-5" x1="150.27" y1="142" x2="150.27" y2="258"/><line class="cls-5" x1="135.73" y1="142" x2="135.73" y2="258"/><line class="cls-5" x1="121.19" y1="142" x2="121.19" y2="258"/><line class="cls-5" x1="106.64" y1="142" x2="106.64" y2="258"/><line class="cls-5" x1="92.1" y1="142" x2="92.1" y2="258"/><line class="cls-5" x1="77.56" y1="142" x2="77.56" y2="258"/><line class="cls-5" x1="77.56" y1="258" x2="222.47" y2="258"/><line class="cls-5" x1="77.56" y1="243.5" x2="222.47" y2="243.5"/><line class="cls-5" x1="77.56" y1="229" x2="222.47" y2="229"/><line class="cls-5" x1="77.56" y1="214.5" x2="222.47" y2="214.5"/><line class="cls-5" x1="77.56" y1="200" x2="222.47" y2="200"/><line class="cls-5" x1="77.56" y1="185.5" x2="222.47" y2="185.5"/><line class="cls-5" x1="77.56" y1="171" x2="222.47" y2="171"/><line class="cls-5" x1="77.56" y1="156.5" x2="222.47" y2="156.5"/><line class="cls-5" x1="77.56" y1="142" x2="222.47" y2="142"/><g class="cls-6"><path class="cls-7" d="M160.7,317.1H143.85l-.39-.41a1.29,1.29,0,0,0-1.36-.83c-2.24.3-4.39-.6-6.61-.39-1.21-.57-2.47-1-3.66-1.6-1.81-.95-3.45-2-4.14-4a3.24,3.24,0,0,0-1.13-1.37,5.91,5.91,0,0,1-2.29-5.37,48.51,48.51,0,0,1,.42-6.82c.71-1.18,1.13-2.54,2.18-3.51,1.8-1.76,2.48-4.16,3.64-6.28,1.22-2.55,1.86-5.34,3.29-7.8a3.94,3.94,0,0,0,1.46-1.29,4.41,4.41,0,0,1,1.57-2.4,3.82,3.82,0,0,0,1.52-2.92c.17-2.73.29-5.46,2-7.77a8.83,8.83,0,0,0,3.51-2.81,9.24,9.24,0,0,0,3.34-5.77,2.43,2.43,0,0,1,1.34-1.74,2.71,2.71,0,0,1,1.69.11c.69.2,1.27.57,1.31,1.33.13,2.56,2,4.12,3.37,6a4.21,4.21,0,0,1-.37,2.87,5,5,0,0,0-.51,2.63c-.55,1.24-.72,2.62-1.33,3.84a3.07,3.07,0,0,0-.37,1.05,7.73,7.73,0,0,1-.51,1.31,3.54,3.54,0,0,0-.87,2.05,41.52,41.52,0,0,1-1.44,10,3.4,3.4,0,0,0,.17,2.12c.4,1.17,1.07,2.32.8,3.64,0,.3,0,.61,0,.9-1.78,3-3.28,6.24-7.13,7.25a7.29,7.29,0,0,0-2.65,1.45c2.55-.32,4.89.8,7.39.87a6.84,6.84,0,0,1,4.63,2.5c1.16,2.6,3.69,3.91,5.55,5.86a9.59,9.59,0,0,1,2.77,6.85A5.58,5.58,0,0,1,160.7,317.1Z"/><path class="cls-7" d="M147.46,49.1c.26.74,1,.91,1.56,1.22,2.17,2,2.22,4.77,2.44,7.33.15,1.74-.08,3.57,0,5.37-1,1.48-1.49,1.43-3.43-.38-.4-.5.09-1.06-.09-1.58-.93-3.94-.69-8-.84-12Z"/><path class="cls-7" d="M155.07,181.52c.3,1,1.15,1.46,1.81,2.08a10.34,10.34,0,0,1,2.94,4.89,10.54,10.54,0,0,0,3,4.69c3.36,3.23,3.91,7.58,5.16,11.66.3,1-.77,1.66-.85,2.6-.26.53.31,1,.17,1.48-.55,4.16-2.27,8-3.47,12-.2.26-.41.61-.71.66-1.86.34-2.88,1.68-3.82,3.12A21.25,21.25,0,0,0,155,230c-.81,1.06-.22,2.41-.74,3.53a5.48,5.48,0,0,0-.76,2.15,25.71,25.71,0,0,1-1.4,2.52,11,11,0,0,1-.49,3.16c0,1.82.87,3.41,1.38,5.09a25.34,25.34,0,0,1,1.11,3.39c.71,1.29.34,2.67.38,4,.24,1.52.6,3,.05,4.56-1.34.85-2.05.6-2.56-.86-.2-.57,0-1.19-.24-1.73s-.39-1.51-1.46-1.11h-1.64a2,2,0,0,1-1.75,0,8.54,8.54,0,0,1-1.7-2.42c-.21-.36-.59-.52-.87-.78-1.52-1.37-1.59-2.16-.46-3.94a4,4,0,0,0,.47-1.09c1-3.31-.89-5.42-3-7.44-1.48-1.79-1.63-2.71-.5-4.65a21.93,21.93,0,0,0,1.81-4.76c.65-2.11,2-3.95,3.17-5.89,1.6-2.75,4-4.74,6.31-6.82a8.3,8.3,0,0,0,1.75-1.8A14.27,14.27,0,0,0,156.3,212a14.12,14.12,0,0,0,2.62-3,2.1,2.1,0,0,0,0-2.89,12.61,12.61,0,0,1-1.59-2.19c-.39-.51-1-.82-1.21-1.48a18.57,18.57,0,0,0-2.8-5.06c-.92-3.44-3.45-5.62-6.08-7.72a3.35,3.35,0,0,0-2-.78c-.77-.16-1-1.16-1.84-1.19a5.69,5.69,0,0,1-.72-.4,2.09,2.09,0,0,1-.64-.5,7,7,0,0,0-1.5-2.23c-.54-1-1.21-1.86-1.72-2.84-.55-1.48-1.59-2.73-1.93-4.3-.2-1-.21-2.06-.39-3.09a5,5,0,0,1,.26-2.2,13.59,13.59,0,0,0,.57-3.85c.67-1.5,1.94-1.81,3.41-1.72a1.17,1.17,0,0,1,1.17.62c1.09,2.37,3.35,3.34,5.45,4.46a16.35,16.35,0,0,1,7.42,8.27C155,180.39,154.71,181,155.07,181.52Z"/><path class="cls-7" d="M141.88,262.68l-.11-1.22c-.46-2-1-4.1.56-5.95,1-.18,2.07-.86,3.12,0,.53.1,1.15.07,1.23.82,0,2.16-1.79,3.23-2.85,4.75Z"/><path class="cls-7" d="M155.43,77.23c.35,2.77.36,5.56.46,8.35.13,3.36-.8,6.13-3.46,8.28a8.41,8.41,0,0,0-1,1.19,2,2,0,0,1-1.26,1.36c-.92.16-1.35-.53-1.86-1.07-.38-2.17,1.45-3,2.58-4.25.77-1.14,2.15-1.94,2-3.6a7.61,7.61,0,0,1,.25-2.55c.73-1.86-.82-3.33-1-5.06a8.44,8.44,0,0,0-.53-1.93,10.76,10.76,0,0,0-.93-2.5,7.66,7.66,0,0,1-.54-1.07,9.17,9.17,0,0,0-1.12-4.12c-.58-2.09-1.42-4.17-.31-6.34,1,0,1.51.87,2.32,1.19a.77.77,0,0,1,.34.8,11.88,11.88,0,0,0,2.49,8C156.07,74.24,155.2,76,155.43,77.23Z"/><path class="cls-7" d="M140.26,166.34l-2.34.61a.28.28,0,0,0-.19-.25c-1.42-.85-1.62-2.25-1.67-3.72-.24-4.49.87-8.73,2.31-12.92a5.59,5.59,0,0,1,.83-1.31c.79-1.58,2.15-2.78,2.92-4.37,1-1.73,2.4-3.21,3.22-5,1.95-3.71,1.82-7.56.73-11.46-.69-1.86-1.69-3.58-2.46-5.4a1.11,1.11,0,0,1,0-1.19,6.43,6.43,0,0,1,3.48-1.39,3.19,3.19,0,0,1,1.74,2.09c.54,1-.37,1.84-.26,2.78,1.61,4.86,2.21,9.71,0,14.57a31.74,31.74,0,0,1-4.5,7,11.19,11.19,0,0,0-2.56,9.27,3.59,3.59,0,0,1-.12,2C140.14,160.4,140.18,163.36,140.26,166.34Z"/><path class="cls-7" d="M146.21,115.1c0,.53.06,1.07.16,1.58.65,3.48.62,3.54-2.89,4.37l-.44-.73a1.62,1.62,0,0,1-1.19-.65c-1.87-2.53-4-4.86-5.75-7.49a1.23,1.23,0,0,1-.12-.58,16.71,16.71,0,0,1-.73-5.92,3.62,3.62,0,0,1,1-2.54c2-1.86,3.56-4.09,5.44-6A3.41,3.41,0,0,1,145,95.86l2.81-.57c1,.57,1.14,1.29.34,2.15-.48,1.23-1.86,1-2.7,1.58a18.59,18.59,0,0,0-1.85,1.3c-.76.4-.87,1.29-1.41,1.86a1.89,1.89,0,0,0-.79.95c-.1.24-.2.47-.32.7a8.74,8.74,0,0,0-1.42,3.35c-.29,3.13-.09,3.45,3,4.77.94.53,2,.69,3,1.17A2.77,2.77,0,0,1,146.21,115.1Z"/></g></svg>