<svg width="25" height="24" viewBox="0 0 25 24" fill="none" xmlns="http://www.w3.org/2000/svg">
<path d="M12.5 2C8.1 2 4.5 5.6 4.5 10C4.5 15.4 11.5 21.5 11.8 21.8C12 21.9 12.3 22 12.5 22C12.7 22 13 21.9 13.2 21.8C13.5 21.5 20.5 15.4 20.5 10C20.5 5.6 16.9 2 12.5 2ZM12.5 19.7C10.4 17.7 6.5 13.4 6.5 10C6.5 6.7 9.2 4 12.5 4C15.8 4 18.5 6.7 18.5 10C18.5 13.3 14.6 17.7 12.5 19.7ZM12.5 6C10.3 6 8.5 7.8 8.5 10C8.5 12.2 10.3 14 12.5 14C14.7 14 16.5 12.2 16.5 10C16.5 7.8 14.7 6 12.5 6ZM12.5 12C11.4 12 10.5 11.1 10.5 10C10.5 8.9 11.4 8 12.5 8C13.6 8 14.5 8.9 14.5 10C14.5 11.1 13.6 12 12.5 12Z" fill="#F3F4F6"/>
</svg>
