<svg width="24" height="24" viewBox="0 0 24 24" fill="none" xmlns="http://www.w3.org/2000/svg">
<g clip-path="url(#clip0_832_1314)">
<path d="M-0.5 11.52C-0.5 6.0894 -0.5 3.37413 1.18707 1.68707C2.87413 0 5.5894 0 11.02 0H11.98C17.4106 0 20.1259 0 21.813 1.68707C23.5 3.37413 23.5 6.0894 23.5 11.52V12.48C23.5 17.9106 23.5 20.6259 21.813 22.313C20.1259 24 17.4106 24 11.98 24H11.02C5.5894 24 2.87413 24 1.18707 22.313C-0.5 20.6259 -0.5 17.9106 -0.5 12.48V11.52Z" fill="white"/>
<path d="M12.2707 17.2898C6.80073 17.2898 3.68078 13.5398 3.55078 7.2998H6.29078C6.38078 11.8798 8.40073 13.8198 10.0007 14.2198V7.2998H12.5808V11.2498C14.1608 11.0798 15.8206 9.2798 16.3806 7.2998H18.9607C18.5307 9.7398 16.7307 11.5398 15.4507 12.2798C16.7307 12.8798 18.7808 14.4498 19.5608 17.2898H16.7207C16.1107 15.3898 14.5908 13.9198 12.5808 13.7198V17.2898H12.2707Z" fill="#1F212B"/>
</g>
<defs>
<clipPath id="clip0_832_1314">
<rect width="24" height="24" fill="white" transform="translate(-0.5)"/>
</clipPath>
</defs>
</svg>
