<svg width="140" height="101" viewBox="0 0 140 101" fill="none" xmlns="http://www.w3.org/2000/svg">
<path fill-rule="evenodd" clip-rule="evenodd" d="M0 91.1877H5.68263V92.9422H1.77582V99.3964H0V91.1877Z" fill="#F3F4F6"/>
<path fill-rule="evenodd" clip-rule="evenodd" d="M8.7396 91.6404C9.38725 91.2665 10.0999 91.0803 10.8703 91.0803C11.6405 91.0803 12.3532 91.2665 13.0008 91.6404C13.6474 92.0072 14.1584 92.5163 14.5286 93.1642C14.9001 93.8069 15.0842 94.5188 15.0842 95.2916C15.0842 96.0657 14.9 96.7808 14.5291 97.4302L14.5281 97.432C14.1577 98.0723 13.6472 98.5804 13.0021 98.9531L12.9995 98.9546C12.3518 99.3217 11.6396 99.5038 10.8703 99.5038C10.1008 99.5038 9.38863 99.3217 8.7409 98.9546L8.7383 98.9531C8.09336 98.5804 7.5827 98.0723 7.21241 97.432L7.21143 97.4303C6.84047 96.7808 6.65622 96.0657 6.65622 95.2916C6.65622 94.5187 6.84034 93.8069 7.21192 93.1641C7.58206 92.5163 8.09314 92.0072 8.7396 91.6404ZM9.65907 93.1585C9.29905 93.3755 9.01247 93.6707 8.79659 94.0509C8.59004 94.4204 8.48489 94.8317 8.48489 95.2916C8.48489 95.7516 8.58973 96.1668 8.7966 96.5434C9.01194 96.9162 9.29825 97.2081 9.65906 97.4256C10.0242 97.6406 10.4254 97.7493 10.8703 97.7493C11.3156 97.7493 11.7128 97.6403 12.07 97.4261L12.0717 97.4251C12.44 97.2071 12.7252 96.9154 12.9328 96.5444L12.9338 96.5425C13.1476 96.1657 13.2556 95.7509 13.2556 95.2916C13.2556 94.8333 13.1477 94.4231 12.935 94.0539L12.9316 94.0479C12.7236 93.6704 12.4385 93.3761 12.0717 93.159L12.07 93.158C11.7128 92.9438 11.3156 92.8348 10.8703 92.8348C10.4254 92.8348 10.0242 92.9435 9.65907 93.1585Z" fill="#F3F4F6"/>
<path fill-rule="evenodd" clip-rule="evenodd" d="M17.3768 91.1877H20.9679C21.5045 91.1877 21.9873 91.2914 22.4023 91.5174C22.8177 91.7325 23.1414 92.0404 23.3607 92.4401C23.5851 92.8286 23.693 93.2662 23.693 93.7426C23.693 94.2202 23.5846 94.6612 23.3606 95.0555C23.1407 95.4487 22.817 95.7555 22.4036 95.9773L22.401 95.9787C21.9868 96.1966 21.5047 96.2975 20.9679 96.2975H19.1527V99.3964H17.3768V91.1877ZM19.1527 92.9209V94.5745H20.9362C21.3064 94.5745 21.5253 94.4878 21.6533 94.3717C21.7776 94.2528 21.8644 94.063 21.8644 93.7426C21.8644 93.4194 21.7762 93.2359 21.656 93.1262C21.5283 93.0092 21.3085 92.9209 20.9362 92.9209H19.1527Z" fill="#F3F4F6"/>
<path fill-rule="evenodd" clip-rule="evenodd" d="M27.4364 91.6404C28.084 91.2665 28.7966 91.0803 29.567 91.0803C30.3373 91.0803 31.0499 91.2665 31.6975 91.6404C32.3441 92.0072 32.8551 92.5163 33.2253 93.1642C33.5968 93.8069 33.7809 94.5188 33.7809 95.2916C33.7809 96.0657 33.5967 96.7808 33.2258 97.4302L33.2248 97.432C32.8544 98.0723 32.3439 98.5804 31.6988 98.9531L31.6962 98.9546C31.0485 99.3217 30.3364 99.5038 29.567 99.5038C28.7975 99.5038 28.0853 99.3217 27.4377 98.9546L27.4351 98.9531C26.7901 98.5804 26.2795 98.0723 25.9091 97.432L25.9081 97.4303C25.5372 96.7808 25.353 96.0656 25.353 95.2916C25.353 94.5188 25.537 93.8069 25.9086 93.1641C26.2789 92.5163 26.7898 92.0072 27.4364 91.6404ZM28.3558 93.1585C27.9958 93.3755 27.7093 93.6707 27.4933 94.0509C27.2867 94.4204 27.1816 94.8318 27.1816 95.2916C27.1816 95.7516 27.2864 96.1668 27.4933 96.5434C27.7088 96.9162 27.995 97.2081 28.3558 97.4256C28.7209 97.6406 29.1222 97.7493 29.567 97.7493C30.0123 97.7493 30.4095 97.6403 30.7667 97.4261L30.7684 97.4251C31.1367 97.2071 31.4219 96.9154 31.6295 96.5444L31.6306 96.5425C31.8443 96.1657 31.9523 95.7509 31.9523 95.2916C31.9523 94.8333 31.8444 94.4231 31.6317 94.0539L31.6283 94.0479C31.4203 93.6704 31.1352 93.3761 30.7684 93.159L30.7667 93.158C30.4095 92.9438 30.0123 92.8348 29.567 92.8348C29.1222 92.8348 28.7209 92.9435 28.3558 93.1585Z" fill="#F3F4F6"/>
<path fill-rule="evenodd" clip-rule="evenodd" d="M37.9945 91.1877H41.2714L43.2353 97.6419H44.037V101H42.3034V99.3964H36.9624V101H35.2289V97.6419H36.0305L37.9945 91.1877ZM39.2867 92.8987L37.8284 97.7169H41.4076L39.9676 92.8987H39.2867Z" fill="#F3F4F6"/>
<path fill-rule="evenodd" clip-rule="evenodd" d="M47.449 91.6423C48.0839 91.2669 48.7872 91.0803 49.5512 91.0803C50.141 91.0803 50.6975 91.1974 51.2167 91.4316C51.7353 91.6599 52.1825 91.9901 52.5548 92.4209C52.9343 92.8453 53.2124 93.3386 53.3891 93.8984L53.5391 94.3736H51.6442L51.5475 94.1624C51.3549 93.7415 51.087 93.4213 50.745 93.1901L50.7392 93.1862C50.4121 92.9557 50.0213 92.8348 49.5512 92.8348C49.1138 92.8348 48.7246 92.9432 48.3751 93.1564C48.0222 93.3725 47.7422 93.6669 47.5325 94.0469C47.3317 94.4171 47.2291 94.8299 47.2291 95.2916C47.2291 95.7535 47.3314 96.1701 47.5325 96.5474C47.7417 96.92 48.0215 97.2111 48.3752 97.4277C48.7247 97.6409 49.1139 97.7493 49.5512 97.7493C50.0226 97.7493 50.4147 97.6305 50.7424 97.406C51.086 97.168 51.3545 96.8432 51.5474 96.421L51.644 96.2096H53.5391L53.3891 96.6848C53.2123 97.2447 52.9342 97.7425 52.5549 98.1733C52.1825 98.5977 51.736 98.9272 51.2189 99.1618L51.2146 99.1637C50.6955 99.3909 50.1398 99.5038 49.5512 99.5038C48.7881 99.5038 48.0853 99.3214 47.4503 98.9527L47.4477 98.9512C46.8171 98.578 46.3152 98.0701 45.9461 97.432L45.9435 97.4274C45.5805 96.7784 45.4005 96.0642 45.4005 95.2916C45.4005 94.5198 45.5805 93.8087 45.9445 93.1661L45.9451 93.165C46.314 92.5189 46.8166 92.0098 47.449 91.6423Z" fill="#F3F4F6"/>
<path fill-rule="evenodd" clip-rule="evenodd" d="M55.585 91.1877H57.3608V94.4144H58.08L60.7831 91.1877H62.9533L59.5825 95.1994L63.0136 99.3964H60.7602L58.0994 96.1688H57.3608V99.3964H55.585V91.1877Z" fill="#F3F4F6"/>
<path fill-rule="evenodd" clip-rule="evenodd" d="M64.6343 91.1877H66.4101V96.4195L70.0554 91.1877H71.9008V99.3964H70.1249V93.9989L66.3417 99.3964H64.6343V91.1877Z" fill="#F3F4F6"/>
<path fill-rule="evenodd" clip-rule="evenodd" d="M74.6632 91.1877H80.3458V92.9209H76.439V94.4255H80.0291V96.1586H76.439V97.6632H80.3458V99.3964H74.6632V91.1877Z" fill="#F3F4F6"/>
<path fill-rule="evenodd" clip-rule="evenodd" d="M97.4184 91.6404C98.0658 91.2665 98.7786 91.0803 99.5487 91.0803C100.319 91.0803 101.032 91.2665 101.679 91.6404C102.326 92.0072 102.837 92.5163 103.207 93.1643C103.578 93.8069 103.763 94.5187 103.763 95.2916C103.763 96.0658 103.578 96.7808 103.208 97.4301L103.207 97.4318C102.837 98.0723 102.326 98.5805 101.68 98.9532L101.678 98.9545C101.03 99.3217 100.318 99.5038 99.5487 99.5038C98.7795 99.5038 98.0671 99.3217 97.4196 98.9545L97.4172 98.9532C96.7714 98.5804 96.2617 98.0722 95.8909 97.4322L95.8897 97.4301C95.5192 96.7808 95.3346 96.0658 95.3346 95.2916C95.3346 94.5186 95.5191 93.8067 95.8903 93.164C96.2609 92.5165 96.771 92.0073 97.4184 91.6404ZM98.3382 93.1584C97.9779 93.3755 97.6911 93.6708 97.4756 94.0509C97.2686 94.4205 97.1633 94.8318 97.1633 95.2916C97.1633 95.7516 97.2683 96.1668 97.4756 96.5434C97.6906 96.9161 97.9771 97.2081 98.3382 97.4257C98.7025 97.6405 99.1038 97.7493 99.5487 97.7493C99.994 97.7493 100.391 97.6403 100.748 97.4261L100.75 97.425C101.119 97.2072 101.403 96.9156 101.611 96.5442L101.612 96.5426C101.826 96.1657 101.934 95.7508 101.934 95.2916C101.934 94.8334 101.826 94.4231 101.613 94.0537L101.61 94.0481C101.402 93.6703 101.117 93.376 100.75 93.1591L100.748 93.158C100.391 92.9438 99.994 92.8348 99.5487 92.8348C99.1038 92.8348 98.7025 92.9436 98.3382 93.1584Z" fill="#F3F4F6"/>
<path fill-rule="evenodd" clip-rule="evenodd" d="M114.992 91.1877H116.768V94.5745H119.743V91.1877H121.519V99.3964H119.743V96.2975H114.992V91.1877Z" fill="#F3F4F6"/>
<path fill-rule="evenodd" clip-rule="evenodd" d="M124.288 91.1877H126.064V96.4194L129.709 91.1877H131.555V99.3964H129.779V93.9989L125.996 99.3964H124.288V91.1877Z" fill="#F3F4F6"/>
<path fill-rule="evenodd" clip-rule="evenodd" d="M134.317 91.1877H140V92.9209H136.093V94.4255H139.683V96.1586H136.093V97.6632H140V99.3964H134.317V91.1877Z" fill="#F3F4F6"/>
<path d="M93.8275 99.3941H86.7482V97.8154L92.0336 97.8173V96.36H86.7541V94.5385L90.2323 94.537V92.9583L86.7541 92.9584V91.1369H92.0336V94.5385L93.8275 94.537V99.3941Z" fill="#F3F4F6"/>
<path fill-rule="evenodd" clip-rule="evenodd" d="M107.976 91.1877H111.253L113.217 97.6419H114.019V101H112.285V99.3964H106.944V101H105.211V97.6419H106.012L107.976 91.1877ZM109.269 92.8987L107.81 97.7169H111.39L109.949 92.8987H109.269Z" fill="#F3F4F6"/>
<path fill-rule="evenodd" clip-rule="evenodd" d="M140 0H0V82.9643H140V0ZM69.9999 11.8527H104.998H116.668V23.7042V35.5557H128.334V47.4106V59.2622V71.1138H69.9999V59.2622H116.668V47.4106H104.998H81.6661V35.5557H104.998V23.7042H69.9999V11.8527ZM23.3335 11.8527H11.6674V23.7042V71.1138H23.3335V23.7042H58.3352V11.8527H23.3335Z" fill="#F3F4F6"/>
</svg>
