<svg width="290" height="44" viewBox="0 0 290 44" fill="none" xmlns="http://www.w3.org/2000/svg">
<g clip-path="url(#clip0_835_3724)">
<path fill-rule="evenodd" clip-rule="evenodd" d="M75.2475 0H0V44.0941H75.2475V0ZM37.6237 6.29949H56.4346H62.707V12.5984V18.8973H68.977V25.1979V31.4969V37.7958H37.6237V31.4969H62.707V25.1979H56.4346H43.8941V18.8973H56.4346V12.5984H37.6237V6.29949ZM12.5414 6.29949H6.27101V12.5984V37.7958H12.5414V12.5984H31.3541V6.29949H12.5414Z" fill="white"/>
<path fill-rule="evenodd" clip-rule="evenodd" d="M90.5107 15.203H98.6163V17.6776H93.0437V26.781H90.5107V15.203Z" fill="white"/>
<path fill-rule="evenodd" clip-rule="evenodd" d="M102.977 15.8415C103.901 15.3142 104.917 15.0515 106.016 15.0515C107.115 15.0515 108.131 15.3142 109.055 15.8415C109.977 16.3589 110.706 17.0769 111.234 17.9907C111.764 18.8972 112.027 19.9013 112.027 20.9913C112.027 22.0831 111.764 23.0918 111.235 24.0078L111.233 24.0103C110.705 24.9134 109.977 25.6301 109.057 26.1557L109.053 26.1578C108.129 26.6757 107.113 26.9324 106.016 26.9324C104.918 26.9324 103.902 26.6756 102.979 26.1578L102.975 26.1557C102.055 25.6301 101.327 24.9134 100.798 24.0102L100.797 24.0078C100.268 23.0918 100.005 22.0831 100.005 20.9913C100.005 19.9013 100.268 18.8972 100.798 17.9906C101.326 17.0768 102.055 16.3588 102.977 15.8415ZM104.288 17.9827C103.775 18.2888 103.366 18.7051 103.058 19.2413C102.763 19.7626 102.613 20.3427 102.613 20.9913C102.613 21.6402 102.763 22.2258 103.058 22.757C103.365 23.2828 103.774 23.6945 104.288 24.0013C104.809 24.3045 105.381 24.4578 106.016 24.4578C106.651 24.4578 107.218 24.3041 107.727 24.002L107.73 24.0005C108.255 23.6931 108.662 23.2817 108.958 22.7583L108.959 22.7557C109.264 22.2242 109.418 21.6392 109.418 20.9913C109.418 20.3449 109.264 19.7664 108.961 19.2456L108.956 19.2371C108.659 18.7047 108.253 18.2896 107.73 17.9834L107.727 17.9819C107.218 17.6799 106.651 17.5261 106.016 17.5261C105.381 17.5261 104.809 17.6795 104.288 17.9827Z" fill="white"/>
<path fill-rule="evenodd" clip-rule="evenodd" d="M115.297 15.203H120.419C121.184 15.203 121.873 15.3492 122.465 15.668C123.057 15.9714 123.519 16.4056 123.832 16.9694C124.152 17.5174 124.306 18.1346 124.306 18.8066C124.306 19.4802 124.151 20.1022 123.832 20.6583C123.518 21.2129 123.056 21.6457 122.467 21.9585L122.463 21.9605C121.872 22.2678 121.185 22.4102 120.419 22.4102H117.83V26.781H115.297V15.203ZM117.83 17.6476V19.9799H120.374C120.902 19.9799 121.214 19.8576 121.397 19.6938C121.574 19.5262 121.698 19.2585 121.698 18.8066C121.698 18.3506 121.572 18.0919 121.4 17.9372C121.218 17.7721 120.905 17.6476 120.374 17.6476H117.83Z" fill="white"/>
<path fill-rule="evenodd" clip-rule="evenodd" d="M129.645 15.8415C130.569 15.3142 131.586 15.0515 132.684 15.0515C133.783 15.0515 134.8 15.3142 135.723 15.8415C136.646 16.3589 137.375 17.0769 137.903 17.9907C138.432 18.8972 138.695 19.9013 138.695 20.9913C138.695 22.0831 138.432 23.0918 137.903 24.0078L137.902 24.0103C137.374 24.9134 136.645 25.6301 135.725 26.1557L135.722 26.1578C134.798 26.6757 133.782 26.9324 132.684 26.9324C131.587 26.9324 130.571 26.6757 129.647 26.1578L129.644 26.1557C128.723 25.6301 127.995 24.9134 127.467 24.0103L127.466 24.0078C126.936 23.0918 126.674 22.0831 126.674 20.9913C126.674 19.9013 126.936 18.8972 127.466 17.9906C127.994 17.0769 128.723 16.3588 129.645 15.8415ZM130.957 17.9827C130.443 18.2887 130.035 18.7051 129.727 19.2414C129.432 19.7626 129.282 20.3427 129.282 20.9913C129.282 21.6402 129.432 22.2258 129.727 22.7569C130.034 23.2828 130.442 23.6945 130.957 24.0013C131.478 24.3044 132.05 24.4578 132.684 24.4578C133.32 24.4578 133.886 24.3041 134.396 24.002L134.398 24.0005C134.923 23.6931 135.33 23.2817 135.626 22.7583L135.628 22.7557C135.933 22.2242 136.087 21.6392 136.087 20.9913C136.087 20.3449 135.933 19.7664 135.63 19.2456L135.625 19.2371C135.328 18.7047 134.921 18.2896 134.398 17.9834L134.396 17.9819C133.886 17.6799 133.32 17.5261 132.684 17.5261C132.05 17.5261 131.478 17.6795 130.957 17.9827Z" fill="white"/>
<path fill-rule="evenodd" clip-rule="evenodd" d="M144.705 15.203H149.379L152.181 24.3063H153.324V29.0427H150.851V26.781H143.233V29.0427H140.76V24.3063H141.904L144.705 15.203ZM146.548 17.6162L144.468 24.4121H149.574L147.52 17.6162H146.548Z" fill="white"/>
<path fill-rule="evenodd" clip-rule="evenodd" d="M158.191 15.8442C159.097 15.3147 160.1 15.0515 161.189 15.0515C162.031 15.0515 162.825 15.2166 163.565 15.5469C164.305 15.869 164.943 16.3347 165.474 16.9423C166.015 17.541 166.412 18.2367 166.664 19.0263L166.878 19.6965H164.175L164.037 19.3987C163.762 18.805 163.38 18.3534 162.892 18.0272L162.884 18.0217C162.417 17.6967 161.86 17.5261 161.189 17.5261C160.566 17.5261 160.011 17.6791 159.512 17.9797C159.009 18.2846 158.609 18.6997 158.31 19.2357C158.024 19.7579 157.877 20.3401 157.877 20.9913C157.877 21.6428 158.023 22.2305 158.31 22.7626C158.608 23.2882 159.008 23.6988 159.512 24.0043C160.011 24.3049 160.566 24.4578 161.189 24.4578C161.862 24.4578 162.421 24.2902 162.889 23.9736C163.379 23.6379 163.762 23.1798 164.037 22.5843L164.175 22.2861H166.878L166.664 22.9564C166.412 23.7462 166.015 24.4483 165.474 25.0559C164.943 25.6545 164.306 26.1193 163.568 26.45L163.562 26.4528C162.822 26.7732 162.029 26.9324 161.189 26.9324C160.101 26.9324 159.099 26.6752 158.193 26.1552L158.189 26.1531C157.29 25.6267 156.574 24.9103 156.047 24.0102L156.044 24.0038C155.526 23.0884 155.269 22.0811 155.269 20.9913C155.269 19.9028 155.526 18.8997 156.045 17.9934L156.046 17.9918C156.572 17.0806 157.289 16.3625 158.191 15.8442Z" fill="white"/>
<path fill-rule="evenodd" clip-rule="evenodd" d="M169.796 15.203H172.329V19.754H173.355L177.21 15.203H180.306L175.498 20.8613L180.392 26.781H177.178L173.383 22.2286H172.329V26.781H169.796V15.203Z" fill="white"/>
<path fill-rule="evenodd" clip-rule="evenodd" d="M182.704 15.203H185.237V22.5822L190.436 15.203H193.068V26.781H190.535V19.168L185.139 26.781H182.704V15.203Z" fill="white"/>
<path fill-rule="evenodd" clip-rule="evenodd" d="M197.009 15.203H205.114V17.6476H199.542V19.7697H204.663V22.2143H199.542V24.3364H205.114V26.781H197.009V15.203Z" fill="white"/>
<path fill-rule="evenodd" clip-rule="evenodd" d="M229.466 15.8415C230.39 15.3141 231.406 15.0515 232.505 15.0515C233.603 15.0515 234.62 15.3141 235.543 15.8415C236.466 16.3588 237.196 17.0769 237.723 17.9908C238.253 18.8972 238.516 19.9011 238.516 20.9913C238.516 22.0833 238.252 23.0918 237.724 24.0076L237.723 24.0101C237.195 24.9134 236.466 25.6302 235.545 26.1558L235.542 26.1578C234.618 26.6757 233.602 26.9324 232.505 26.9324C231.408 26.9324 230.391 26.6757 229.468 26.1578L229.465 26.1558C228.543 25.63 227.816 24.9132 227.287 24.0106L227.286 24.0076C226.757 23.0918 226.494 22.0833 226.494 20.9913C226.494 19.901 226.757 18.8969 227.287 17.9905C227.815 17.0772 228.543 16.359 229.466 15.8415ZM230.778 17.9826C230.264 18.2888 229.855 18.7053 229.548 19.2414C229.253 19.7627 229.102 20.3428 229.102 20.9913C229.102 21.6402 229.252 22.2258 229.548 22.7569C229.854 23.2826 230.263 23.6945 230.778 24.0014C231.298 24.3044 231.87 24.4578 232.505 24.4578C233.14 24.4578 233.707 24.3041 234.216 24.002L234.219 24.0004C234.744 23.6932 235.15 23.2819 235.447 22.758L235.448 22.7559C235.753 22.2242 235.907 21.639 235.907 20.9913C235.907 20.3451 235.753 19.7664 235.45 19.2453L235.445 19.2374C235.148 18.7045 234.742 18.2895 234.219 17.9835L234.216 17.9819C233.707 17.6799 233.14 17.5261 232.505 17.5261C231.87 17.5261 231.298 17.6796 230.778 17.9826Z" fill="white"/>
<path fill-rule="evenodd" clip-rule="evenodd" d="M254.533 15.203H257.066V19.9799H261.31V15.203H263.843V26.781H261.31V22.4102H254.533V15.203Z" fill="white"/>
<path fill-rule="evenodd" clip-rule="evenodd" d="M267.793 15.203H270.325V22.5821L275.525 15.203H278.157V26.781H275.625V19.1681L270.229 26.781H267.793V15.203Z" fill="white"/>
<path fill-rule="evenodd" clip-rule="evenodd" d="M282.098 15.203H290.204V17.6476H284.631V19.7697H289.751V22.2143H284.631V24.3364H290.204V26.781H282.098V15.203Z" fill="white"/>
<path d="M224.344 26.7777H214.247V24.551L221.785 24.5538V22.4983H214.255V19.9291L219.216 19.927V17.7003L214.255 17.7005V15.1312H221.785V19.9291L224.344 19.927V26.7777Z" fill="white"/>
<path fill-rule="evenodd" clip-rule="evenodd" d="M244.526 15.203H249.2L252.001 24.3063H253.144V29.0427H250.672V26.781H243.054V29.0427H240.581V24.3063H241.724L244.526 15.203ZM246.369 17.6162L244.289 24.4121H249.395L247.34 17.6162H246.369Z" fill="white"/>
</g>
<defs>
<clipPath id="clip0_835_3724">
<rect width="290" height="44" fill="white"/>
</clipPath>
</defs>
</svg>
