<svg width="219" height="191" viewBox="0 0 219 191" fill="none" xmlns="http://www.w3.org/2000/svg">
<path d="M108.831 167.882C148.313 155.168 188.463 132.416 195.824 58.1367" stroke="#FEB726" stroke-width="4.06495"/>
<path d="M110.169 167.882C70.6874 155.168 30.5366 132.416 23.1757 58.1367" stroke="#FEB726" stroke-width="4.06495"/>
<path d="M180.333 21.25H166.167V14.1667C166.163 10.4106 164.669 6.80942 162.013 4.15346C159.357 1.49751 155.756 0.00375046 152 0H67C63.2439 0.00375046 59.6427 1.49751 56.9868 4.15346C54.3308 6.80942 52.8371 10.4106 52.8333 14.1667V21.25H38.6667C34.9106 21.2538 31.3094 22.7475 28.6535 25.4035C25.9975 28.0594 24.5038 31.6606 24.5 35.4167V56.6667C24.5094 64.1783 27.4975 71.3795 32.809 76.691C38.1205 82.0025 45.3217 84.9906 52.8333 85H55.1142C58.0658 95.8425 64.1107 105.591 72.5107 113.055C80.9107 120.519 91.3023 125.376 102.417 127.033V155.833H67V170H152V155.833H116.583V127.011C127.842 125.619 138.42 120.866 146.936 113.372C155.453 105.878 161.513 95.9903 164.325 85H166.167C173.678 84.9906 180.88 82.0025 186.191 76.691C191.503 71.3795 194.491 64.1783 194.5 56.6667V35.4167C194.496 31.6606 193.003 28.0594 190.347 25.4035C187.691 22.7475 184.089 21.2538 180.333 21.25ZM52.8333 70.8333C49.0773 70.8296 45.4761 69.3358 42.8201 66.6799C40.1642 64.0239 38.6704 60.4227 38.6667 56.6667V35.4167H52.8333V70.8333ZM152 70.8333C152 76.5253 150.856 82.1593 148.637 87.401C146.418 92.6426 143.169 97.3851 139.082 101.347C134.995 105.309 130.154 108.41 124.846 110.465C119.539 112.52 113.872 113.489 108.183 113.312C96.9044 112.61 86.3308 107.588 78.6607 99.2898C70.9905 90.9917 66.8141 80.0564 67 68.7579V14.1667H152V70.8333ZM180.333 56.6667C180.33 60.4227 178.836 64.0239 176.18 66.6799C173.524 69.3358 169.923 70.8296 166.167 70.8333V35.4167H180.333V56.6667Z" fill="#CB4538"/>
<path d="M31.5935 22.0042C36.6426 30.7818 42.037 50.7445 23.2215 60.374C11.9398 49.5491 18.986 29.6135 31.5935 22.0042Z" fill="#FEB726"/>
<path d="M55.9658 58.1407C55.5482 68.2583 49.4502 88.0174 28.3997 86.1129C24.6407 70.9364 41.243 57.8428 55.9658 58.1407Z" fill="#FEB726"/>
<path d="M60.9522 82.2314C62.6028 92.2222 60.6546 112.809 39.6572 115.229C32.8876 101.136 46.477 84.9367 60.9522 82.2314Z" fill="#FEB726"/>
<path d="M71.3546 102.306C75.0692 111.727 77.4938 132.263 57.4749 139.044C47.893 126.69 57.772 107.995 71.3546 102.306Z" fill="#FEB726"/>
<path d="M83.8854 117.027C90.8911 124.339 100.913 142.427 84.9534 156.285C71.4061 148.479 73.4691 127.436 83.8854 117.027Z" fill="#FEB726"/>
<path d="M0.422852 58.1407C0.840519 68.2583 6.93847 88.0174 27.9889 86.1129C31.7479 70.9364 15.1456 57.8428 0.422852 58.1407Z" fill="#FEB726"/>
<path d="M5.99906 94.6435C8.46749 104.464 18.4599 122.568 38.6819 116.419C39.2729 100.795 20.353 91.355 5.99906 94.6435Z" fill="#FEB726"/>
<path d="M19.5587 125.731C24.0371 134.813 37.6132 150.411 56.0899 140.146C53.3821 124.748 32.9 119.498 19.5587 125.731Z" fill="#FEB726"/>
<path d="M43.0798 159.487C50.6642 166.196 69.1364 175.491 82.3492 158.993C74.0112 145.767 53.0665 148.665 43.0798 159.487Z" fill="#FEB726"/>
<path d="M187.407 22.0042C182.357 30.7818 176.963 50.7445 195.778 60.374C207.06 49.5491 200.014 29.6135 187.407 22.0042Z" fill="#FEB726"/>
<path d="M163.034 58.1407C163.452 68.2583 169.55 88.0174 190.6 86.1129C194.359 70.9364 177.757 57.8428 163.034 58.1407Z" fill="#FEB726"/>
<path d="M158.048 82.2314C156.397 92.2222 158.345 112.809 179.343 115.229C186.112 101.136 172.523 84.9367 158.048 82.2314Z" fill="#FEB726"/>
<path d="M147.645 102.306C143.931 111.727 141.506 132.263 161.525 139.044C171.107 126.69 161.228 107.995 147.645 102.306Z" fill="#FEB726"/>
<path d="M135.115 117.027C128.109 124.339 118.087 142.427 134.047 156.285C147.594 148.479 145.531 127.436 135.115 117.027Z" fill="#FEB726"/>
<path d="M218.577 58.1407C218.159 68.2583 212.062 88.0174 191.011 86.1129C187.252 70.9364 203.854 57.8428 218.577 58.1407Z" fill="#FEB726"/>
<path d="M213.001 94.6435C210.533 104.464 200.54 122.568 180.318 116.419C179.727 100.795 198.647 91.355 213.001 94.6435Z" fill="#FEB726"/>
<path d="M199.441 125.731C194.963 134.813 181.387 150.411 162.91 140.146C165.618 124.748 186.1 119.498 199.441 125.731Z" fill="#FEB726"/>
<path d="M175.92 159.487C168.336 166.196 149.864 175.491 136.651 158.993C144.989 145.767 165.934 148.665 175.92 159.487Z" fill="#FEB726"/>
</svg>
