<svg width="56" height="56" viewBox="0 0 56 56" fill="none" xmlns="http://www.w3.org/2000/svg">
<path d="M27.3163 12.3499C28.2275 13.2611 28.2275 14.7385 27.3163 15.6498L17.2995 25.6665H44.333C45.6217 25.6665 46.6663 26.7112 46.6663 27.9998C46.6663 29.2885 45.6217 30.3332 44.333 30.3332H17.2995L27.3163 40.3499C28.2275 41.2611 28.2275 42.7385 27.3163 43.6498C26.405 44.561 24.9276 44.561 24.0164 43.6498L10.0164 29.6498C9.57884 29.2122 9.33301 28.6187 9.33301 27.9998C9.33301 27.381 9.57884 26.7875 10.0164 26.3499L24.0164 12.3499C24.9276 11.4387 26.405 11.4387 27.3163 12.3499Z" fill="#888EAA"/>
</svg>
