<svg width="56" height="56" viewBox="0 0 56 56" fill="none" xmlns="http://www.w3.org/2000/svg">
<path d="M28.6831 12.3499C29.5943 11.4387 31.0717 11.4387 31.9829 12.3499L45.9829 26.3499C46.4205 26.7875 46.6663 27.381 46.6663 27.9998C46.6663 28.6187 46.4205 29.2122 45.9829 29.6498L31.9829 43.6498C31.0717 44.561 29.5943 44.561 28.6831 43.6498C27.7719 42.7385 27.7719 41.2611 28.6831 40.3499L38.6998 30.3332L11.6663 30.3332C10.3777 30.3332 9.33301 29.2885 9.33301 27.9998C9.33301 26.7112 10.3777 25.6665 11.6663 25.6665L38.6998 25.6665L28.6831 15.6498C27.7719 14.7385 27.7719 13.2611 28.6831 12.3499Z" fill="#888EAA"/>
</svg>
