<svg width="24" height="24" viewBox="0 0 24 24" fill="none" xmlns="http://www.w3.org/2000/svg">
<g clip-path="url(#clip0_725_5500)">
<path d="M20 20V17C20 15.9391 19.5786 14.9217 18.8284 14.1716C18.0783 13.4214 17.0609 13 16 13H15C14.7348 13 14.4804 12.8946 14.2929 12.7071C14.1054 12.5196 14 12.2652 14 12V6C14 5.46957 13.7893 4.96086 13.4142 4.58579C13.0391 4.21071 12.5304 4 12 4V4C11.4696 4 10.9609 4.21071 10.5858 4.58579C10.2107 4.96086 10 5.46957 10 6V16L7.6 12.8C7.41371 12.5516 7.17214 12.35 6.89443 12.2111C6.61672 12.0723 6.31049 12 6 12H5.618C4.724 12 4 12.724 4 13.618C4 13.869 4.058 14.117 4.17 14.342L7 20" stroke="#888EAA" stroke-width="2" stroke-linecap="round" stroke-linejoin="round"/>
<path d="M19.9037 6.23568C19.7735 6.36586 19.5624 6.36586 19.4323 6.23568L17.4323 4.23568C17.3698 4.17317 17.3346 4.08838 17.3346 3.99998C17.3346 3.91157 17.3698 3.82679 17.4323 3.76428L19.4323 1.76428C19.5624 1.6341 19.7735 1.6341 19.9037 1.76428C20.0338 1.89445 20.0338 2.10551 19.9037 2.23568L18.4727 3.66665L22.3346 3.66665C22.5187 3.66665 22.668 3.81588 22.668 3.99998C22.668 4.18407 22.5187 4.33331 22.3346 4.33331L18.4727 4.33331L19.9037 5.76428C20.0338 5.89445 20.0338 6.10551 19.9037 6.23568Z" fill="#888EAA"/>
</g>
<defs>
<clipPath id="clip0_725_5500">
<rect width="24" height="24" fill="white"/>
</clipPath>
</defs>
</svg>
