<svg width="1574" height="1635" viewBox="0 0 1574 1635" fill="none" xmlns="http://www.w3.org/2000/svg">
<path opacity="0.5" d="M1572 817.5L1571.98 819.914L1571.92 822.328L1571.83 824.743L1571.69 827.157L1571.52 829.571L1571.3 831.985L1571.05 834.399L1570.76 836.813L1570.44 839.227L1570.07 841.641L1569.66 844.054L1569.22 846.468L1568.74 848.881L1568.22 851.294L1567.66 853.707L1567.06 856.119L1566.42 858.532L1565.75 860.944L1565.03 863.356L1564.28 865.767L1563.49 868.178L1562.67 870.589L1561.8 873L1560.9 875.41L1559.95 877.82L1558.97 880.23L1557.96 882.639L1556.9 885.048L1555.81 887.456L1554.68 889.864L1553.51 892.271L1552.3 894.678L1551.06 897.085L1549.77 899.491L1548.45 901.896L1547.1 904.301L1545.7 906.705L1544.27 909.109L1542.8 911.512L1541.3 913.915L1539.75 916.316L1538.17 918.718L1536.56 921.118L1534.9 923.518L1533.21 925.917L1531.49 928.316L1529.72 930.713L1527.92 933.11L1526.09 935.506L1524.22 937.902L1522.31 940.296L1520.36 942.69L1518.38 945.082L1516.37 947.474L1514.31 949.865L1512.23 952.255L1510.1 954.644L1507.95 957.032L1505.75 959.419L1503.52 961.805L1501.26 964.19L1498.96 966.574L1496.63 968.956L1494.26 971.338L1491.86 973.718L1489.42 976.098L1486.95 978.476L1484.44 980.852L1481.9 983.228L1479.33 985.602L1476.72 987.975L1474.08 990.347L1471.41 992.717L1468.7 995.086L1465.96 997.454L1463.18 999.819L1460.38 1002.18L1457.54 1004.55L1454.66 1006.91L1451.76 1009.27L1448.82 1011.63L1445.85 1013.98L1442.85 1016.34L1439.82 1018.69L1436.75 1021.04L1433.66 1023.39L1430.53 1025.74L1427.37 1028.09L1424.18 1030.43L1420.96 1032.77L1417.71 1035.12L1414.42 1037.45L1411.11 1039.79L1407.77 1042.12L1404.4 1044.46L1400.99 1046.79L1397.56 1049.12L1394.1 1051.44L1390.61 1053.77L1387.09 1056.09L1383.54 1058.41L1379.96 1060.72L1376.35 1063.04L1372.72 1065.35L1369.05 1067.66L1365.36 1069.97L1361.64 1072.27L1357.9 1074.58L1354.12 1076.88L1350.32 1079.17L1346.49 1081.47L1342.64 1083.76L1338.76 1086.05L1334.85 1088.33L1330.91 1090.62L1326.95 1092.9L1322.97 1095.17L1318.95 1097.45L1314.92 1099.72L1310.85 1101.99L1306.77 1104.25L1302.65 1106.51L1298.52 1108.77L1294.36 1111.03L1290.17 1113.28L1285.96 1115.53L1281.73 1117.77L1277.47 1120.02L1273.19 1122.25L1268.89 1124.49L1264.56 1126.72L1260.21 1128.95L1255.84 1131.17L1251.45 1133.39L1247.04 1135.61L1242.6 1137.82L1238.14 1140.03L1233.66 1142.23L1229.16 1144.43L1224.64 1146.62L1220.1 1148.82L1215.54 1151L1210.96 1153.19L1206.35 1155.36L1201.73 1157.54L1197.09 1159.71L1192.43 1161.87L1187.75 1164.03L1183.06 1166.19L1178.34 1168.34L1173.6 1170.49L1168.85 1172.63L1164.08 1174.77L1159.3 1176.9L1154.49 1179.02L1149.67 1181.15L1144.83 1183.26L1139.98 1185.37L1135.11 1187.48L1130.22 1189.58L1125.32 1191.68L1120.4 1193.76L1115.46 1195.85L1110.52 1197.93L1105.55 1200L1100.57 1202.07L1095.58 1204.13L1090.58 1206.18L1085.56 1208.23L1080.52 1210.28L1075.48 1212.31L1070.42 1214.35L1065.35 1216.37L1060.26 1218.39L1055.16 1220.4L1050.06 1222.41L1044.94 1224.41L1039.8 1226.4L1034.66 1228.38L1029.51 1230.36L1024.34 1232.34L1019.17 1234.3L1013.98 1236.26L1008.79 1238.21L1003.58 1240.16L998.367 1242.09L993.144 1244.02L987.912 1245.94L982.671 1247.86L977.422 1249.77L972.164 1251.67L966.9 1253.56L961.627 1255.44L956.347 1257.32L951.06 1259.19L945.766 1261.05L940.466 1262.9L935.16 1264.75L929.848 1266.58L924.53 1268.41L919.206 1270.23L913.877 1272.04L908.543 1273.84L903.205 1275.64L897.862 1277.42L892.515 1279.2L887.164 1280.97L881.81 1282.73L876.452 1284.48L871.091 1286.22L865.728 1287.95L860.361 1289.67L854.993 1291.38L849.622 1293.08L844.249 1294.78L838.875 1296.46L833.5 1298.13L828.124 1299.8L822.747 1301.45L817.369 1303.1L811.991 1304.73L806.614 1306.35L801.236 1307.97L795.859 1309.57L790.483 1311.16L785.108 1312.75L779.735 1314.32L774.362 1315.88L768.992 1317.43L763.624 1318.97L758.258 1320.5L752.895 1322.01L747.535 1323.52L742.178 1325.01L736.824 1326.5L731.474 1327.97L726.127 1329.43L720.785 1330.88L715.448 1332.31L710.114 1333.74L704.786 1335.15L699.463 1336.55L694.146 1337.94L688.834 1339.32L683.527 1340.68L678.228 1342.04L672.934 1343.38L667.647 1344.7L662.367 1346.02L657.094 1347.32L651.829 1348.61L646.571 1349.89L641.322 1351.15L636.08 1352.4L630.847 1353.64L625.622 1354.86L620.406 1356.07L615.199 1357.27L610.002 1358.45L604.814 1359.62L599.636 1360.78L594.468 1361.92L589.31 1363.05L584.163 1364.16L579.027 1365.26L573.901 1366.35L568.787 1367.42L563.684 1368.48L558.594 1369.52L553.514 1370.55L548.447 1371.56L543.393 1372.56L538.351 1373.55L533.322 1374.52L528.306 1375.47L523.304 1376.41L518.315 1377.33L513.339 1378.24L508.378 1379.14L503.431 1380.01L498.498 1380.88L493.58 1381.72L488.677 1382.55L483.788 1383.37L478.915 1384.17L474.058 1384.95L469.217 1385.72L464.391 1386.47L459.581 1387.2L454.788 1387.92L450.011 1388.62L445.251 1389.31L440.508 1389.97L435.782 1390.63L431.074 1391.26L426.383 1391.88L421.71 1392.48L417.055 1393.06L412.419 1393.63L407.8 1394.18L403.2 1394.71L398.619 1395.23L394.057 1395.73L389.514 1396.21L384.991 1396.67L380.487 1397.11L376.003 1397.54L371.539 1397.95L367.094 1398.34L362.671 1398.71L358.267 1399.06L353.885 1399.4L349.523 1399.72L345.182 1400.02L340.863 1400.3L336.565 1400.56L332.288 1400.81L328.033 1401.03L323.8 1401.24L319.59 1401.42L315.401 1401.59L311.235 1401.74L307.092 1401.87L302.971 1401.98L298.873 1402.08L294.798 1402.15L290.747 1402.2L286.719 1402.24L282.715 1402.25L278.734 1402.25L274.777 1402.22L270.845 1402.18L266.936 1402.11L263.052 1402.03L259.192 1401.92L255.357 1401.8L251.547 1401.65L247.762 1401.49L244.002 1401.3L240.267 1401.1L236.557 1400.87L232.873 1400.63L229.214 1400.36L225.582 1400.07L221.975 1399.77L218.394 1399.44L214.84 1399.09L211.312 1398.72L207.81 1398.33L204.335 1397.92L200.886 1397.49L197.464 1397.03L194.07 1396.56L190.702 1396.06L187.361 1395.54L184.048 1395.01L180.762 1394.45L177.504 1393.87L174.273 1393.26L171.07 1392.64L167.895 1392L164.748 1391.33L161.629 1390.64L158.538 1389.93L155.475 1389.2L152.441 1388.45L149.435 1387.67L146.458 1386.87L143.509 1386.06L140.589 1385.22L137.698 1384.35L134.836 1383.47L132.003 1382.56L129.199 1381.63L126.425 1380.68L123.679 1379.71L120.963 1378.71L118.276 1377.7L115.619 1376.66L112.991 1375.6L110.393 1374.51L107.825 1373.41L105.287 1372.28L102.778 1371.13L100.3 1369.95L97.8514 1368.76L95.4329 1367.54L93.0446 1366.3L90.6865 1365.03L88.3587 1363.75L86.0612 1362.44L83.794 1361.11L81.5574 1359.75L79.3511 1358.38L77.1755 1356.98L75.0304 1355.56L72.916 1354.11L70.8322 1352.64L68.7792 1351.15L66.7569 1349.64L64.7655 1348.11L62.8049 1346.55L60.8752 1344.97L58.9764 1343.37L57.1086 1341.74L55.2717 1340.09L53.466 1338.42L51.6912 1336.72L49.9475 1335.01L48.2349 1333.27L46.5534 1331.5L44.9031 1329.72L43.284 1327.91L41.6961 1326.08L40.1393 1324.23L38.6138 1322.35L37.1196 1320.45L35.6565 1318.53L34.2248 1316.58L32.8243 1314.62L31.4551 1312.63L30.1172 1310.61L28.8105 1308.58L27.5352 1306.52L26.2911 1304.44L25.0783 1302.34L23.8969 1300.21L22.7467 1298.06L21.6277 1295.89L20.5401 1293.7L19.4837 1291.48L18.4586 1289.24L17.4647 1286.98L16.502 1284.7L15.5706 1282.39L14.6703 1280.06L13.8012 1277.71L12.9633 1275.34L12.1565 1272.95L11.3808 1270.53L10.6362 1268.09L9.92272 1265.63L9.2402 1263.14L8.58866 1260.64L7.96817 1258.11L7.37857 1255.56L6.81986 1252.99L6.29204 1250.4L5.7951 1247.78L5.32888 1245.14L4.89347 1242.49L4.48869 1239.8L4.11462 1237.1L3.77118 1234.38L3.45838 1231.63L3.17604 1228.87L2.92416 1226.08L2.70274 1223.27L2.51178 1220.44L2.35103 1217.59L2.22057 1214.71L2.12039 1211.82L2.05026 1208.9L2.01032 1205.97L2.00034 1203.01L2.02039 1200.03L2.07039 1197.03L2.15017 1194.01L2.25973 1190.97L2.39898 1187.91L2.56793 1184.83L2.76639 1181.73L2.99438 1178.61L3.25181 1175.46L3.53859 1172.3L3.85463 1169.12L4.19986 1165.92L4.57427 1162.7L4.97769 1159.45L5.41003 1156.19L5.8713 1152.91L6.36132 1149.61L6.8801 1146.29L7.42746 1142.95L8.00332 1139.59L8.60768 1136.21L9.24046 1132.82L9.90139 1129.4L10.5906 1125.96L11.3078 1122.51L12.053 1119.04L12.8261 1115.55L13.6269 1112.04L14.4555 1108.51L15.3117 1104.96L16.1954 1101.4L17.1064 1097.82L18.0448 1094.22L19.0103 1090.6L20.0029 1086.96L21.0225 1083.31L22.069 1079.64L23.1421 1075.95L24.2419 1072.25L25.3683 1068.53L26.5211 1064.79L27.7002 1061.03L28.9055 1057.26L30.1369 1053.47L31.3942 1049.66L32.6774 1045.84L33.9863 1042L35.3208 1038.15L36.6808 1034.28L38.0662 1030.39L39.4768 1026.49L40.9126 1022.57L42.3732 1018.64L43.8588 1014.69L45.3693 1010.73L46.9042 1006.75L48.4637 1002.76L50.0475 998.747L51.6556 994.725L53.2877 990.688L54.9439 986.637L56.6239 982.571L58.3276 978.492L60.0549 974.399L61.8056 970.292L63.5796 966.172L65.3768 962.038L67.197 957.891L69.0401 953.731L70.906 949.558L72.7945 945.372L74.7054 941.174L76.6387 936.963L78.5942 932.74L80.5717 928.505L82.5711 924.258L84.5924 919.999L86.6352 915.728L88.6995 911.446L90.7852 907.153L92.8919 902.849L95.0198 898.533L97.1685 894.207L99.338 889.87L101.528 885.523L103.739 881.165L105.969 876.798L108.22 872.42L110.491 868.033L112.782 863.636L115.093 859.23L117.423 854.815L119.772 850.39L122.141 845.957L124.528 841.515L126.935 837.064L129.36 832.606L131.804 828.139L134.267 823.664L136.747 819.181L139.246 814.691L141.763 810.194L144.298 805.689L146.85 801.177L149.42 796.659L152.007 792.134L154.612 787.602L157.233 783.065L159.871 778.521L162.526 773.971L165.198 769.416L167.886 764.856L170.59 760.29L173.31 755.719L176.046 751.143L178.798 746.563L181.566 741.978L184.348 737.389L187.147 732.796L189.96 728.199L192.788 723.598L195.631 718.994L198.488 714.387L201.36 709.777L204.246 705.164L207.147 700.548L210.061 695.93L212.989 691.309L215.931 686.687L218.886 682.063L221.854 677.438L224.836 672.811L227.83 668.182L230.837 663.553L233.857 658.924L236.89 654.293L239.934 649.663L242.991 645.032L246.06 640.402L249.141 635.771L252.233 631.142L255.337 626.513L258.451 621.885L261.578 617.258L264.715 612.633L267.863 608.01L271.021 603.388L274.19 598.768L277.37 594.151L280.559 589.536L283.759 584.924L286.968 580.314L290.187 575.708L293.416 571.106L296.654 566.507L299.901 561.912L303.157 557.321L306.421 552.734L309.695 548.151L312.977 543.574L316.268 539.001L319.566 534.434L322.873 529.871L326.187 525.315L329.51 520.764L332.839 516.22L336.177 511.681L339.521 507.149L342.872 502.624L346.231 498.106L349.596 493.595L352.968 489.091L356.346 484.595L359.73 480.107L363.12 475.627L366.517 471.155L369.919 466.691L373.327 462.237L376.74 457.791L380.159 453.355L383.583 448.927L387.011 444.51L390.445 440.102L393.883 435.705L397.326 431.318L400.773 426.941L404.225 422.575L407.68 418.22L411.14 413.876L414.603 409.544L418.07 405.223L421.54 400.914L425.014 396.618L428.491 392.333L431.97 388.061L435.453 383.802L438.938 379.556L442.426 375.323L445.917 371.103L449.409 366.897L452.904 362.705L456.401 358.527L459.899 354.363L463.399 350.214L466.901 346.08L470.404 341.96L473.908 337.856L477.414 333.767L480.92 329.693L484.427 325.636L487.935 321.595L491.444 317.569L494.953 313.561L498.462 309.568L501.971 305.593L505.48 301.635L508.989 297.695L512.498 293.771L516.006 289.866L519.514 285.979L523.021 282.11L526.527 278.259L530.032 274.426L533.536 270.613L537.039 266.819L540.541 263.044L544.041 259.288L547.539 255.552L551.036 251.836L554.53 248.14L558.023 244.464L561.513 240.808L565.002 237.174L568.488 233.56L571.971 229.967L575.451 226.396L578.929 222.846L582.404 219.317L585.876 215.811L589.345 212.327L592.811 208.865L596.273 205.425L599.732 202.008L603.187 198.615L606.638 195.244L610.086 191.896L613.529 188.572L616.969 185.271L620.404 181.994L623.835 178.742L627.261 175.513L630.683 172.309L634.101 169.13L637.513 165.975L640.921 162.845L644.324 159.741L647.721 156.661L651.114 153.607L654.501 150.579L657.883 147.577L661.259 144.601L664.63 141.651L667.995 138.727L671.354 135.83L674.707 132.96L678.054 130.117L681.395 127.3L684.73 124.511L688.058 121.75L691.38 119.016L694.696 116.31L698.005 113.631L701.307 110.981L704.603 108.359L707.891 105.766L711.173 103.201L714.448 100.665L717.715 98.1577L720.975 95.6794L724.228 93.2305L727.473 90.8109L730.711 88.4208L733.941 86.0604L737.164 83.7298L740.379 81.4292L743.586 79.1587L746.785 76.9184L749.976 74.7086L753.159 72.5294L756.334 70.3808L759.5 68.2631L762.658 66.1763L765.808 64.1207L768.949 62.0963L772.082 60.1033L775.206 58.1418L778.321 56.212L781.428 54.314L784.526 52.4478L787.615 50.6137L790.694 48.8117L793.765 47.0421L796.827 45.3049L799.879 43.6002L802.922 41.9281L805.956 40.2889L808.98 38.6824L811.995 37.109L815 35.5688L817.996 34.0617L820.982 32.588L823.959 31.1478L826.925 29.741L829.882 28.368L832.829 27.0288L835.766 25.7233L838.693 24.4518L841.61 23.2144L844.516 22.0112L847.413 20.8423L850.299 19.7076L853.175 18.6074L856.041 17.5417L858.897 16.5107L861.741 15.5143L864.576 14.5528L867.4 13.6262L870.213 12.7345L873.016 11.8778L875.808 11.0563L878.589 10.2699L881.36 9.51879L884.119 8.80305L886.868 8.12271L889.606 7.47792L892.333 6.86861L895.049 6.29486L897.755 5.75684L900.449 5.25455L903.131 4.78808L905.803 4.35751L908.464 3.96276L911.113 3.60408L913.752 3.2813L916.379 2.99468L918.994 2.74422L921.599 2.52983L924.192 2.35169L926.773 2.20987L929.343 2.1043L931.902 2.03505L934.449 2.00222L936.985 2.0058L939.509 2.04579L942.022 2.12237L944.523 2.23537L947.012 2.38494L949.49 2.57111L951.956 2.79377L954.41 3.05318L956.853 3.3491L959.284 3.68177L961.703 4.05111L964.11 4.45712L966.506 4.89979L968.889 5.37923L971.261 5.89541L973.621 6.44827L975.969 7.03788L978.306 7.66425L980.63 8.32737L982.943 9.02725L985.243 9.76388L987.532 10.5372L989.808 11.3472L992.073 12.194L994.326 13.0775L996.566 13.9978L998.795 14.9547L1001.01 15.9482L1003.22 16.9784L1005.41 18.0453L1007.59 19.1487L1009.76 20.2888L1011.91 21.4655L1014.06 22.6786L1016.19 23.9283L1018.31 25.2145L1020.42 26.537L1022.52 27.896L1024.6 29.2914L1026.67 30.7232L1028.73 32.1911L1030.78 33.6954L1032.81 35.2358L1034.84 36.8124L1036.85 38.4251L1038.85 40.074L1040.84 41.7587L1042.81 43.4795L1044.77 45.2361L1046.72 47.0286L1048.66 48.8568L1050.59 50.7208L1052.5 52.6203L1054.41 54.5555L1056.3 56.5262L1058.18 58.5323L1060.04 60.5738L1061.9 62.6506L1063.74 64.7627L1065.57 66.9098L1067.39 69.092L1069.19 71.3092L1070.99 73.5613L1072.77 75.8482L1074.54 78.1699L1076.29 80.5261L1078.04 82.917L1079.77 85.3422L1081.5 87.8019L1083.21 90.2957L1084.9 92.8238L1086.59 95.3859L1088.26 97.9819L1089.93 100.612L1091.58 103.275L1093.21 105.973L1094.84 108.704L1096.45 111.468L1098.06 114.265L1099.65 117.096L1101.23 119.96L1102.79 122.857L1104.35 125.786L1105.89 128.749L1107.42 131.743L1108.94 134.771L1110.45 137.83L1111.95 140.922L1113.43 144.046L1114.91 147.202L1116.37 150.39L1117.82 153.609L1119.25 156.86L1120.68 160.142L1122.1 163.455L1123.5 166.8L1124.89 170.175L1126.27 173.582L1127.64 177.019L1128.99 180.486L1130.34 183.984L1131.67 187.512L1133 191.07L1134.31 194.658L1135.61 198.276L1136.89 201.923L1138.17 205.599L1139.44 209.305L1140.69 213.04L1141.93 216.804L1143.16 220.596L1144.38 224.417L1145.59 228.267L1146.79 232.144L1147.97 236.05L1149.15 239.984L1150.31 243.945L1151.46 247.934L1152.6 251.95L1153.73 255.993L1154.85 260.063L1155.96 264.16L1157.06 268.283L1158.14 272.433L1159.22 276.609L1160.28 280.812L1161.33 285.039L1162.37 289.293L1163.4 293.572L1164.42 297.876L1165.43 302.205L1166.43 306.559L1167.42 310.938L1168.39 315.341L1169.36 319.768L1170.31 324.219L1171.26 328.694L1172.19 333.193L1173.11 337.714L1174.02 342.26L1174.92 346.828L1175.81 351.418L1176.69 356.032L1177.56 360.667L1178.42 365.325L1179.26 370.005L1180.1 374.706L1180.92 379.428L1181.74 384.172L1182.54 388.937L1183.34 393.722L1184.12 398.529L1184.9 403.355L1185.66 408.201L1186.41 413.067L1187.15 417.953L1187.88 422.858L1188.6 427.783L1189.31 432.726L1190.01 437.688L1190.7 442.668L1191.38 447.667L1192.05 452.683L1192.71 457.717L1193.36 462.769L1194 467.838L1194.63 472.924L1195.24 478.026L1195.85 483.145L1196.45 488.281L1197.04 493.432L1197.61 498.599L1198.18 503.782L1198.74 508.979L1199.28 514.192L1199.82 519.42L1200.35 524.662L1200.86 529.918L1201.37 535.189L1201.87 540.473L1202.35 545.77L1202.83 551.081L1203.3 556.405L1203.75 561.741L1204.2 567.09L1204.63 572.451L1205.06 577.825L1205.48 583.209L1205.88 588.606L1206.28 594.013L1206.67 599.431L1207.04 604.86L1207.41 610.299L1207.77 615.748L1208.11 621.208L1208.45 626.677L1208.78 632.154L1209.1 637.642L1209.41 643.137L1209.7 648.642L1209.99 654.154L1210.27 659.675L1210.54 665.203L1210.8 670.739L1211.05 676.282L1211.29 681.832L1211.52 687.388L1211.74 692.951L1211.95 698.52L1212.15 704.094L1212.34 709.675L1212.52 715.26L1212.69 720.85L1212.85 726.446L1213 732.045L1213.14 737.649L1213.28 743.257L1213.4 748.868L1213.51 754.483L1213.62 760.1L1213.71 765.721L1213.79 771.344L1213.87 776.969L1213.93 782.597L1213.99 788.226L1214.03 793.856L1214.07 799.488L1214.1 805.12L1214.11 810.753L1214.12 816.387L1214.12 822.02L1214.1 827.653L1214.08 833.286L1214.05 838.918L1214.01 844.549L1213.96 850.179L1213.9 855.807L1213.83 861.433L1213.75 867.057L1213.66 872.678L1213.56 878.297L1213.45 883.913L1213.33 889.526L1213.2 895.135L1213.06 900.74L1212.91 906.342L1212.75 911.938L1212.59 917.531L1212.41 923.118L1212.22 928.701L1212.03 934.278L1211.82 939.849L1211.6 945.414L1211.38 950.973L1211.14 956.525L1210.9 962.071L1210.64 967.609L1210.38 973.141L1210.1 978.664L1209.82 984.18L1209.52 989.688L1209.22 995.187L1208.91 1000.68L1208.58 1006.16L1208.25 1011.63L1207.91 1017.09L1207.55 1022.55L1207.19 1027.99L1206.82 1033.42L1206.43 1038.85L1206.04 1044.26L1205.64 1049.66L1205.23 1055.05L1204.8 1060.43L1204.37 1065.79L1203.93 1071.15L1203.48 1076.49L1203.01 1081.82L1202.54 1087.13L1202.06 1092.43L1201.57 1097.72L1201.06 1103L1200.55 1108.26L1200.03 1113.51L1199.5 1118.74L1198.95 1123.96L1198.4 1129.17L1197.84 1134.35L1197.27 1139.53L1196.68 1144.68L1196.09 1149.83L1195.49 1154.95L1194.87 1160.06L1194.25 1165.15L1193.61 1170.23L1192.97 1175.29L1192.31 1180.33L1191.65 1185.35L1190.97 1190.36L1190.29 1195.35L1189.59 1200.31L1188.89 1205.27L1188.17 1210.2L1187.44 1215.11L1186.7 1220L1185.96 1224.88L1185.2 1229.73L1184.43 1234.57L1183.65 1239.38L1182.86 1244.17L1182.06 1248.95L1181.25 1253.7L1180.43 1258.43L1179.59 1263.14L1178.75 1267.83L1177.9 1272.49L1177.03 1277.14L1176.16 1281.76L1175.27 1286.36L1174.38 1290.94L1173.47 1295.49L1172.55 1300.02L1171.63 1304.53L1170.69 1309.01L1169.74 1313.48L1168.78 1317.91L1167.8 1322.32L1166.82 1326.71L1165.83 1331.08L1164.82 1335.42L1163.81 1339.73L1162.78 1344.02L1161.75 1348.28L1160.7 1352.52L1159.64 1356.73L1158.57 1360.92L1157.49 1365.08L1156.4 1369.21L1155.29 1373.32L1154.18 1377.4L1153.05 1381.46L1151.92 1385.48L1150.77 1389.48L1149.61 1393.45L1148.44 1397.4L1147.26 1401.31L1146.06 1405.2L1144.86 1409.06L1143.65 1412.9L1142.42 1416.7L1141.18 1420.48L1139.93 1424.22L1138.67 1427.94L1137.4 1431.63L1136.12 1435.29L1134.82 1438.92L1133.51 1442.52L1132.2 1446.08L1130.87 1449.62L1129.53 1453.13L1128.18 1456.61L1126.81 1460.06L1125.44 1463.48L1124.05 1466.87L1122.65 1470.23L1121.24 1473.55L1119.82 1476.85L1118.39 1480.11L1116.94 1483.34L1115.48 1486.54L1114.02 1489.71L1112.54 1492.85L1111.04 1495.95L1109.54 1499.02L1108.03 1502.06L1106.5 1505.07L1104.96 1508.05L1103.41 1510.99L1101.85 1513.9L1100.27 1516.78L1098.69 1519.62L1097.09 1522.43L1095.48 1525.21L1093.86 1527.95L1092.22 1530.66L1090.58 1533.34L1088.92 1535.98L1087.25 1538.59L1085.57 1541.17L1083.88 1543.71L1082.17 1546.22L1080.46 1548.69L1078.73 1551.13L1076.99 1553.53L1075.23 1555.9L1073.47 1558.24L1071.69 1560.54L1069.9 1562.8L1068.1 1565.04L1066.29 1567.23L1064.46 1569.39L1062.62 1571.52L1060.78 1573.61L1058.91 1575.66L1057.04 1577.68L1055.16 1579.67L1053.26 1581.62L1051.35 1583.53L1049.43 1585.41L1047.49 1587.25L1045.55 1589.06L1043.59 1590.83L1041.62 1592.56L1039.63 1594.26L1037.64 1595.93L1035.63 1597.55L1033.62 1599.14L1031.58 1600.7L1029.54 1602.22L1027.49 1603.7L1025.42 1605.15L1023.34 1606.56L1021.25 1607.93L1019.15 1609.27L1017.03 1610.57L1014.9 1611.83L1012.76 1613.06L1010.61 1614.25L1008.45 1615.4L1006.27 1616.52L1004.08 1617.6L1001.88 1618.65L999.672 1619.66L997.448 1620.63L995.213 1621.56L992.965 1622.46L990.705 1623.32L988.433 1624.15L986.149 1624.93L983.853 1625.69L981.545 1626.4L979.226 1627.08L976.894 1627.72L974.55 1628.32L972.195 1628.89L969.828 1629.42L967.449 1629.91L965.058 1630.37L962.655 1630.79L960.241 1631.18L957.814 1631.52L955.376 1631.83L952.927 1632.11L950.465 1632.34L947.992 1632.54L945.507 1632.71L943.011 1632.84L940.503 1632.93L937.984 1632.98L935.452 1633L932.91 1632.98L930.356 1632.93L927.79 1632.84L925.213 1632.71L922.625 1632.54L920.025 1632.34L917.413 1632.11L914.791 1631.84L912.157 1631.53L909.512 1631.18L906.856 1630.8L904.188 1630.39L901.51 1629.93L898.82 1629.44L896.12 1628.92L893.408 1628.36L890.685 1627.77L887.951 1627.14L885.207 1626.47L882.451 1625.77L879.685 1625.03L876.908 1624.26L874.12 1623.45L871.322 1622.61L868.513 1621.73L865.693 1620.82L862.863 1619.87L860.022 1618.89L857.171 1617.87L854.309 1616.82L851.437 1615.73L848.555 1614.61L845.662 1613.45L842.759 1612.26L839.846 1611.04L836.924 1609.78L833.991 1608.49L831.048 1607.16L828.095 1605.8L825.132 1604.41L822.16 1602.98L819.177 1601.52L816.185 1600.03L813.184 1598.5L810.173 1596.94L807.152 1595.35L804.122 1593.72L801.082 1592.06L798.034 1590.37L794.976 1588.65L791.909 1586.89L788.832 1585.1L785.747 1583.28L782.653 1581.43L779.55 1579.54L776.438 1577.62L773.317 1575.67L770.188 1573.69L767.05 1571.68L763.904 1569.64L760.749 1567.56L757.586 1565.46L754.414 1563.32L751.234 1561.16L748.047 1558.96L744.851 1556.73L741.647 1554.47L738.435 1552.18L735.216 1549.86L731.989 1547.51L728.754 1545.14L725.511 1542.73L722.261 1540.29L719.004 1537.82L715.739 1535.33L712.468 1532.8L709.189 1530.25L705.903 1527.67L702.61 1525.06L699.311 1522.42L696.004 1519.75L692.691 1517.06L689.372 1514.33L686.046 1511.58L682.713 1508.8L679.375 1506L676.03 1503.17L672.679 1500.31L669.322 1497.42L665.96 1494.51L662.591 1491.57L659.217 1488.6L655.838 1485.61L652.453 1482.59L649.062 1479.55L645.667 1476.48L642.266 1473.38L638.86 1470.26L635.45 1467.12L632.034 1463.95L628.614 1460.75L625.189 1457.54L621.76 1454.29L618.326 1451.03L614.889 1447.73L611.447 1444.42L608.001 1441.08L604.551 1437.72L601.097 1434.33L597.64 1430.93L594.179 1427.5L590.715 1424.04L587.247 1420.57L583.777 1417.07L580.303 1413.55L576.826 1410.01L573.346 1406.45L569.864 1402.86L566.379 1399.26L562.892 1395.63L559.402 1391.98L555.91 1388.31L552.416 1384.63L548.921 1380.92L545.423 1377.19L541.924 1373.44L538.423 1369.67L534.92 1365.89L531.417 1362.08L527.912 1358.26L524.406 1354.41L520.899 1350.55L517.392 1346.67L513.884 1342.77L510.375 1338.86L506.867 1334.92L503.357 1330.97L499.848 1327L496.339 1323.02L492.83 1319.02L489.322 1315L485.813 1310.96L482.306 1306.91L478.799 1302.84L475.293 1298.76L471.789 1294.66L468.285 1290.55L464.783 1286.42L461.282 1282.28L457.783 1278.12L454.285 1273.95L450.79 1269.76L447.296 1265.56L443.805 1261.35L440.316 1257.12L436.83 1252.88L433.346 1248.62L429.865 1244.36L426.387 1240.08L422.912 1235.78L419.441 1231.48L415.972 1227.16L412.508 1222.84L409.047 1218.5L405.59 1214.15L402.137 1209.78L398.688 1205.41L395.243 1201.03L391.803 1196.64L388.368 1192.23L384.937 1187.82L381.511 1183.39L378.09 1178.96L374.675 1174.52L371.265 1170.07L367.86 1165.61L364.462 1161.14L361.069 1156.66L357.682 1152.18L354.301 1147.69L350.927 1143.18L347.56 1138.68L344.199 1134.16L340.844 1129.64L337.497 1125.11L334.157 1120.57L330.824 1116.03L327.499 1111.48L324.182 1106.93L320.872 1102.37L317.57 1097.8L314.276 1093.23L310.991 1088.66L307.714 1084.08L304.446 1079.49L301.186 1074.9L297.935 1070.31L294.694 1065.71L291.462 1061.11L288.239 1056.5L285.026 1051.9L281.822 1047.29L278.629 1042.67L275.445 1038.06L272.272 1033.44L269.109 1028.82L265.957 1024.19L262.816 1019.57L259.685 1014.94L256.566 1010.31L253.458 1005.69L250.361 1001.06L247.276 996.427L244.202 991.797L241.141 987.166L238.091 982.535L235.054 977.905L232.029 973.275L229.017 968.646L226.017 964.017L223.031 959.39L220.057 954.763L217.097 950.139L214.15 945.516L211.216 940.895L208.296 936.276L205.391 931.659L202.499 927.045L199.621 922.433L196.758 917.825L193.909 913.22L191.075 908.618L188.256 904.019L185.452 899.425L182.663 894.834L179.89 890.247L177.132 885.665L174.389 881.088L171.663 876.515L168.952 871.947L166.258 867.384L163.58 862.827L160.918 858.275L158.273 853.729L155.645 849.189L153.034 844.655L150.44 840.127L147.863 835.606L145.304 831.092L142.762 826.584L140.239 822.084L137.733 817.591L135.245 813.106L132.775 808.628L130.324 804.157L127.891 799.696L125.477 795.242L123.082 790.796L120.706 786.36L118.349 781.932L116.011 777.513L113.693 773.103L111.394 768.702L109.115 764.311L106.856 759.93L104.618 755.558L102.399 751.197L100.201 746.845L98.0232 742.504L95.8663 738.174L93.7302 733.854L91.615 729.546L89.521 725.248L87.4482 720.961L85.3969 716.686L83.3671 712.423L81.3591 708.171L79.3729 703.931L77.4087 699.703L75.4666 695.487L73.5468 691.284L71.6494 687.093L69.7746 682.915L67.9225 678.75L66.0932 674.598L64.2869 670.459L62.5037 666.333L60.7438 662.221L59.0073 658.123L57.2942 654.038L55.6048 649.967L53.9393 645.91L52.2976 641.868L50.68 637.839L49.0866 633.826L47.5174 629.827L45.9728 625.842L44.4527 621.873L42.9573 617.919L41.4867 613.98L40.041 610.056L38.6205 606.148L37.2251 602.256L35.8551 598.379L34.5105 594.518L33.1915 590.674L31.8981 586.845L30.6305 583.033L29.3889 579.237L28.1733 575.457L26.9839 571.695L25.8206 567.949L24.6838 564.22L23.5735 560.508L22.4898 556.813L21.4328 553.136L20.4026 549.476L19.3993 545.833L18.423 542.208L17.4739 538.601L16.5521 535.012L15.6576 531.441L14.7905 527.888L13.951 524.352L13.1392 520.836L12.3551 517.337L11.5988 513.858L10.8706 510.397L10.1703 506.954L9.49822 503.531L8.85427 500.126L8.23874 496.74L7.65161 493.374L7.0929 490.027L6.56286 486.699L6.06149 483.39L5.58887 480.101L5.14501 476.831L4.73016 473.582L4.34431 470.352L3.98757 467.142L3.66001 463.951L3.36162 460.781L3.09259 457.631L2.853 454.501L2.64284 451.392L2.46221 448.302L2.31118 445.234L2.18985 442.185L2.09829 439.158L2.0366 436.151L2.00469 433.164L2.00282 430.199L2.03089 427.254L2.08908 424.33L2.17739 421.428L2.29591 418.546L2.44463 415.686L2.62364 412.846L2.83312 410.028L3.07288 407.232L3.34319 404.457L3.64396 401.703L3.97528 398.97L4.33723 396.26L4.7299 393.571L5.1532 390.903L5.60722 388.257L6.09203 385.633L6.60766 383.031L7.15416 380.451L7.73148 377.893L8.33985 375.356L8.9791 372.842L9.64934 370.349L10.3506 367.879L11.0829 365.431L11.8463 363.005L12.6408 360.601L13.4665 358.22L14.3232 355.861L15.2112 353.524L16.1303 351.209L17.0806 348.917L18.0622 346.647L19.075 344.4L20.119 342.175L21.1943 339.972L22.3009 337.792L23.4387 335.635L24.6078 333.5L25.8082 331.388L27.0399 329.299L28.3029 327.232L29.5971 325.187L30.9227 323.166L32.2796 321.167L33.6677 319.19L35.0871 317.237L36.5378 315.306L38.0197 313.398L39.5328 311.512L41.0772 309.649L42.6529 307.809L44.2597 305.992L45.8977 304.198L47.5668 302.426L49.2671 300.677L50.9985 298.951L52.761 297.248L54.5545 295.567L56.3791 293.909L58.2347 292.274L60.1213 290.661L62.0388 289.072L63.9872 287.505L65.9665 285.961L67.9765 284.439L70.0174 282.941L72.089 281.465L74.1913 280.011L76.3243 278.581L78.4879 277.173L80.682 275.787L82.9066 274.425L85.1618 273.084L87.4473 271.767L89.7631 270.472L92.1093 269.2L94.4856 267.95L96.8922 266.722L99.3289 265.517L101.796 264.335L104.292 263.175L106.819 262.037L109.375 260.922L111.961 259.829L114.577 258.759L117.223 257.71L119.898 256.684L122.602 255.68L125.336 254.699L128.099 253.739L130.892 252.802L133.714 251.887L136.564 250.994L139.444 250.122L142.352 249.273L145.29 248.446L148.256 247.64L151.25 246.857L154.273 246.095L157.325 245.355L160.404 244.636L163.512 243.939L166.648 243.264L169.813 242.611L173.005 241.979L176.224 241.368L179.472 240.779L182.747 240.211L186.049 239.665L189.379 239.139L192.736 238.635L196.12 238.152L199.531 237.691L202.969 237.25L206.434 236.83L209.925 236.431L213.443 236.053L216.987 235.696L220.557 235.36L224.154 235.044L227.776 234.749L231.424 234.475L235.098 234.221L238.798 233.987L242.523 233.774L246.273 233.581L250.048 233.408L253.849 233.256L257.674 233.124L261.524 233.011L265.399 232.919L269.297 232.847L273.221 232.794L277.168 232.761L281.139 232.748L285.134 232.755L289.153 232.781L293.195 232.827L297.26 232.892L301.349 232.976L305.461 233.08L309.595 233.203L313.752 233.345L317.932 233.506L322.134 233.686L326.358 233.885L330.604 234.102L334.872 234.339L339.162 234.594L343.473 234.868L347.805 235.16L352.159 235.471L356.533 235.8L360.928 236.147L365.344 236.512L369.78 236.896L374.237 237.297L378.713 237.717L383.209 238.154L387.725 238.609L392.26 239.082L396.815 239.573L401.388 240.08L405.981 240.606L410.592 241.149L415.221 241.709L419.869 242.286L424.535 242.88L429.219 243.491L433.92 244.12L438.639 244.765L443.375 245.426L448.128 246.105L452.899 246.8L457.685 247.512L462.488 248.239L467.308 248.984L472.143 249.744L476.994 250.521L481.861 251.314L486.744 252.122L491.641 252.947L496.553 253.787L501.48 254.643L506.422 255.515L511.377 256.402L516.347 257.304L521.331 258.222L526.328 259.155L531.339 260.103L536.363 261.067L541.4 262.045L546.449 263.038L551.511 264.046L556.585 265.068L561.672 266.106L566.77 267.157L571.879 268.223L577 269.304L582.132 270.398L587.275 271.507L592.429 272.63L597.593 273.767L602.767 274.918L607.951 276.082L613.144 277.26L618.348 278.452L623.56 279.657L628.781 280.876L634.011 282.107L639.25 283.353L644.496 284.611L649.751 285.882L655.013 287.166L660.283 288.463L665.56 289.773L670.844 291.096L676.135 292.431L681.433 293.778L686.736 295.138L692.046 296.511L697.361 297.895L702.682 299.292L708.008 300.7L713.34 302.121L718.676 303.553L724.016 304.997L729.361 306.453L734.709 307.92L740.062 309.399L745.418 310.889L750.777 312.39L756.139 313.903L761.504 315.427L766.871 316.962L772.24 318.507L777.612 320.064L782.985 321.631L788.359 323.209L793.735 324.798L799.112 326.397L804.489 328.006L809.867 329.626L815.244 331.256L820.622 332.896L825.999 334.546L831.376 336.206L836.752 337.876L842.126 339.556L847.499 341.246L852.871 342.945L858.24 344.653L863.608 346.371L868.972 348.099L874.334 349.835L879.694 351.581L885.049 353.336L890.402 355.1L895.75 356.873L901.095 358.655L906.435 360.445L911.77 362.244L917.101 364.052L922.427 365.868L927.747 367.693L933.062 369.526L938.37 371.367L943.673 373.217L948.969 375.074L954.259 376.94L959.542 378.813L964.817 380.695L970.085 382.584L975.346 384.481L980.598 386.385L985.842 388.297L991.078 390.217L996.304 392.144L1001.52 394.078L1006.73 396.019L1011.93 397.968L1017.12 399.923L1022.3 401.886L1027.47 403.856L1032.63 405.832L1037.77 407.816L1042.91 409.806L1048.03 411.802L1053.15 413.805L1058.25 415.815L1063.34 417.831L1068.42 419.853L1073.48 421.882L1078.53 423.917L1083.57 425.958L1088.6 428.005L1093.61 430.058L1098.6 432.117L1103.59 434.181L1108.56 436.252L1113.51 438.328L1118.45 440.41L1123.37 442.498L1128.28 444.591L1133.18 446.689L1138.05 448.793L1142.92 450.902L1147.76 453.016L1152.59 455.136L1157.4 457.261L1162.19 459.39L1166.97 461.525L1171.73 463.665L1176.47 465.809L1181.19 467.959L1185.9 470.113L1190.59 472.271L1195.25 474.435L1199.9 476.603L1204.53 478.775L1209.14 480.952L1213.73 483.133L1218.3 485.319L1222.85 487.508L1227.38 489.702L1231.89 491.901L1236.37 494.103L1240.84 496.309L1245.29 498.519L1249.71 500.734L1254.11 502.952L1258.49 505.174L1262.85 507.399L1267.18 509.629L1271.49 511.862L1275.78 514.098L1280.05 516.339L1284.29 518.582L1288.51 520.83L1292.71 523.08L1296.88 525.334L1301.02 527.592L1305.15 529.852L1309.24 532.116L1313.31 534.383L1317.36 536.653L1321.38 538.926L1325.38 541.202L1329.35 543.481L1333.3 545.763L1337.22 548.048L1341.11 550.336L1344.97 552.626L1348.81 554.919L1352.62 557.215L1356.41 559.514L1360.17 561.815L1363.9 564.119L1367.6 566.426L1371.27 568.735L1374.92 571.046L1378.54 573.36L1382.13 575.676L1385.69 577.994L1389.22 580.315L1392.72 582.638L1396.2 584.963L1399.64 587.291L1403.05 589.62L1406.44 591.952L1409.79 594.286L1413.12 596.622L1416.41 598.96L1419.68 601.3L1422.91 603.641L1426.11 605.985L1429.28 608.331L1432.42 610.678L1435.53 613.027L1438.61 615.378L1441.66 617.731L1444.67 620.085L1447.65 622.441L1450.6 624.799L1453.52 627.158L1456.41 629.519L1459.26 631.881L1462.08 634.245L1464.86 636.611L1467.62 638.978L1470.34 641.346L1473.03 643.716L1475.68 646.087L1478.3 648.459L1480.89 650.833L1483.44 653.208L1485.96 655.584L1488.45 657.962L1490.9 660.341L1493.31 662.72L1495.7 665.102L1498.04 667.484L1500.36 669.867L1502.63 672.252L1504.88 674.637L1507.08 677.024L1509.26 679.411L1511.39 681.8L1513.49 684.19L1515.56 686.58L1517.59 688.972L1519.58 691.364L1521.54 693.757L1523.47 696.151L1525.35 698.546L1527.2 700.942L1529.02 703.339L1530.79 705.736L1532.54 708.134L1534.24 710.533L1535.91 712.933L1537.54 715.333L1539.13 717.734L1540.69 720.135L1542.21 722.538L1543.69 724.941L1545.14 727.344L1546.55 729.748L1547.92 732.153L1549.26 734.558L1550.55 736.964L1551.81 739.37L1553.03 741.777L1554.22 744.184L1555.36 746.592L1556.47 749L1557.54 751.408L1558.58 753.817L1559.57 756.227L1560.53 758.637L1561.45 761.047L1562.33 763.457L1563.17 765.868L1563.98 768.279L1564.74 770.691L1565.47 773.102L1566.16 775.514L1566.81 777.927L1567.42 780.339L1568 782.752L1568.54 785.165L1569.03 787.578L1569.49 789.991L1569.91 792.405L1570.29 794.818L1570.64 797.232L1570.94 799.646L1571.21 802.06L1571.44 804.474L1571.63 806.888L1571.78 809.303L1571.89 811.717L1571.96 814.131L1572 816.546L1571.99 818.96L1571.95 821.374L1571.87 823.789L1571.75 826.203L1571.59 828.617L1571.39 831.031L1571.16 833.445L1570.88 835.859L1570.57 838.273L1570.22 840.687L1569.83 843.101L1569.4 845.514L1568.93 847.927L1568.43 850.34L1567.88 852.753L1567.3 855.166L1566.68 857.579L1566.02 859.991L1565.32 862.403L1564.58 864.814L1563.81 867.226L1563 869.637L1562.15 872.048L1561.26 874.458L1560.33 876.868L1559.37 879.278L1558.36 881.687L1557.32 884.096L1556.24 886.504L1555.13 888.913L1553.97 891.32L1552.78 893.727L1551.55 896.134L1550.28 898.54L1548.98 900.946L1547.64 903.351L1546.26 905.755L1544.84 908.159L1543.39 910.563L1541.9 912.965L1540.37 915.368L1538.8 917.769L1537.2 920.17L1535.56 922.57L1533.89 924.97L1532.17 927.368L1530.42 929.766L1528.64 932.163L1526.82 934.56L1524.96 936.955L1523.07 939.35L1521.14 941.744L1519.17 944.137L1517.17 946.529L1515.13 948.92L1513.06 951.311L1510.95 953.7L1508.8 956.089L1506.62 958.476L1504.41 960.862L1502.16 963.248L1499.87 965.632L1497.55 968.015L1495.2 970.397L1492.81 972.778L1490.39 975.158L1487.93 977.536L1485.44 979.914L1482.91 982.29L1480.35 984.664L1477.76 987.038L1475.13 989.41L1472.47 991.781L1469.77 994.15L1467.04 996.518L1464.28 998.885L1461.49 1001.25L1458.66 1003.61L1455.8 1005.98L1452.91 1008.34L1449.99 1010.7L1447.03 1013.05L1444.04 1015.41L1441.02 1017.76L1437.97 1020.11L1434.88 1022.47L1431.77 1024.81L1428.62 1027.16L1425.44 1029.51L1422.23 1031.85L1418.99 1034.19L1415.72 1036.53L1412.42 1038.87L1409.09 1041.2L1405.73 1043.54L1402.34 1045.87L1398.92 1048.2L1395.47 1050.52L1391.99 1052.85L1388.48 1055.17L1384.94 1057.49L1381.38 1059.81L1377.78 1062.13L1374.16 1064.44L1370.5 1066.75L1366.82 1069.06L1363.12 1071.36L1359.38 1073.67L1355.62 1075.97L1351.83 1078.27L1348.01 1080.56L1344.16 1082.85L1340.29 1085.14L1336.4 1087.43L1332.47 1089.72L1328.52 1092L1324.54 1094.28L1320.54 1096.55L1316.52 1098.82L1312.46 1101.09L1308.38 1103.36L1304.28 1105.62L1300.16 1107.88L1296 1110.14L1291.83 1112.39L1287.63 1114.64L1283.4 1116.89L1279.16 1119.13L1274.89 1121.37L1270.59 1123.61L1266.28 1125.84L1261.94 1128.07L1257.57 1130.29L1253.19 1132.51L1248.78 1134.73L1244.36 1136.94L1239.91 1139.15L1235.44 1141.36L1230.94 1143.56L1226.43 1145.76L1221.9 1147.95L1217.34 1150.14L1212.77 1152.32L1208.17 1154.5L1203.56 1156.68L1198.93 1158.85L1194.28 1161.02L1189.6 1163.18L1184.91 1165.34L1180.2 1167.49L1175.48 1169.64L1170.73 1171.78L1165.97 1173.92L1161.19 1176.06L1156.39 1178.18L1151.58 1180.31L1146.74 1182.43L1141.9 1184.54L1137.03 1186.65L1132.15 1188.75L1127.25 1190.85L1122.34 1192.94L1117.42 1195.03L1112.47 1197.11L1107.52 1199.18L1102.54 1201.25L1097.56 1203.31L1092.56 1205.37L1087.54 1207.42L1082.51 1209.47L1077.47 1211.51L1072.42 1213.54L1067.35 1215.57L1062.27 1217.59L1057.18 1219.61L1052.08 1221.61L1046.96 1223.62L1041.83 1225.61L1036.69 1227.6L1031.54 1229.58L1026.38 1231.56L1021.21 1233.53L1016.03 1235.49L1010.84 1237.44L1005.64 1239.39L1000.43 1241.33L995.208 1243.26L989.98 1245.19L984.742 1247.1L979.497 1249.01L974.242 1250.92L968.981 1252.81L963.711 1254.7L958.434 1256.58L953.15 1258.45L947.859 1260.32L942.561 1262.17L937.257 1264.02L931.947 1265.86L926.631 1267.69L921.31 1269.51L915.983 1271.33L910.651 1273.13L905.315 1274.93L899.974 1276.72L894.628 1278.5L889.279 1280.27L883.926 1282.03L878.569 1283.79L873.21 1285.53L867.847 1287.26L862.482 1288.99L857.114 1290.71L851.744 1292.41L846.372 1294.11L840.999 1295.8L835.624 1297.47L830.248 1299.14L824.871 1300.8L819.494 1302.45L814.116 1304.09L808.739 1305.71L803.361 1307.33L797.984 1308.94L792.607 1310.54L787.232 1312.12L781.858 1313.7L776.485 1315.26L771.114 1316.82L765.745 1318.36L760.378 1319.89L755.014 1321.41L749.652 1322.92L744.294 1324.42L738.939 1325.91L733.587 1327.39L728.239 1328.85L722.895 1330.31L717.556 1331.75L712.221 1333.18L706.891 1334.6L701.566 1336L696.246 1337.4L690.932 1338.78L685.623 1340.15L680.321 1341.5L675.025 1342.85L669.735 1344.18L664.453 1345.5L659.177 1346.81L653.909 1348.1L648.648 1349.38L643.395 1350.65L638.15 1351.91L632.913 1353.15L627.685 1354.38L622.466 1355.6L617.255 1356.8L612.054 1357.99L606.862 1359.16L601.68 1360.32L596.508 1361.47L591.347 1362.61L586.195 1363.73L581.055 1364.83L575.925 1365.92L570.806 1367L565.699 1368.06L560.603 1369.11L555.52 1370.15L550.448 1371.17L545.389 1372.17L540.342 1373.16L535.308 1374.14L530.286 1375.1L525.279 1376.04L520.284 1376.97L515.303 1377.89L510.337 1378.78L505.384 1379.67L500.445 1380.54L495.521 1381.39L490.612 1382.23L485.718 1383.05L480.839 1383.85L475.976 1384.64L471.127 1385.42L466.296 1386.17L461.479 1386.91L456.68 1387.64L451.896 1388.35L447.13 1389.04L442.38 1389.71L437.648 1390.37L432.932 1391.01L428.235 1391.64L423.554 1392.25L418.892 1392.84L414.248 1393.41L409.623 1393.97L405.016 1394.5L400.427 1395.03L395.857 1395.53L391.307 1396.02L386.776 1396.49L382.264 1396.94L377.772 1397.37L373.3 1397.79L368.848 1398.19L364.416 1398.57L360.005 1398.93L355.614 1399.27L351.244 1399.6L346.895 1399.9L342.567 1400.19L338.26 1400.46L333.975 1400.71L329.712 1400.94L325.47 1401.16L321.251 1401.35L317.053 1401.53L312.878 1401.69L308.726 1401.82L304.596 1401.94L300.489 1402.04L296.406 1402.12L292.345 1402.18L288.308 1402.23L284.294 1402.25L280.304 1402.25L276.338 1402.23L272.396 1402.2L268.477 1402.14L264.584 1402.06L260.714 1401.97L256.869 1401.85L253.049 1401.71L249.254 1401.56L245.484 1401.38L241.739 1401.18L238.02 1400.96L234.325 1400.73L230.657 1400.47L227.014 1400.19L223.397 1399.89L219.806 1399.57L216.241 1399.23L212.702 1398.87L209.19 1398.49L205.705 1398.08L202.246 1397.66L198.813 1397.21L195.408 1396.75L192.029 1396.26L188.678 1395.75L185.354 1395.22L182.057 1394.67L178.788 1394.1L175.547 1393.5L172.333 1392.89L169.146 1392.25L165.988 1391.6L162.858 1390.92L159.756 1390.21L156.682 1389.49L153.637 1388.75L150.619 1387.98L147.631 1387.19L144.671 1386.38L141.74 1385.55L138.837 1384.7L135.964 1383.82L133.119 1382.92L130.304 1382L127.517 1381.06L124.76 1380.1L122.033 1379.11L119.334 1378.1L116.665 1377.07L114.026 1376.02L111.416 1374.94L108.836 1373.85L106.286 1372.72L103.766 1371.58L101.276 1370.42L98.8151 1369.23L96.3848 1368.02L93.9846 1366.79L91.6146 1365.53L89.2748 1364.26L86.9653 1362.96L84.6862 1361.64L82.4374 1360.29L80.2191 1358.92L78.0315 1357.53L75.8743 1356.12L73.7477 1354.68L71.6519 1353.23L69.5867 1351.75L67.5523 1350.24L65.5486 1348.72L63.5758 1347.17L61.6339 1345.6L59.723 1344L57.8429 1342.38L55.9938 1340.74L54.1757 1339.08L52.3886 1337.4L50.6327 1335.69L48.9078 1333.96L47.2141 1332.2L45.5514 1330.43L43.92 1328.63L42.3197 1326.81L40.7507 1324.96L39.2129 1323.09L37.7062 1321.2L36.2308 1319.29L34.7867 1317.35L33.3739 1315.4L31.9923 1313.42L30.642 1311.41L29.3231 1309.38L28.0353 1307.34L26.7789 1305.26L25.5537 1303.17L24.3599 1301.05L23.1974 1298.91L22.0661 1296.75L20.9661 1294.57L19.8973 1292.36L18.8599 1290.13L17.8536 1287.88L16.8786 1285.6L15.9348 1283.31L15.0223 1280.99L14.1409 1278.65L13.2907 1276.28L12.4716 1273.9L11.6836 1271.49L10.9267 1269.06L10.2009 1266.6L9.50616 1264.13L8.84241 1261.63L8.20964 1259.11L7.60784 1256.57L7.03693 1254.01L6.4969 1251.42L5.98777 1248.82L5.50943 1246.19L5.06182 1243.54L4.64492 1240.87L4.25882 1238.17L3.90327 1235.46L3.57835 1232.72L3.28398 1229.96L3.02006 1227.18L2.78661 1224.38L2.58363 1221.56L2.41093 1218.72L2.26852 1215.85L2.15632 1212.96L2.0744 1210.06L2.02253 1207.13L2.00068 1204.18L2.00896 1201.21L2.04701 1198.22L2.11502 1195.21L2.21289 1192.18L2.34045 1189.12L2.49762 1186.05L2.68448 1182.96L2.90078 1179.84L3.1466 1176.71L3.42178 1173.55L3.7263 1170.38L4.06001 1167.19L4.4229 1163.97L4.8148 1160.74L5.23579 1157.48L5.68563 1154.21L6.16431 1150.92L6.67174 1147.6L7.20775 1144.27L7.77243 1140.92L8.36553 1137.55L8.98704 1134.16L9.63688 1130.75L10.3149 1127.32L11.021 1123.88L11.7553 1120.41L12.5173 1116.93L13.3072 1113.43L14.1249 1109.91L14.9701 1106.37L15.843 1102.81L16.7432 1099.24L17.6708 1095.64L18.6256 1092.03L19.6075 1088.4L20.6165 1084.76L21.6523 1081.09L22.7149 1077.41L23.8042 1073.71L24.9201 1070L26.0624 1066.27L27.2312 1062.52L28.4261 1058.75L29.6472 1054.97L30.8943 1051.17L32.1673 1047.35L33.466 1043.52L34.7905 1039.67L36.1404 1035.81L37.5158 1031.93L38.9165 1028.03L40.3422 1024.12L41.7931 1020.19L43.2689 1016.25L44.7695 1012.29L46.2948 1008.32L47.8446 1004.33L49.4188 1000.33L51.0174 996.316L52.64 992.285L54.2867 988.239L55.9573 984.179L57.6516 980.105L59.3696 976.018L61.111 971.916L62.8759 967.801L64.664 963.673L66.4751 959.531L68.3092 955.376L70.166 951.208L72.0457 947.027L73.9477 942.834L75.8722 938.628L77.8189 934.41L79.7877 930.18L81.7786 925.937L83.7912 921.683L85.8255 917.417L87.8814 913.14L89.9585 908.851L92.057 904.551L94.1766 900.239L96.3171 895.917L98.4784 891.585L100.66 887.242L102.863 882.888L105.086 878.525L107.329 874.151L109.592 869.768L111.875 865.374L114.177 860.972L116.5 856.56L118.841 852.139L121.202 847.709L123.583 843.271L125.982 838.824L128.4 834.368L130.836 829.904L133.292 825.433L135.765 820.953L138.257 816.466L140.767 811.971L143.294 807.47L145.84 802.961L148.403 798.445L150.983 793.922L153.581 789.393L156.195 784.858L158.827 780.317L161.475 775.77L164.14 771.217L166.822 766.658L169.52 762.094L172.233 757.525L174.963 752.952L177.709 748.373L180.47 743.79L183.247 739.202L186.039 734.611L188.846 730.015L191.669 725.416L194.506 720.814L197.357 716.208L200.224 711.598L203.104 706.986L205.999 702.372L208.908 697.755L211.831 693.135L214.767 688.514L217.717 683.89L220.68 679.265L223.656 674.639L226.646 670.011L229.648 665.382L232.663 660.753L235.69 656.123L238.73 651.492L241.782 646.862L244.846 642.231L247.922 637.601L251.01 632.971L254.109 628.341L257.219 623.713L260.341 619.086L263.474 614.46L266.618 609.836L269.772 605.214L272.937 600.593L276.112 595.975L279.298 591.359L282.493 586.746L285.699 582.135L288.914 577.528L292.139 572.924L295.373 568.324L298.617 563.727L301.869 559.134L305.13 554.545L308.401 549.961L311.679 545.382L314.966 540.807L318.262 536.237L321.565 531.673L324.877 527.114L328.196 522.561L331.523 518.014L334.857 513.473L338.199 508.939L341.547 504.411L344.903 499.89L348.265 495.376L351.635 490.87L355.01 486.37L358.392 481.879L361.78 477.396L365.174 472.921L368.574 468.454L371.98 463.996L375.391 459.546L378.808 455.106L382.229 450.676L385.656 446.254L389.088 441.843L392.524 437.441L395.965 433.05L399.411 428.669L402.861 424.299L406.315 419.939L409.773 415.591L413.234 411.254L416.7 406.929L420.169 402.615L423.641 398.314L427.117 394.024L430.595 389.748L434.077 385.483L437.561 381.232L441.048 376.994L444.537 372.769L448.029 368.557L451.523 364.36L455.019 360.176L458.517 356.007L462.016 351.852L465.517 347.711L469.02 343.586L472.524 339.476L476.029 335.381L479.535 331.301L483.042 327.237L486.549 323.189L490.058 319.158L493.566 315.142L497.075 311.144L500.584 307.162L504.094 303.197L507.603 299.25L511.112 295.319L514.62 291.407L518.128 287.512L521.635 283.636L525.142 279.778L528.647 275.938L532.152 272.118L535.655 268.316L539.157 264.533L542.658 260.769L546.157 257.026L549.654 253.302L553.15 249.597L556.643 245.914L560.134 242.25L563.624 238.607L567.11 234.985L570.595 231.384L574.076 227.804L577.556 224.246L581.032 220.709L584.505 217.194L587.975 213.701L591.442 210.23L594.905 206.782L598.366 203.356L601.822 199.953L605.275 196.573L608.724 193.216L612.169 189.882L615.61 186.572L619.047 183.286L622.48 180.024L625.908 176.786L629.332 173.572L632.751 170.383L636.166 167.218L639.575 164.079L642.98 160.964L646.38 157.875L649.774 154.811L653.163 151.773L656.547 148.76L659.926 145.774L663.299 142.813L666.666 139.879L670.027 136.972L673.383 134.091L676.732 131.237L680.076 128.41L683.413 125.61L686.744 122.838L690.069 120.093L693.387 117.376L696.698 114.686L700.003 112.025L703.302 109.392L706.593 106.787L709.877 104.211L713.155 101.663L716.425 99.1448L719.688 96.6551L722.944 94.1946L726.192 91.7634L729.433 89.3616L732.666 86.9894L735.892 84.647L739.11 82.3345L742.32 80.0521L745.522 77.8L748.716 75.5781L751.902 73.3867L755.08 71.226L758.25 69.0961L761.411 66.9971L764.565 64.9291L767.709 62.8924L770.845 60.887L773.973 58.913L777.091 56.9707L780.202 55.0601L783.303 53.1813L786.395 51.3345L789.479 49.5199L792.553 47.7374L795.618 45.9874L798.674 44.2698L801.721 42.5848L804.758 40.9327L807.786 39.3132L810.805 37.7268L813.814 36.1734L816.814 34.6532L819.804 33.1663L822.784 31.7128L825.754 30.2929L828.715 28.9065L831.666 27.5538L834.607 26.235L837.538 24.9501L840.458 23.6992L843.369 22.4825L846.27 21.2999L849.16 20.1518L852.04 19.038L854.91 17.9587L857.77 16.9139L860.619 15.9039L863.457 14.9286L866.285 13.9881L869.103 13.0826L871.91 12.2121L874.706 11.3767L877.492 10.5764L880.266 9.81138L883.03 9.08166L885.783 8.38732L888.526 7.72847L891.257 7.10508L893.978 6.51726L896.687 5.96517L899.385 5.44873L902.073 4.9681L904.749 4.52338L907.414 4.11447L910.068 3.74146L912.711 3.40453L915.342 3.10367L917.962 2.83888L920.571 2.61016L923.168 2.41778L925.755 2.26155L928.329 2.14165L930.892 2.05807L933.444 2.01083L935.984 2L938.513 2.02567L941.03 2.08775L943.536 2.18633L946.03 2.3215L948.512 2.49316L950.983 2.70141L953.442 2.94633L955.889 3.22783L958.324 3.54601L960.748 3.90076L963.16 4.29227L965.561 4.72054L967.949 5.18547L970.326 5.68708L972.69 6.22544L975.043 6.80056L977.384 7.41242L979.713 8.06105L982.03 8.74634L984.336 9.46839L986.629 10.2273L988.91 11.0228L991.18 11.8551L993.437 12.7241L995.683 13.6298L997.916 14.5722L1000.14 15.5513L1002.35 16.567L1004.54 17.6194L1006.73 18.7084L1008.9 19.834L1011.06 20.9962L1013.21 22.1949L1015.35 23.4302L1017.48 24.7019L1019.59 26.0101L1021.69 27.3548L1023.78 28.7358L1025.85 30.1531L1027.92 31.6068L1029.97 33.0967L1032.01 34.6228L1034.04 36.1852L1036.06 37.7837L1038.06 39.4182L1040.05 41.0888L1042.03 42.7953L1044 44.5378L1045.95 46.3161L1047.9 48.1302L1049.83 49.9801L1051.75 51.8656L1053.66 53.7867L1055.55 55.7433L1057.43 57.7355L1059.31 59.763L1061.16 61.8259L1063.01 63.9239L1064.85 66.0573L1066.67 68.2256L1068.48 70.429L1070.28 72.6673L1072.06 74.9405L1073.84 77.2485L1075.6 79.5911L1077.35 81.9683L1079.09 84.3799L1080.82 86.826L1082.53 89.3064L1084.23 91.8209L1085.93 94.3696L1087.6 96.9522L1089.27 99.5687L1090.93 102.219L1092.57 104.903L1094.2 107.621L1095.82 110.372L1097.43 113.156L1099.02 115.974L1100.6 118.824L1102.18 121.708L1103.74 124.625L1105.28 127.574L1106.82 130.556L1108.34 133.571L1109.86 136.618L1111.36 139.697L1112.85 142.808L1114.33 145.951L1115.79 149.126L1117.25 152.333L1118.69 155.572L1120.12 158.841L1121.54 162.143L1122.95 165.475L1124.34 168.838L1125.73 172.232L1127.1 175.657L1128.46 179.113L1129.81 182.598L1131.15 186.114L1132.47 189.661L1133.79 193.237L1135.09 196.843L1136.39 200.478L1137.67 204.143L1138.94 207.837L1140.19 211.561L1141.44 215.313L1142.68 219.094L1143.9 222.904L1145.11 226.742L1146.32 230.609L1147.51 234.504L1148.69 238.426L1149.85 242.377L1151.01 246.354L1152.16 250.36L1153.29 254.392L1154.41 258.452L1155.52 262.538L1156.63 266.651L1157.72 270.791L1158.79 274.956L1159.86 279.148L1160.92 283.366L1161.96 287.609L1163 291.878L1164.02 296.172L1165.04 300.492L1166.04 304.836L1167.03 309.205L1168.01 313.598L1168.98 318.016L1169.94 322.457L1170.88 326.923L1171.82 331.412L1172.75 335.925L1173.66 340.461L1174.57 345.02L1175.46 349.602L1176.34 354.206L1177.22 358.833L1178.08 363.482L1178.93 368.153L1179.77 372.846L1180.6 377.56L1181.42 382.295L1182.23 387.052L1183.03 391.829L1183.81 396.627L1184.59 401.446L1185.36 406.284L1186.11 411.143L1186.86 416.021L1187.6 420.918L1188.32 425.835L1189.03 430.771L1189.74 435.725L1190.43 440.698L1191.12 445.69L1191.79 450.699L1192.45 455.726L1193.11 460.771L1193.75 465.833L1194.38 470.912L1195 476.008L1195.61 481.121L1196.21 486.25L1196.81 491.395L1197.39 496.556L1197.96 501.732L1198.52 506.924L1199.07 512.131L1199.61 517.353L1200.14 522.589L1200.66 527.84L1201.17 533.105L1201.67 538.383L1202.16 543.676L1202.64 548.981L1203.11 554.3L1203.57 559.631L1204.02 564.976L1204.46 570.332L1204.89 575.7L1205.31 581.08L1205.72 586.472L1206.12 591.875L1206.52 597.289L1206.9 602.714L1207.27 608.149L1207.63 613.594L1207.98 619.05L1208.32 624.515L1208.65 629.989L1208.97 635.473L1209.28 640.965L1209.59 646.466L1209.88 651.975L1210.16 657.493L1210.43 663.018L1210.7 668.551L1210.95 674.091L1211.19 679.638L1211.43 685.192L1211.65 690.752L1211.86 696.319L1212.07 701.891L1212.26 707.469L1212.45 713.053L1212.62 718.641L1212.79 724.234L1212.94 729.832L1213.09 735.434L1213.23 741.041L1213.35 746.651L1213.47 752.264L1213.58 757.881L1213.67 763.5L1213.76 769.122L1213.84 774.746L1213.91 780.373L1213.97 786.001L1214.02 791.631L1214.06 797.263L1214.09 802.895L1214.11 808.528L1214.12 814.161L1214.12 819.794L1214.11 825.428L1214.09 831.061L1214.06 836.693L1214.03 842.324L1213.98 847.955L1213.92 853.583L1213.85 859.21L1213.78 864.835L1213.69 870.458L1213.6 876.078L1213.49 881.695L1213.38 887.309L1213.25 892.919L1213.12 898.526L1212.97 904.129L1212.82 909.728L1212.65 915.322L1212.48 920.911L1212.3 926.496L1212.11 932.075L1211.9 937.648L1211.69 943.216L1211.47 948.777L1211.24 954.332L1211 959.881L1210.74 965.422L1210.48 970.956L1210.21 976.483L1209.93 982.002L1209.64 987.513L1209.34 993.015L1209.03 998.509L1208.71 1003.99L1208.38 1009.47L1208.04 1014.94L1207.69 1020.39L1207.33 1025.84L1206.97 1031.28L1206.59 1036.71L1206.2 1042.12L1205.8 1047.53L1205.39 1052.92L1204.97 1058.3L1204.54 1063.67L1204.1 1069.03L1203.66 1074.38L1203.2 1079.71L1202.73 1085.03L1202.25 1090.34L1201.76 1095.64L1201.26 1100.92L1200.76 1106.18L1200.24 1111.44L1199.71 1116.68L1199.17 1121.9L1198.62 1127.11L1198.06 1132.31L1197.49 1137.49L1196.91 1142.65L1196.32 1147.8L1195.73 1152.93L1195.12 1158.04L1194.5 1163.14L1193.87 1168.23L1193.22 1173.29L1192.57 1178.34L1191.91 1183.37L1191.24 1188.38L1190.56 1193.38L1189.87 1198.35L1189.17 1203.31L1188.45 1208.25L1187.73 1213.17L1187 1218.07L1186.25 1222.95L1185.5 1227.82L1184.73 1232.66L1183.96 1237.48L1183.17 1242.28L1182.38 1247.06L1181.57 1251.82L1180.75 1256.56L1179.92 1261.28L1179.09 1265.98L1178.24 1270.65L1177.38 1275.31L1176.51 1279.94L1175.62 1284.55L1174.73 1289.13L1173.83 1293.7L1172.92 1298.24L1171.99 1302.75L1171.06 1307.25L1170.11 1311.72L1169.16 1316.16L1168.19 1320.58L1167.21 1324.98L1166.22 1329.36L1165.22 1333.7L1164.21 1338.03L1163.19 1342.33L1162.16 1346.6L1161.11 1350.85L1160.06 1355.07L1158.99 1359.27L1157.92 1363.44L1156.83 1367.58L1155.73 1371.7L1154.62 1375.79L1153.5 1379.86L1152.37 1383.89L1151.22 1387.9L1150.07 1391.89L1148.9 1395.84L1147.73 1399.77L1146.54 1403.67L1145.34 1407.54L1144.13 1411.39L1142.9 1415.2L1141.67 1418.99L1140.43 1422.75L1139.17 1426.47L1137.9 1430.17L1136.62 1433.84L1135.33 1437.49L1134.03 1441.1L1132.72 1444.68L1131.39 1448.23L1130.06 1451.75L1128.71 1455.24L1127.35 1458.7L1125.98 1462.13L1124.6 1465.53L1123.21 1468.9L1121.8 1472.24L1120.38 1475.55L1118.95 1478.82L1117.51 1482.07L1116.06 1485.28L1114.6 1488.46L1113.12 1491.61L1111.64 1494.73L1110.14 1497.81L1108.63 1500.87L1107.1 1503.89L1105.57 1506.87L1104.02 1509.83L1102.47 1512.75L1100.9 1515.64L1099.32 1518.5L1097.72 1521.32L1096.12 1524.11L1094.5 1526.87L1092.87 1529.59L1091.23 1532.29L1089.58 1534.94L1087.91 1537.56L1086.24 1540.15L1084.55 1542.71L1082.85 1545.23L1081.14 1547.72L1079.41 1550.17L1077.68 1552.59L1075.93 1554.97L1074.17 1557.32L1072.39 1559.63L1070.61 1561.91L1068.81 1564.16L1067.01 1566.37L1065.18 1568.54L1063.35 1570.68L1061.51 1572.79L1059.65 1574.86L1057.78 1576.89L1055.9 1578.89L1054.01 1580.85L1052.1 1582.78L1050.19 1584.67L1048.26 1586.53L1046.32 1588.35L1044.36 1590.13L1042.4 1591.88L1040.42 1593.6L1038.43 1595.27L1036.43 1596.92L1034.41 1598.52L1032.39 1600.09L1030.35 1601.62L1028.3 1603.12L1026.24 1604.58L1024.16 1606L1022.08 1607.39L1019.98 1608.74L1017.87 1610.06L1015.74 1611.34L1013.61 1612.58L1011.46 1613.78L1009.3 1614.95L1007.13 1616.08L1004.95 1617.18L1002.75 1618.24L1000.55 1619.26L998.329 1620.25L996.097 1621.2L993.854 1622.11L991.599 1622.99L989.332 1623.82L987.053 1624.63L984.762 1625.39L982.458 1626.12L980.144 1626.81L977.817 1627.47L975.478 1628.09L973.127 1628.67L970.765 1629.22L968.39 1629.72L966.004 1630.2L963.606 1630.63L961.196 1631.03L958.774 1631.39L956.341 1631.71L953.896 1632L951.439 1632.25L948.971 1632.47L946.491 1632.65L943.999 1632.79L941.495 1632.9L938.98 1632.96L936.454 1633L933.916 1632.99L931.366 1632.95L928.805 1632.88L926.232 1632.76L923.649 1632.61L921.053 1632.43L918.446 1632.21L915.829 1631.95L913.199 1631.65L910.559 1631.32L907.907 1630.96L905.244 1630.55L902.57 1630.12L899.884 1629.64L897.188 1629.13L894.48 1628.59L891.762 1628.01L889.033 1627.39L886.292 1626.74L883.541 1626.05L880.779 1625.33L878.007 1624.57L875.223 1623.77L872.429 1622.94L869.624 1622.08L866.808 1621.18L863.982 1620.25L861.145 1619.28L858.298 1618.27L855.441 1617.24L852.573 1616.16L849.695 1615.06L846.806 1613.91L843.907 1612.74L840.999 1611.53L838.08 1610.28L835.151 1609L832.212 1607.69L829.263 1606.35L826.304 1604.97L823.335 1603.55L820.357 1602.1L817.369 1600.62L814.371 1599.11L811.363 1597.56L808.346 1595.98L805.32 1594.37L802.284 1592.72L799.239 1591.04L796.185 1589.33L793.122 1587.59L790.049 1585.81L786.967 1584L783.877 1582.16L780.777 1580.29L777.668 1578.38L774.551 1576.45L771.426 1574.48L768.291 1572.48L765.148 1570.45L761.996 1568.39L758.836 1566.29L755.668 1564.17L752.492 1562.02L749.307 1559.83L746.114 1557.61L742.914 1555.37L739.705 1553.09L736.489 1550.78L733.264 1548.45L730.033 1546.08L726.793 1543.68L723.546 1541.26L720.292 1538.8L717.03 1536.32L713.761 1533.8L710.485 1531.26L707.202 1528.69L703.912 1526.09L700.615 1523.46L697.311 1520.81L694.001 1518.12L690.684 1515.41L687.361 1512.67L684.031 1509.9L680.695 1507.11L677.352 1504.29L674.004 1501.44L670.649 1498.56L667.289 1495.66L663.923 1492.73L660.551 1489.78L657.174 1486.79L653.791 1483.79L650.403 1480.75L647.009 1477.69L643.61 1474.61L640.207 1471.5L636.798 1468.36L633.384 1465.2L629.966 1462.02L626.543 1458.81L623.116 1455.58L619.684 1452.32L616.248 1449.04L612.807 1445.73L609.363 1442.4L605.914 1439.05L602.462 1435.67L599.006 1432.28L595.547 1428.85L592.084 1425.41L588.618 1421.94L585.148 1418.45L581.676 1414.94L578.2 1411.41L574.722 1407.86L571.24 1404.28L567.756 1400.68L564.27 1397.06L560.781 1393.43L557.29 1389.77L553.797 1386.09L550.302 1382.39L546.805 1378.67L543.306 1374.92L539.806 1371.17L536.304 1367.39L532.801 1363.59L529.297 1359.77L525.792 1355.93L522.285 1352.08L518.778 1348.21L515.27 1344.32L511.762 1340.41L508.253 1336.48L504.744 1332.53L501.235 1328.57L497.725 1324.59L494.217 1320.6L490.708 1316.59L487.199 1312.56L483.692 1308.51L480.185 1304.45L476.678 1300.38L473.173 1296.28L469.669 1292.18L466.166 1288.05L462.665 1283.92L459.165 1279.76L455.667 1275.6L452.171 1271.42L448.676 1267.22L445.184 1263.01L441.694 1258.79L438.207 1254.55L434.722 1250.3L431.24 1246.04L427.761 1241.77L424.285 1237.48L420.812 1233.18L417.342 1228.87L413.876 1224.55L410.414 1220.21L406.955 1215.87L403.5 1211.51L400.05 1207.14L396.604 1202.76L393.162 1198.37L389.724 1193.97L386.292 1189.56L382.864 1185.14L379.441 1180.71L376.024 1176.28L372.612 1171.83L369.205 1167.37L365.804 1162.91L362.409 1158.43L359.019 1153.95L355.636 1149.46L352.26 1144.96L348.889 1140.46L345.526 1135.95L342.169 1131.43L338.819 1126.9L335.476 1122.37L332.14 1117.83L328.812 1113.28L325.491 1108.73L322.178 1104.17L318.873 1099.61L315.577 1095.04L312.288 1090.47L309.008 1085.89L305.736 1081.3L302.473 1076.72L299.219 1072.12L295.974 1067.53L292.738 1062.93L289.511 1058.32L286.294 1053.72L283.087 1049.11L279.889 1044.5L276.702 1039.88L273.525 1035.26L270.358 1030.64L267.201 1026.02L264.056 1021.4L260.921 1016.77L257.797 1012.14L254.684 1007.52L251.583 1002.89L248.493 998.256L245.415 993.626L242.349 988.996L239.295 984.365L236.253 979.734L233.223 975.104L230.206 970.474L227.201 965.846L224.209 961.218L221.23 956.591L218.265 951.966L215.312 947.342L212.374 942.72L209.448 938.1L206.537 933.483L203.64 928.867L200.757 924.255L197.888 919.645L195.033 915.039L192.193 910.436L189.368 905.836L186.558 901.239L183.763 896.647L180.984 892.059L178.22 887.475L175.471 882.896L172.738 878.321L170.021 873.751L167.32 869.186L164.636 864.627L161.968 860.073L159.316 855.525L156.682 850.982L154.064 846.446L151.463 841.916L148.879 837.392L146.313 832.875L143.765 828.364L141.234 823.861L138.721 819.365L136.225 814.877L133.749 810.396L131.29 805.923L128.85 801.458L126.428 797L124.026 792.552L121.642 788.112L119.278 783.68L116.932 779.257L114.606 774.844L112.3 770.44L110.013 766.045L107.746 761.66L105.5 757.284L103.273 752.919L101.067 748.563L98.8812 744.218L96.716 739.884L94.5716 735.56L92.4482 731.247L90.3458 726.945L88.2646 722.654L86.2048 718.374L84.1665 714.106L82.1499 709.849L80.155 705.605L78.1821 701.372L76.2313 697.152L74.3027 692.943L72.3964 688.748L70.5126 684.565L68.6516 680.394L66.8132 676.237L64.9979 672.093L63.2055 667.962L61.4364 663.844L59.6905 659.74L57.9682 655.65L56.2695 651.574L54.5945 647.511L52.9433 643.463L51.3162 639.429L49.7132 635.41L48.1345 631.405L46.5801 627.415L45.0503 623.44L43.5452 619.479L42.0647 615.534L40.6092 611.605L39.1787 607.69L37.7734 603.792L36.3934 599.909L35.0387 596.042L33.7096 592.191L32.406 588.356L31.1283 584.537L29.8764 580.735L28.6504 576.949L27.4507 573.179L26.277 569.427L25.1298 565.691L24.009 561.973L22.9148 558.271L21.8472 554.587L20.8064 550.92L19.7925 547.27L18.8055 543.638L17.8457 540.024L16.9131 536.428L16.0077 532.85L15.1298 529.289L14.2794 525.747L13.4566 522.223L12.6616 518.717L11.8943 515.23L11.155 511.762L10.4436 508.312L9.76043 504.881L9.1053 501.469L8.47859 498.076L7.8802 494.702L7.31023 491.347L6.76884 488.011L6.25612 484.695L5.77215 481.398L5.31694 478.121L4.89065 474.863L4.49329 471.626L4.12503 468.408L3.78595 465.209L3.47596 462.031L3.19541 458.873L2.94413 455.735L2.72228 452.618L2.53004 449.521L2.36733 446.444L2.2343 443.387L2.13097 440.351L2.05742 437.336L2.01374 434.342L2 431.368L2.01621 428.415L2.06246 425.483L2.13891 422.572L2.24548 419.682L2.38226 416.813L2.54932 413.966L2.74668 411.139L2.9745 408.334L3.23278 405.55L3.52144 402.788L3.84072 400.047L4.19056 397.328L4.57111 394.63L4.98221 391.954L5.42411 389.3L5.89681 386.667L6.40023 384.057L6.93454 381.468L7.49965 378.901L8.09573 376.356L8.72279 373.833L9.38082 371.331L10.0698 368.852L10.7899 366.396L11.541 363.961L12.3232 361.548L13.1365 359.158L13.981 356.79L14.8566 354.444L15.7634 352.121L16.7014 349.82L17.6706 347.541L18.671 345.285L19.7027 343.051L20.7657 340.84L21.8599 338.651L22.9854 336.485L24.1421 334.341L25.3302 332.22L26.5495 330.121L27.8001 328.046L29.082 325.992L30.3953 323.962L31.7397 321.954L33.1155 319.968L34.5225 318.006L35.9609 316.066L37.4304 314.149L38.9313 312.254L40.4633 310.383L42.0266 308.534L43.6211 306.707L45.2468 304.904L46.9036 303.123L48.5916 301.365L50.3107 299.63L52.0609 297.918L53.8423 296.228L55.6546 294.561L57.4978 292.917L59.3722 291.296L61.2775 289.697L63.2137 288.121L65.1807 286.568L67.1786 285.038L69.2074 283.53L71.2668 282.045L73.357 280.583L75.4779 279.143L77.6294 277.726L79.8115 276.332L82.024 274.96L84.2672 273.611L86.5406 272.285L88.8445 270.981L91.1787 269.7L93.5431 268.441L95.9378 267.205L98.3626 265.991L100.817 264.799L103.302 263.631L105.817 262.484L108.362 261.36L110.936 260.258L113.54 259.179L116.174 258.122L118.837 257.087L121.53 256.074L124.253 255.084L127.004 254.116L129.785 253.17L132.595 252.246L135.434 251.344L138.303 250.464L141.2 249.606L144.126 248.77L147.08 247.956L150.064 247.164L153.075 246.393L156.116 245.644L159.184 244.917L162.281 244.212L165.406 243.528L168.559 242.866L171.74 242.226L174.949 241.607L178.185 241.009L181.449 240.433L184.741 239.878L188.06 239.344L191.406 238.832L194.78 238.341L198.18 237.871L201.607 237.422L205.062 236.993L208.542 236.586L212.05 236.2L215.583 235.835L219.143 235.49L222.73 235.166L226.342 234.863L229.98 234.581L233.644 234.318L237.333 234.077L241.048 233.856L244.788 233.655L248.554 233.474L252.344 233.314L256.16 233.174L260 233.053L263.865 232.953L267.754 232.873L271.668 232.813L275.605 232.772L279.567 232.751L283.553 232.75L287.562 232.768L291.595 232.806L295.651 232.864L299.731 232.941L303.834 233.037L307.959 233.152L312.107 233.286L316.278 233.44L320.471 233.612L324.687 233.804L328.924 234.014L333.183 234.243L337.465 234.491L341.767 234.757L346.091 235.042L350.436 235.346L354.802 235.667L359.189 236.007L363.597 236.366L368.025 236.742L372.473 237.137L376.942 237.549L381.43 237.979L385.938 238.427L390.466 238.893L395.013 239.377L399.579 239.878L404.164 240.396L408.768 240.932L413.39 241.485L418.03 242.056L422.689 242.643L427.366 243.248L432.06 243.869L436.772 244.508L441.502 245.163L446.248 245.835L451.012 246.523L455.792 247.228L460.589 247.95L465.402 248.688L470.231 249.442L475.076 250.212L479.937 250.998L484.813 251.801L489.704 252.619L494.61 253.453L499.532 254.303L504.468 255.168L509.418 256.049L514.382 256.946L519.36 257.858L524.352 258.785L529.358 259.727L534.376 260.684L539.408 261.657L544.452 262.644L549.51 263.646L554.579 264.663L559.661 265.694L564.754 266.74L569.859 267.8L574.975 268.875L580.103 269.964L585.242 271.067L590.391 272.185L595.551 273.316L600.721 274.461L605.901 275.62L611.091 276.793L616.291 277.979L621.499 279.179L626.717 280.393L631.944 281.619L637.179 282.859L642.422 284.112L647.674 285.378L652.933 286.657L658.2 287.949L663.474 289.254L668.756 290.572L674.044 291.902L679.339 293.244L684.64 294.6L689.948 295.967L695.261 297.346L700.579 298.738L705.904 300.142L711.233 301.558L716.567 302.986L721.906 304.425L727.249 305.876L732.596 307.339L737.947 308.813L743.301 310.299L748.659 311.796L754.02 313.304L759.384 314.823L764.75 316.354L770.119 317.895L775.489 319.448L780.862 321.011L786.236 322.584L791.611 324.169L796.987 325.764L802.364 327.369L807.742 328.985L813.12 330.611L818.498 332.247L823.875 333.893L829.252 335.549L834.628 337.215L840.003 338.891L845.377 340.577L850.749 342.272L856.119 343.977L861.487 345.691L866.853 347.415L872.216 349.148L877.577 350.89L882.934 352.642L888.287 354.402L893.637 356.171L898.984 357.949L904.325 359.737L909.663 361.532L914.996 363.337L920.323 365.15L925.646 366.971L930.963 368.801L936.274 370.639L941.579 372.485L946.878 374.339L952.17 376.202L957.455 378.072L962.734 379.95L968.005 381.836L973.268 383.73L978.524 385.632L983.771 387.541L989.01 389.457L994.24 391.381L999.462 393.313L1004.67 395.251L1009.88 397.197L1015.07 399.15L1020.25 401.11L1025.43 403.077L1030.59 405.051L1035.74 407.031L1040.88 409.018L1046.01 411.012L1051.13 413.013L1056.23 415.02L1061.33 417.034L1066.41 419.053L1071.48 421.08L1076.54 423.112L1081.58 425.151L1086.61 427.195L1091.63 429.246L1096.63 431.302L1101.62 433.365L1106.59 435.433L1111.56 437.507L1116.5 439.587L1121.43 441.672L1126.35 443.763L1131.25 445.859L1136.13 447.961L1141 450.068L1145.85 452.18L1150.68 454.298L1155.5 456.421L1160.3 458.548L1165.09 460.681L1169.85 462.819L1174.6 464.961L1179.33 467.109L1184.04 469.261L1188.74 471.418L1193.41 473.579L1198.07 475.745L1202.7 477.916L1207.32 480.091L1211.92 482.271L1216.5 484.455L1221.05 486.643L1225.59 488.835L1230.11 491.032L1234.6 493.232L1239.08 495.437L1243.53 497.646L1247.96 499.858L1252.37 502.075L1256.76 504.295L1261.13 506.519L1265.47 508.747L1269.79 510.979L1274.09 513.214L1278.37 515.453L1282.62 517.696L1286.85 519.941L1291.05 522.191L1295.23 524.443L1299.39 526.699L1303.52 528.959L1307.63 531.221L1311.71 533.487L1315.77 535.756L1319.8 538.027L1323.8 540.302L1327.79 542.58L1331.74 544.861L1335.67 547.145L1339.57 549.431L1343.45 551.721L1347.3 554.013L1351.12 556.308L1354.92 558.606L1358.69 560.906L1362.43 563.209L1366.14 565.514L1369.83 567.822L1373.48 570.132L1377.11 572.445L1380.71 574.76L1384.28 577.078L1387.83 579.398L1391.34 581.72L1394.83 584.045L1398.28 586.371L1401.71 588.7L1405.11 591.031L1408.47 593.364L1411.81 595.699L1415.11 598.036L1418.39 600.375L1421.64 602.716L1424.85 605.059L1428.03 607.404L1431.19 609.75L1434.31 612.099L1437.4 614.449L1440.46 616.801L1443.48 619.155L1446.48 621.51L1449.44 623.867L1452.37 626.226L1455.27 628.586L1458.13 630.948L1460.97 633.311L1463.77 635.676L1466.53 638.042L1469.27 640.41L1471.97 642.779L1474.64 645.15L1477.27 647.522L1479.87 649.895L1482.44 652.269L1484.97 654.645L1487.47 657.022L1489.93 659.4L1492.36 661.78L1494.76 664.161L1497.12 666.542L1499.45 668.926L1501.74 671.31L1503.99 673.695L1506.22 676.081L1508.4 678.468L1510.55 680.856L1512.67 683.245L1514.75 685.636L1516.79 688.027L1518.8 690.419L1520.77 692.811L1522.71 695.205L1524.61 697.6L1526.48 699.996L1528.3 702.392L1530.1 704.789L1531.85 707.186L1533.57 709.585L1535.25 711.984L1536.9 714.384L1538.51 716.785L1540.08 719.186L1541.62 721.588L1543.11 723.991L1544.57 726.394L1546 728.798L1547.38 731.203L1548.73 733.608L1550.05 736.013L1551.32 738.419L1552.56 740.826L1553.76 743.233L1554.92 745.64L1556.04 748.048L1557.13 750.457L1558.17 752.866L1559.18 755.275L1560.16 757.685L1561.09 760.095L1561.99 762.505L1562.84 764.915L1563.66 767.327L1564.44 769.738L1565.19 772.15L1565.89 774.561L1566.56 776.974L1567.19 779.386L1567.78 781.799L1568.33 784.211L1568.84 786.624L1569.32 789.038L1569.75 791.451L1570.15 793.865L1570.51 796.278L1570.83 798.692L1571.11 801.106L1571.35 803.52L1571.56 805.935L1571.72 808.349L1571.85 810.763L1571.94 813.177L1571.99 815.592L1572 818.006L1571.97 820.421L1571.91 822.835L1571.8 825.249L1571.66 827.663L1571.48 830.078L1571.25 832.492L1571 834.906L1570.7 837.32L1570.36 839.733L1569.99 842.147L1569.57 844.56L1569.12 846.974L1568.63 849.387L1568.1 851.8L1567.53 854.213L1566.93 856.625L1566.28 859.038L1565.6 861.45L1564.88 863.862L1564.12 866.273L1563.32 868.684L1562.49 871.095L1561.61 873.506L1560.7 875.916L1559.75 878.326L1558.76 880.735L1557.74 883.144L1556.67 885.553L1555.57 887.961L1554.43 890.369L1553.26 892.776L1552.04 895.183L1550.79 897.589L1549.5 899.995L1548.17 902.401L1546.81 904.805L1545.41 907.21L1543.97 909.613L1542.49 912.016L1540.98 914.419L1539.43 916.82L1537.84 919.221L1536.21 921.622L1534.55 924.022L1532.85 926.421L1531.12 928.819L1529.35 931.216L1527.54 933.613L1525.7 936.009L1523.82 938.404L1521.9 940.798L1519.95 943.192L1517.96 945.584L1515.94 947.976L1513.88 950.367L1511.78 952.756L1509.65 955.145L1507.49 957.533L1505.29 959.92L1503.05 962.305L1500.78 964.69L1498.47 967.074L1496.13 969.456L1493.76 971.837L1491.35 974.218L1488.9 976.597L1486.42 978.974L1483.91 981.351L1481.37 983.726L1478.78 986.1L1476.17 988.473L1473.52 990.844L1470.84 993.214L1468.13 995.583L1465.38 997.95L1462.6 1000.32L1459.78 1002.68L1456.94 1005.04L1454.06 1007.4L1451.15 1009.76L1448.2 1012.12L1445.22 1014.48L1442.22 1016.83L1439.18 1019.19L1436.11 1021.54L1433 1023.89L1429.87 1026.23L1426.7 1028.58L1423.51 1030.92L1420.28 1033.27L1417.02 1035.61L1413.73 1037.94L1410.41 1040.28L1407.06 1042.61L1403.68 1044.95L1400.27 1047.28L1396.84 1049.6L1393.37 1051.93L1389.87 1054.25L1386.34 1056.57L1382.79 1058.89L1379.2 1061.21L1375.59 1063.52L1371.95 1065.84L1368.28 1068.15L1364.58 1070.45L1360.86 1072.76L1357.11 1075.06L1353.33 1077.36L1349.52 1079.65L1345.69 1081.95L1341.83 1084.24L1337.94 1086.53L1334.02 1088.81L1330.08 1091.1L1326.12 1093.38L1322.13 1095.65L1318.11 1097.93L1314.07 1100.2L1310 1102.46L1305.91 1104.73L1301.79 1106.99L1297.65 1109.25L1293.48 1111.5L1289.29 1113.75L1285.08 1116L1280.84 1118.24L1276.58 1120.49L1272.29 1122.72L1267.98 1124.96L1263.65 1127.19L1259.3 1129.41L1254.92 1131.64L1250.53 1133.85L1246.11 1136.07L1241.67 1138.28L1237.2 1140.49L1232.72 1142.69L1228.22 1144.89L1223.69 1147.08L1219.14 1149.28L1214.58 1151.46L1209.99 1153.64L1205.39 1155.82L1200.76 1157.99L1196.12 1160.16L1191.45 1162.33L1186.77 1164.49L1182.07 1166.64L1177.35 1168.79L1172.61 1170.94L1167.85 1173.08L1163.08 1175.21L1158.29 1177.34L1153.48 1179.47L1148.66 1181.59L1143.81 1183.71L1138.96 1185.82L1134.08 1187.92L1129.19 1190.02L1124.29 1192.11L1119.36 1194.2L1114.43 1196.29L1109.48 1198.36L1104.51 1200.43L1099.53 1202.5L1094.53 1204.56L1089.52 1206.61L1084.5 1208.66L1079.47 1210.7L1074.42 1212.74L1069.36 1214.77L1064.28 1216.79L1059.19 1218.81L1054.09 1220.82L1048.98 1222.83L1043.86 1224.82L1038.73 1226.82L1033.58 1228.8L1028.42 1230.78L1023.26 1232.75L1018.08 1234.71L1012.89 1236.67L1007.69 1238.62L1002.49 1240.56L997.272 1242.5L992.047 1244.43L986.813 1246.35L981.57 1248.26L976.319 1250.17L971.061 1252.06L965.794 1253.96L960.52 1255.84L955.238 1257.71L949.95 1259.58L944.655 1261.44L939.354 1263.29L934.046 1265.13L928.732 1266.97L923.413 1268.79L918.088 1270.61L912.759 1272.42L907.424 1274.22L902.084 1276.01L896.741 1277.8L891.393 1279.57L886.041 1281.34L880.686 1283.09L875.328 1284.84L869.966 1286.58L864.602 1288.31L859.235 1290.03L853.866 1291.74L848.495 1293.44L843.122 1295.13L837.748 1296.81L832.372 1298.48L826.996 1300.15L821.619 1301.8L816.241 1303.44L810.863 1305.07L805.486 1306.69L800.108 1308.3L794.732 1309.91L789.355 1311.5L783.981 1313.08L778.607 1314.65L773.236 1316.2L767.866 1317.75L762.498 1319.29L757.133 1320.81L751.77 1322.33L746.411 1323.83L741.054 1325.33L735.701 1326.81L730.352 1328.28L725.006 1329.73L719.665 1331.18L714.328 1332.61L708.996 1334.04L703.669 1335.45L698.347 1336.85L693.031 1338.23L687.72 1339.61L682.415 1340.97L677.116 1342.32L671.824 1343.66L666.539 1344.98L661.261 1346.29L655.989 1347.59L650.725 1348.88L645.469 1350.15L640.221 1351.41L634.981 1352.66L629.75 1353.9L624.527 1355.12L619.313 1356.32L614.108 1357.52L608.912 1358.7L603.727 1359.87L598.551 1361.02L593.385 1362.16L588.229 1363.28L583.084 1364.4L577.95 1365.49L572.827 1366.58L567.716 1367.65L562.615 1368.7L557.527 1369.74L552.45 1370.76L547.386 1371.78L542.334 1372.77L537.295 1373.75L532.269 1374.72L527.256 1375.67L522.256 1376.61L517.27 1377.53L512.297 1378.43L507.339 1379.32L502.395 1380.2L497.465 1381.05L492.55 1381.9L487.65 1382.73L482.765 1383.54L477.895 1384.33L473.041 1385.11L468.203 1385.88L463.38 1386.62L458.574 1387.35L453.784 1388.07L449.011 1388.77L444.255 1389.45L439.515 1390.11L434.793 1390.76L430.089 1391.39L425.401 1392.01L420.732 1392.6L416.081 1393.18L411.448 1393.75L406.834 1394.29L402.238 1394.82L397.661 1395.33L393.103 1395.83L388.564 1396.3L384.044 1396.76L379.544 1397.2L375.064 1397.63L370.604 1398.03L366.165 1398.42L361.745 1398.79L357.346 1399.14L352.968 1399.47L348.61 1399.78L344.274 1400.08L339.959 1400.36L335.666 1400.61L331.394 1400.85L327.143 1401.08L322.915 1401.28L318.709 1401.46L314.525 1401.63L310.364 1401.77L306.225 1401.9L302.109 1402.01L298.016 1402.09L293.947 1402.16L289.9 1402.21L285.877 1402.24L281.878 1402.25L277.902 1402.24L273.95 1402.21L270.023 1402.16L266.119 1402.09L262.24 1402.01L258.386 1401.9L254.556 1401.77L250.751 1401.62L246.971 1401.45L243.216 1401.26L239.486 1401.05L235.782 1400.82L232.103 1400.57L228.45 1400.3L224.823 1400.01L221.222 1399.7L217.647 1399.37L214.097 1399.01L210.575 1398.64L207.079 1398.24L203.609 1397.83L200.166 1397.39L196.75 1396.93L193.361 1396.45L189.999 1395.95L186.664 1395.43L183.357 1394.89L180.077 1394.33L176.824 1393.74L173.599 1393.14L170.402 1392.51L167.233 1391.86L164.091 1391.19L160.978 1390.49L157.893 1389.78L154.836 1389.04L151.808 1388.29L148.808 1387.51L145.837 1386.7L142.894 1385.88L139.981 1385.04L137.096 1384.17L134.24 1383.28L131.413 1382.37L128.615 1381.44L125.846 1380.48L123.107 1379.5L120.397 1378.5L117.716 1377.48L115.065 1376.44L112.444 1375.37L109.852 1374.28L107.29 1373.17L104.758 1372.04L102.256 1370.88L99.7837 1369.7L97.3415 1368.5L94.9293 1367.28L92.5474 1366.03L90.1956 1364.76L87.8741 1363.47L85.583 1362.16L83.3223 1360.82L81.0919 1359.47L78.8922 1358.08L76.7229 1356.68L74.5843 1355.25L72.4763 1353.81L70.399 1352.33L68.3524 1350.84L66.3366 1349.32L64.3516 1347.78L62.3975 1346.22L60.4742 1344.63L58.582 1343.03L56.7206 1341.39L54.8903 1339.74L53.091 1338.06L51.3228 1336.37L49.5856 1334.64L47.8795 1332.9L46.2046 1331.13L44.5609 1329.34L42.9482 1327.53L41.3669 1325.69L39.8167 1323.83L38.2978 1321.95L36.81 1320.05L35.3536 1318.12L33.9283 1316.17L32.5345 1314.2L31.1718 1312.21L29.8404 1310.19L28.5404 1308.15L27.2716 1306.09L26.0341 1304L24.8279 1301.89L23.6529 1299.76L22.5093 1297.61L21.3969 1295.43L20.3159 1293.23L19.266 1291.01L18.2475 1288.77L17.2601 1286.5L16.304 1284.22L15.3791 1281.91L14.4854 1279.57L13.6229 1277.22L12.7914 1274.84L11.9912 1272.44L11.2221 1270.02L10.484 1267.58L9.7769 1265.11L9.10095 1262.62L8.45589 1260.11L7.84189 1257.58L7.25877 1255.02L6.70655 1252.45L6.18521 1249.85L5.69467 1247.23L5.23494 1244.59L4.80601 1241.92L4.40771 1239.24L4.04004 1236.53L3.70309 1233.8L3.39661 1231.05L3.12066 1228.28L2.87518 1225.49L2.66016 1222.68L2.47552 1219.84L2.32116 1216.98L2.1971 1214.11L2.10316 1211.21L2.03942 1208.29L2.00572 1205.35L2.00213 1202.39L2.02841 1199.4L2.08464 1196.4L2.17065 1193.38L2.28644 1190.33L2.432 1187.27L2.60709 1184.18L2.81179 1181.08L3.046 1177.95L3.30957 1174.8L3.6025 1171.64L3.92468 1168.45L4.27605 1165.24L4.65652 1162.02L5.066 1158.77L5.5044 1155.51L5.97173 1152.22L6.46781 1148.92L6.99256 1145.59L7.54589 1142.25L8.12781 1138.88L8.73815 1135.5L9.37672 1132.1L10.0436 1128.68L10.7387 1125.24L11.4618 1121.78L12.2129 1118.31L12.9918 1114.81L13.7985 1111.3L14.6329 1107.77L15.4948 1104.22L16.3842 1100.65L17.3011 1097.06L18.2451 1093.46L19.2164 1089.84L20.2146 1086.2L21.2398 1082.54L22.2918 1078.87L23.3707 1075.18L24.4761 1071.47L25.608 1067.74L26.7663 1064L27.9509 1060.24L29.1616 1056.46L30.3985 1052.67L31.6612 1048.86L32.9498 1045.04L34.2642 1041.19L35.604 1037.34L36.9693 1033.46L38.36 1029.57L39.7759 1025.67L41.2169 1021.75L42.6829 1017.81L44.1737 1013.86L45.6892 1009.89L47.2294 1005.91L48.794 1001.92L50.3829 997.905L51.996 993.879L53.6332 989.839L55.2944 985.785L56.9793 981.717L58.6881 977.634L60.4202 973.539L62.1758 969.429L63.9548 965.306L65.7567 961.169L67.5818 957.019L69.4297 952.857L71.3003 948.681L73.1935 944.492L75.1092 940.292L77.0471 936.078L79.0073 931.853L80.9894 927.615L82.9934 923.365L85.0191 919.104L87.0665 914.831L89.1353 910.547L91.2254 906.251L93.3366 901.944L95.4688 897.626L97.622 893.298L99.7958 888.959L101.99 884.61L104.205 880.25L106.44 875.88L108.695 871.501L110.97 867.111L113.265 862.713L115.58 858.304L117.914 853.887L120.267 849.461L122.64 845.026L125.032 840.582L127.442 836.13L129.872 831.669L132.319 827.2L134.786 822.724L137.27 818.24L139.773 813.748L142.293 809.249L144.832 804.743L147.388 800.23L149.961 795.71L152.552 791.184L155.16 786.651L157.785 782.112L160.427 777.567L163.085 773.016L165.76 768.46L168.452 763.898L171.159 759.331L173.883 754.759L176.622 750.182L179.377 745.601L182.148 741.015L184.934 736.426L187.736 731.832L190.552 727.234L193.383 722.633L196.229 718.028L199.09 713.42L201.965 708.809L204.854 704.195L207.757 699.579L210.674 694.961L213.605 690.34L216.55 685.717L219.507 681.093L222.479 676.467L225.463 671.84L228.46 667.211L231.47 662.582L234.493 657.952L237.527 653.322L240.575 648.691L243.634 644.061L246.705 639.43L249.788 634.8L252.883 630.171L255.989 625.542L259.106 620.914L262.235 616.288L265.374 611.663L268.524 607.04L271.685 602.418L274.856 597.799L278.038 593.182L281.23 588.568L284.431 583.957L287.643 579.348L290.864 574.743L294.094 570.141L297.334 565.542L300.583 560.948L303.841 556.358L307.108 551.772L310.383 547.191L313.667 542.614L316.959 538.042L320.259 533.476L323.568 528.915L326.884 524.36L330.208 519.81L333.539 515.267L336.878 510.73L340.224 506.199L343.576 501.676L346.936 497.159L350.303 492.649L353.676 488.147L357.055 483.653L360.441 479.166L363.833 474.688L367.23 470.218L370.634 465.756L374.043 461.303L377.457 456.86L380.877 452.425L384.302 448L387.731 443.585L391.166 439.179L394.605 434.784L398.049 430.399L401.497 426.024L404.95 421.661L408.406 417.308L411.866 412.967L415.33 408.637L418.798 404.318L422.269 400.012L425.743 395.718L429.22 391.436L432.701 387.167L436.184 382.91L439.67 378.667L443.158 374.436L446.649 370.22L450.142 366.017L453.637 361.827L457.134 357.652L460.633 353.492L464.134 349.346L467.636 345.214L471.139 341.098L474.644 336.997L478.149 332.911L481.656 328.841L485.163 324.787L488.671 320.749L492.18 316.727L495.689 312.722L499.198 308.733L502.707 304.762L506.216 300.807L509.725 296.87L513.234 292.951L516.742 289.049L520.25 285.165L523.757 281.3L527.262 277.453L530.767 273.625L534.271 269.815L537.774 266.025L541.275 262.254L544.775 258.502L548.273 254.771L551.769 251.059L555.263 247.367L558.755 243.695L562.245 240.044L565.733 236.414L569.218 232.804L572.701 229.216L576.181 225.649L579.659 222.104L583.133 218.58L586.604 215.078L590.073 211.599L593.538 208.141L596.999 204.707L600.457 201.295L603.911 197.905L607.362 194.539L610.809 191.197L614.251 187.877L617.69 184.582L621.124 181.31L624.554 178.062L627.98 174.839L631.401 171.64L634.817 168.466L638.229 165.316L641.635 162.192L645.037 159.092L648.434 156.018L651.825 152.97L655.211 149.947L658.592 146.951L661.967 143.98L665.336 141.035L668.7 138.117L672.058 135.226L675.41 132.361L678.756 129.524L682.095 126.713L685.429 123.93L688.756 121.174L692.077 118.446L695.391 115.746L698.698 113.073L701.999 110.429L705.293 107.813L708.581 105.225L711.861 102.667L715.134 100.136L718.4 97.6354L721.658 95.1632L724.909 92.7205L728.153 90.307L731.39 87.9231L734.618 85.569L737.839 83.2446L741.052 80.9503L744.258 78.6862L747.455 76.4523L750.644 74.2489L753.826 72.0761L756.999 69.9339L760.163 67.8227L763.32 65.7425L766.468 63.6934L769.607 61.6756L772.738 59.6892L775.86 57.7343L778.974 55.8112L782.079 53.9198L785.174 52.0603L788.261 50.233L791.339 48.4378L794.408 46.6749L797.468 44.9446L800.518 43.2467L803.559 41.5815L806.591 39.9491L809.613 38.3497L812.626 36.7832L815.63 35.2499L818.623 33.7498L821.607 32.2831L824.582 30.8499L827.546 29.4502L830.501 28.0842L833.446 26.752L836.381 25.4538L839.306 24.1894L842.22 22.9592L845.125 21.7631L848.019 20.6014L850.904 19.4739L853.778 18.381L856.641 17.3226L859.494 16.2988L862.337 15.3098L865.169 14.3555L867.991 13.4362L870.802 12.5519L873.602 11.7026L876.392 10.8884L879.171 10.1094L881.939 9.36572L884.697 8.6574L887.443 7.98447L890.179 7.3471L892.904 6.7453L895.618 6.17905L898.321 5.64853L901.012 5.15375L903.693 4.69479L906.363 4.27172L909.021 3.88456L911.668 3.53338L914.304 3.2182L916.928 2.93917L919.542 2.69621L922.144 2.4895L924.734 2.31894L927.313 2.18471L929.881 2.08673L932.437 2.02516L934.982 2L937.515 2.01117L940.037 2.05884L942.547 2.14301L945.046 2.26368L947.533 2.42093L950.008 2.61477L952.472 2.84519L954.923 3.1122L957.364 3.41587L959.792 3.75622L962.209 4.13323L964.614 4.54691L967.007 4.99735L969.388 5.48446L971.757 6.00832L974.115 6.56894L976.461 7.16631L978.794 7.80035L981.116 8.47115L983.426 9.1787L985.724 9.92301L988.01 10.7041L990.284 11.5219L992.547 12.3764L994.797 13.2675L997.035 14.1954L999.261 15.16L1001.48 16.1613L1003.68 17.1992L1005.87 18.2738L1008.05 19.3849L1010.21 20.5326L1012.37 21.717L1014.51 22.9378L1016.64 24.1951L1018.75 25.4889L1020.86 26.8191L1022.95 28.1858L1025.04 29.5888L1027.1 31.0281L1029.16 32.5037L1031.21 34.0156L1033.24 35.5636L1035.26 37.1478L1037.27 38.7681L1039.27 40.4244L1041.25 42.1167L1043.22 43.8451L1045.18 45.6092L1047.13 47.4092L1049.07 49.2449L1050.99 51.1163L1052.9 53.0234L1054.8 54.966L1056.69 56.9441L1058.57 58.9577L1060.43 61.0066L1062.28 63.0908L1064.12 65.2102L1065.95 67.3647L1067.77 69.5543L1069.57 71.7788L1071.36 74.0383L1073.14 76.3324L1074.91 78.6614L1076.66 81.0248L1078.41 83.4229L1080.14 85.8554L1081.86 88.3222L1083.56 90.8233L1085.26 93.3585L1086.94 95.9277L1088.61 98.5309L1090.27 101.168L1091.92 103.839L1093.56 106.543L1095.18 109.281L1096.79 112.052L1098.39 114.856L1099.98 117.694L1101.56 120.565L1103.12 123.469L1104.67 126.405L1106.21 129.374L1107.74 132.376L1109.26 135.41L1110.77 138.476L1112.26 141.575L1113.74 144.706L1115.21 147.868L1116.67 151.062L1118.12 154.288L1119.55 157.546L1120.98 160.835L1122.39 164.155L1123.79 167.506L1125.18 170.888L1126.56 174.3L1127.92 177.744L1129.28 181.218L1130.62 184.722L1131.95 188.256L1133.27 191.82L1134.58 195.414L1135.88 199.038L1137.16 202.692L1138.44 206.374L1139.7 210.086L1140.95 213.827L1142.19 217.597L1143.42 221.396L1144.64 225.223L1145.84 229.078L1147.04 232.962L1148.22 236.873L1149.39 240.812L1150.55 244.78L1151.7 248.774L1152.84 252.796L1153.97 256.845L1155.09 260.92L1156.19 265.023L1157.29 269.152L1158.37 273.307L1159.44 277.489L1160.5 281.696L1161.55 285.93L1162.59 290.188L1163.62 294.473L1164.64 298.782L1165.64 303.116L1166.64 307.476L1167.62 311.859L1168.6 316.267L1169.56 320.7L1170.51 325.156L1171.45 329.636L1172.38 334.139L1173.3 338.666L1174.21 343.216L1175.11 347.789L1176 352.384L1176.87 357.002L1177.74 361.643L1178.59 366.305L1179.44 370.989L1180.27 375.695L1181.1 380.422L1181.91 385.17L1182.71 389.939L1183.5 394.729L1184.29 399.539L1185.06 404.37L1185.82 409.22L1186.57 414.091L1187.31 418.981L1188.03 423.89L1188.75 428.818L1189.46 433.765L1190.16 438.731L1190.85 443.715L1191.52 448.718L1192.19 453.738L1192.85 458.776L1193.49 463.831L1194.13 468.903L1194.76 473.993L1195.37 479.099L1195.98 484.221L1196.57 489.36L1197.16 494.515L1197.73 499.685L1198.3 504.871L1198.85 510.072L1199.4 515.288L1199.93 520.518L1200.46 525.763L1200.97 531.023L1201.47 536.296L1201.97 541.583L1202.45 546.883L1202.93 552.197L1203.39 557.523L1203.85 562.862L1204.29 568.214L1204.72 573.578L1205.15 578.953L1205.56 584.34L1205.97 589.739L1206.36 595.149L1206.75 600.569L1207.12 606L1207.49 611.442L1207.84 616.893L1208.19 622.354L1208.52 627.825L1208.85 633.305L1209.16 638.794L1209.47 644.292L1209.76 649.798L1210.05 655.312L1210.33 660.834L1210.59 666.364L1210.85 671.901L1211.1 677.446L1211.34 682.997L1211.56 688.555L1211.78 694.119L1211.99 699.689L1212.19 705.265L1212.38 710.846L1212.55 716.432L1212.72 722.024L1212.88 727.62L1213.03 733.22L1213.17 738.825L1213.3 744.434L1213.42 750.046L1213.54 755.661L1213.64 761.279L1213.73 766.9L1213.81 772.524L1213.88 778.15L1213.95 783.777L1214 789.407L1214.04 795.038L1214.08 800.669L1214.1 806.302L1214.11 811.935L1214.12 817.568L1214.11 823.202L1214.1 828.835L1214.08 834.468L1214.04 840.1L1214 845.73L1213.94 851.36L1213.88 856.987L1213.81 862.613L1213.73 868.236L1213.63 873.857L1213.53 879.476L1213.42 885.091L1213.3 890.703L1213.17 896.311L1213.03 901.916L1212.88 907.516L1212.72 913.112L1212.55 918.704L1212.37 924.29L1212.18 929.871L1211.98 935.447L1211.78 941.017L1211.56 946.581L1211.33 952.138L1211.09 957.689L1210.84 963.233L1210.59 968.77L1210.32 974.3L1210.04 979.822L1209.76 985.336L1209.46 990.842L1209.16 996.34L1208.84 1001.83L1208.51 1007.31L1208.18 1012.78L1207.83 1018.24L1207.48 1023.69L1207.11 1029.13L1206.74 1034.56L1206.35 1039.98L1205.96 1045.39L1205.55 1050.79L1205.14 1056.18L1204.71 1061.55L1204.28 1066.92L1203.83 1072.27L1203.38 1077.61L1202.92 1082.93L1202.44 1088.25L1201.96 1093.55L1201.46 1098.83L1200.96 1104.11L1200.44 1109.36L1199.92 1114.61L1199.38 1119.84L1198.84 1125.05L1198.28 1130.26L1197.72 1135.44L1197.14 1140.61L1196.56 1145.77L1195.96 1150.9L1195.36 1156.03L1194.74 1161.13L1194.12 1166.22L1193.48 1171.29L1192.83 1176.35L1192.18 1181.38L1191.51 1186.4L1190.83 1191.41L1190.14 1196.39L1189.44 1201.35L1188.74 1206.3L1188.02 1211.23L1187.29 1216.14L1186.55 1221.03L1185.8 1225.9L1185.04 1230.75L1184.27 1235.58L1183.48 1240.39L1182.69 1245.18L1181.89 1249.95L1181.08 1254.69L1180.25 1259.42L1179.42 1264.13L1178.57 1268.81L1177.72 1273.47L1176.85 1278.11L1175.97 1282.73L1175.09 1287.32L1174.19 1291.89L1173.28 1296.44L1172.36 1300.97L1171.43 1305.47L1170.49 1309.95L1169.54 1314.41L1168.57 1318.84L1167.6 1323.25L1166.61 1327.63L1165.62 1331.99L1164.61 1336.32L1163.59 1340.63L1162.57 1344.92L1161.53 1349.17L1160.48 1353.41L1159.42 1357.61L1158.34 1361.79L1157.26 1365.95L1156.16 1370.08L1155.06 1374.18L1153.94 1378.25L1152.81 1382.3L1151.68 1386.32L1150.53 1390.32L1149.36 1394.28L1148.19 1398.22L1147.01 1402.13L1145.81 1406.02L1144.61 1409.87L1143.39 1413.7L1142.16 1417.49L1140.92 1421.26L1139.67 1425L1138.41 1428.72L1137.13 1432.4L1135.85 1436.05L1134.55 1439.67L1133.24 1443.27L1131.92 1446.83L1130.59 1450.36L1129.24 1453.87L1127.89 1457.34L1126.52 1460.78L1125.15 1464.19L1123.76 1467.58L1122.36 1470.93L1120.94 1474.25L1119.52 1477.53L1118.08 1480.79L1116.64 1484.02L1115.18 1487.21L1113.71 1490.37L1112.22 1493.5L1110.73 1496.6L1109.22 1499.66L1107.71 1502.7L1106.18 1505.7L1104.64 1508.67L1103.08 1511.6L1101.52 1514.5L1099.94 1517.37L1098.35 1520.21L1096.75 1523.02L1095.14 1525.79L1093.52 1528.52L1091.88 1531.23L1090.23 1533.9L1088.57 1536.53L1086.9 1539.13L1085.22 1541.7L1083.52 1544.24L1081.81 1546.74L1080.09 1549.2L1078.36 1551.64L1076.62 1554.03L1074.86 1556.4L1073.1 1558.72L1071.32 1561.02L1069.52 1563.28L1067.72 1565.5L1065.91 1567.69L1064.08 1569.84L1062.24 1571.96L1060.39 1574.04L1058.52 1576.09L1056.65 1578.1L1054.76 1580.08L1052.86 1582.02L1050.95 1583.93L1049.02 1585.8L1047.08 1587.63L1045.14 1589.43L1043.18 1591.2L1041.2 1592.92L1039.22 1594.62L1037.22 1596.27L1035.21 1597.89L1033.19 1599.47L1031.16 1601.02L1029.11 1602.53L1027.05 1604.01L1024.98 1605.45L1022.9 1606.85L1020.81 1608.21L1018.7 1609.54L1016.59 1610.84L1014.45 1612.09L1012.31 1613.31L1010.16 1614.49L1007.99 1615.64L1005.81 1616.75L1003.62 1617.83L1001.42 1618.86L999.207 1619.86L996.98 1620.83L994.742 1621.75L992.491 1622.64L990.229 1623.5L987.955 1624.31L985.668 1625.09L983.37 1625.84L981.06 1626.54L978.737 1627.21L976.403 1627.85L974.057 1628.44L971.699 1629L969.33 1629.53L966.948 1630.01L964.555 1630.46L962.15 1630.88L959.733 1631.25L957.304 1631.59L954.864 1631.89L952.411 1632.16L949.947 1632.39L947.472 1632.58L944.985 1632.74L942.486 1632.86L939.975 1632.94L937.453 1632.99L934.92 1633L932.375 1632.97L929.818 1632.91L927.25 1632.81L924.671 1632.68L922.08 1632.5L919.478 1632.3L916.864 1632.05L914.239 1631.77L911.603 1631.46L908.956 1631.11L906.297 1630.72L903.628 1630.29L900.947 1629.83L898.255 1629.34L895.551 1628.81L892.837 1628.24L890.113 1627.64L887.376 1627L884.63 1626.32L881.872 1625.62L879.103 1624.87L876.324 1624.09L873.534 1623.28L870.733 1622.43L867.922 1621.54L865.1 1620.62L862.267 1619.67L859.425 1618.68L856.571 1617.65L853.707 1616.59L850.833 1615.5L847.949 1614.37L845.054 1613.21L842.149 1612.01L839.234 1610.78L836.309 1609.51L833.374 1608.21L830.429 1606.88L827.474 1605.51L824.509 1604.11L821.535 1602.68L818.55 1601.21L815.556 1599.71L812.553 1598.18L809.54 1596.61L806.517 1595.01L803.485 1593.38L800.444 1591.71L797.393 1590.01L794.333 1588.28L791.264 1586.52L788.186 1584.72L785.099 1582.89L782.003 1581.03L778.898 1579.14L775.784 1577.22L772.662 1575.26L769.531 1573.27L766.391 1571.26L763.243 1569.21L760.086 1567.13L756.921 1565.01L753.748 1562.87L750.566 1560.7L747.377 1558.49L744.179 1556.26L740.974 1553.99L737.76 1551.7L734.539 1549.37L731.31 1547.02L728.074 1544.63L724.83 1542.22L721.578 1539.78L718.32 1537.3L715.054 1534.8L711.78 1532.27L708.5 1529.71L705.213 1527.12L701.918 1524.51L698.618 1521.86L695.31 1519.19L691.995 1516.49L688.674 1513.76L685.347 1511L682.014 1508.22L678.674 1505.41L675.327 1502.57L671.976 1499.7L668.618 1496.81L665.254 1493.89L661.884 1490.95L658.509 1487.98L655.128 1484.98L651.742 1481.95L648.351 1478.91L644.954 1475.83L641.552 1472.73L638.145 1469.61L634.733 1466.46L631.317 1463.28L627.896 1460.08L624.47 1456.86L621.04 1453.61L617.606 1450.34L614.167 1447.04L610.724 1443.72L607.277 1440.38L603.827 1437.01L600.372 1433.62L596.914 1430.21L593.453 1426.77L589.988 1423.32L586.52 1419.84L583.048 1416.33L579.573 1412.81L576.096 1409.26L572.616 1405.7L569.133 1402.11L565.648 1398.5L562.16 1394.87L558.67 1391.21L555.178 1387.54L551.683 1383.85L548.187 1380.14L544.689 1376.4L541.189 1372.65L537.688 1368.88L534.185 1365.09L530.682 1361.28L527.177 1357.45L523.671 1353.6L520.164 1349.74L516.656 1345.85L513.148 1341.95L509.639 1338.03L506.13 1334.1L502.621 1330.14L499.112 1326.17L495.603 1322.18L492.094 1318.17L488.586 1314.15L485.078 1310.11L481.57 1306.06L478.064 1301.99L474.558 1297.9L471.053 1293.8L467.55 1289.68L464.048 1285.55L460.548 1281.41L457.049 1277.24L453.552 1273.07L450.057 1268.88L446.564 1264.68L443.073 1260.46L439.585 1256.23L436.099 1251.98L432.616 1247.73L429.135 1243.46L425.658 1239.18L422.184 1234.88L418.713 1230.58L415.245 1226.26L411.781 1221.93L408.321 1217.58L404.865 1213.23L401.413 1208.87L397.965 1204.49L394.521 1200.11L391.082 1195.71L387.647 1191.31L384.218 1186.89L380.793 1182.47L377.373 1178.03L373.959 1173.59L370.55 1169.13L367.147 1164.67L363.749 1160.2L360.358 1155.72L356.972 1151.24L353.593 1146.74L350.22 1142.24L346.854 1137.73L343.494 1133.21L340.142 1128.69L336.796 1124.16L333.457 1119.62L330.126 1115.08L326.803 1110.53L323.487 1105.97L320.178 1101.41L316.878 1096.84L313.586 1092.27L310.303 1087.7L307.027 1083.11L303.761 1078.53L300.503 1073.94L297.255 1069.34L294.015 1064.75L290.785 1060.14L287.564 1055.54L284.353 1050.93L281.151 1046.32L277.96 1041.7L274.779 1037.09L271.608 1032.47L268.447 1027.85L265.297 1023.22L262.158 1018.6L259.03 1013.97L255.913 1009.34L252.807 1004.72L249.713 1000.09L246.63 995.456L243.559 990.825L240.5 986.194L237.453 981.564L234.418 976.933L231.396 972.304L228.387 967.674L225.39 963.046L222.406 958.419L219.435 953.793L216.477 949.169L213.533 944.546L210.603 939.925L207.686 935.307L204.783 930.691L201.894 926.077L199.019 921.466L196.159 916.858L193.314 912.254L190.483 907.653L187.667 903.055L184.866 898.461L182.08 893.871L179.31 889.286L176.555 884.704L173.816 880.128L171.093 875.556L168.386 870.989L165.695 866.428L163.02 861.871L160.362 857.321L157.721 852.776L155.096 848.237L152.489 843.704L149.898 839.178L147.325 834.659L144.77 830.146L142.231 825.64L139.711 821.141L137.209 816.649L134.725 812.165L132.259 807.689L129.812 803.221L127.383 798.761L124.973 794.309L122.582 789.865L120.209 785.43L117.857 781.004L115.523 776.587L113.209 772.179L110.914 767.78L108.64 763.391L106.385 759.012L104.151 754.642L101.936 750.283L99.7424 745.934L97.569 741.595L95.4164 737.267L93.2847 732.949L91.174 728.643L89.0844 724.348L87.0161 720.063L84.9693 715.791L82.9441 711.53L80.9406 707.28L78.959 703.043L76.9994 698.818L75.062 694.605L73.1469 690.404L71.2542 686.216L69.3842 682.041L67.5368 677.878L65.7124 673.729L63.9109 669.592L62.1326 665.469L60.3775 661.36L58.6459 657.264L56.9379 653.183L55.2534 649.115L53.5928 645.061L51.9562 641.021L50.3437 636.996L48.7553 632.985L47.1913 628.989L45.6518 625.009L44.1369 621.042L42.6467 617.091L41.1813 613.156L39.741 609.235L38.3257 605.33L36.9356 601.441L35.5709 597.568L34.2317 593.71L32.918 589.869L31.63 586.044L30.3679 582.235L29.1317 578.442L27.9216 574.666L26.7376 570.907L25.5799 567.165L24.4487 563.44L23.3439 559.731L22.2658 556.04L21.2143 552.366L20.1898 548.71L19.1922 545.071L18.2216 541.45L17.2783 537.847L16.3621 534.261L15.4734 530.694L14.6121 527.144L13.7784 523.613L12.9724 520.1L12.1942 516.606L11.4437 513.13L10.7214 509.673L10.027 506.234L9.36076 502.815L8.72279 499.414L8.11322 496.033L7.53199 492.67L6.97933 489.327L6.45526 486.003L5.95995 482.698L5.49331 479.413L5.05559 476.148L4.64679 472.902L4.2671 469.677L3.91641 466.471L3.59499 463.285L3.30275 460.119L3.03986 456.973L2.80641 453.847L2.60248 450.742L2.42808 447.657L2.28328 444.592L2.16818 441.548L2.08285 438.525L2.02739 435.522L2.00179 432.54L2.00623 429.579L2.04061 426.639L2.10512 423.72L2.19975 420.821L2.32458 417.944L2.4797 415.088L2.66511 412.253L2.8809 409.44L3.12706 406.648L3.40377 403.877L3.71094 401.128L4.04866 398.4L4.4171 395.694L4.81616 393.009L5.24586 390.346L5.70636 387.705L6.19767 385.086L6.71977 382.488L7.27268 379.912L7.85656 377.359L8.47133 374.827L9.11708 372.317L9.79388 369.829L10.5017 367.364L11.2405 364.92L12.0104 362.499L12.8114 360.1L13.6436 357.723L14.5069 355.368L15.4014 353.036L16.3271 350.726L17.2839 348.439L18.2721 346.174L19.2914 343.931L20.342 341.711L21.4238 339.513L22.537 337.338L23.6814 335.185L24.857 333.055L26.064 330.948L27.3023 328.863L28.5718 326.801L29.8726 324.761L31.2047 322.744L32.5682 320.75L33.9629 318.779L35.3888 316.83L36.8461 314.904L38.3345 313L39.8543 311.119L41.4052 309.261L42.9874 307.426L44.6007 305.614L46.2453 303.824L47.9209 302.057L49.6278 300.313L51.3657 298.592L53.1347 296.893L54.9348 295.217L56.7658 293.564L58.628 291.934L60.521 290.326L62.445 288.741L64.3998 287.179L66.3856 285.64L68.4022 284.123L70.4495 282.629L72.5275 281.158L74.6363 279.709L76.7757 278.283L78.9457 276.88L81.1462 275.5L83.3773 274.142L85.6388 272.806L87.9306 271.493L90.2528 270.203L92.6053 268.935L94.988 267.69L97.4009 266.468L99.8439 265.267L102.317 264.09L104.82 262.934L107.353 261.802L109.915 260.691L112.508 259.603L115.13 258.537L117.782 257.493L120.463 256.472L123.173 255.473L125.914 254.496L128.683 253.541L131.482 252.608L134.309 251.698L137.166 250.809L140.052 249.942L142.966 249.098L145.909 248.275L148.881 247.474L151.882 246.695L154.911 245.938L157.968 245.202L161.054 244.488L164.168 243.796L167.31 243.125L170.48 242.476L173.678 241.849L176.903 241.243L180.156 240.658L183.437 240.095L186.745 239.553L190.081 239.032L193.444 238.532L196.833 238.054L200.25 237.596L203.694 237.16L207.164 236.745L210.661 236.35L214.184 235.977L217.734 235.624L221.31 235.292L224.912 234.981L228.539 234.69L232.193 234.42L235.872 234.17L239.577 233.941L243.308 233.732L247.063 233.543L250.844 233.375L254.649 233.226L258.48 233.098L262.335 232.99L266.214 232.902L270.118 232.834L274.047 232.786L277.999 232.757L281.975 232.748L285.975 232.759L289.999 232.789L294.046 232.839L298.116 232.908L302.21 232.996L306.326 233.104L310.466 233.231L314.627 233.377L318.812 233.542L323.018 233.726L327.247 233.929L331.498 234.151L335.77 234.391L340.065 234.65L344.38 234.928L348.717 235.224L353.075 235.538L357.454 235.871L361.853 236.222L366.273 236.591L370.714 236.979L375.174 237.384L379.654 237.807L384.155 238.248L388.675 238.707L393.214 239.183L397.772 239.678L402.35 240.189L406.946 240.718L411.561 241.265L416.195 241.828L420.846 242.409L425.516 243.007L430.204 243.622L434.909 244.254L439.631 244.902L444.371 245.567L449.128 246.249L453.901 246.948L458.692 247.663L463.498 248.394L468.321 249.142L473.16 249.906L478.014 250.686L482.884 251.482L487.77 252.294L492.67 253.122L497.586 253.965L502.516 254.825L507.46 255.699L512.419 256.59L517.392 257.495L522.378 258.416L527.378 259.353L532.392 260.304L537.418 261.271L542.458 262.252L547.51 263.248L552.575 264.259L557.651 265.285L562.74 266.325L567.841 267.38L572.953 268.449L578.076 269.532L583.21 270.63L588.356 271.742L593.511 272.867L598.677 274.007L603.854 275.161L609.04 276.328L614.235 277.509L619.44 278.704L624.654 279.912L629.878 281.133L635.109 282.368L640.35 283.616L645.598 284.877L650.854 286.151L656.118 287.437L661.39 288.737L666.668 290.05L671.954 291.375L677.246 292.712L682.545 294.063L687.85 295.425L693.161 296.8L698.477 298.187L703.799 299.586L709.127 300.997L714.459 302.42L719.796 303.855L725.137 305.301L730.483 306.76L735.832 308.229L741.185 309.71L746.542 311.203L751.902 312.707L757.264 314.222L762.63 315.748L767.997 317.285L773.367 318.833L778.739 320.392L784.112 321.961L789.487 323.542L794.863 325.132L800.24 326.734L805.617 328.345L810.995 329.967L816.373 331.599L821.75 333.241L827.127 334.894L832.504 336.556L837.879 338.228L843.254 339.91L848.626 341.601L853.997 343.302L859.367 345.013L864.733 346.733L870.098 348.462L875.459 350.201L880.818 351.949L886.173 353.705L891.524 355.471L896.872 357.246L902.215 359.029L907.555 360.822L912.889 362.623L918.219 364.432L923.543 366.25L928.863 368.077L934.176 369.911L939.484 371.754L944.785 373.606L950.08 375.465L955.368 377.332L960.649 379.207L965.923 381.09L971.189 382.981L976.448 384.88L981.699 386.786L986.941 388.699L992.175 390.62L997.4 392.549L1002.62 394.485L1007.82 396.427L1013.02 398.378L1018.21 400.335L1023.38 402.299L1028.55 404.27L1033.71 406.248L1038.85 408.232L1043.99 410.224L1049.11 412.222L1054.22 414.226L1059.32 416.237L1064.4 418.255L1069.48 420.278L1074.54 422.308L1079.59 424.344L1084.63 426.387L1089.65 428.435L1094.66 430.489L1099.65 432.549L1104.63 434.615L1109.6 436.687L1114.55 438.765L1119.48 440.848L1124.41 442.936L1129.31 445.031L1134.2 447.13L1139.08 449.235L1143.93 451.345L1148.77 453.461L1153.6 455.581L1158.41 457.707L1163.2 459.838L1167.97 461.974L1172.73 464.114L1177.46 466.26L1182.18 468.41L1186.88 470.565L1191.57 472.725L1196.23 474.889L1200.87 477.058L1205.5 479.231L1210.1 481.409L1214.69 483.591L1219.26 485.778L1223.8 487.968L1228.33 490.163L1232.83 492.362L1237.31 494.565L1241.78 496.773L1246.22 498.984L1250.63 501.199L1255.03 503.418L1259.41 505.64L1263.76 507.867L1268.09 510.097L1272.4 512.331L1276.68 514.568L1280.94 516.809L1285.18 519.054L1289.39 521.302L1293.58 523.553L1297.75 525.807L1301.89 528.065L1306.01 530.327L1310.1 532.591L1314.17 534.859L1318.21 537.129L1322.22 539.403L1326.22 541.68L1330.18 543.959L1334.12 546.242L1338.03 548.528L1341.92 550.816L1345.78 553.107L1349.61 555.401L1353.42 557.697L1357.2 559.997L1360.95 562.298L1364.68 564.603L1368.37 566.91L1372.04 569.219L1375.68 571.531L1379.29 573.845L1382.88 576.162L1386.43 578.481L1389.96 580.802L1393.45 583.126L1396.92 585.452L1400.36 587.78L1403.77 590.109L1407.15 592.442L1410.49 594.776L1413.81 597.112L1417.1 599.451L1420.36 601.791L1423.58 604.133L1426.78 606.477L1429.94 608.823L1433.08 611.171L1436.18 613.52L1439.25 615.871L1442.29 618.224L1445.3 620.579L1448.27 622.936L1451.22 625.293L1454.13 627.653L1457.01 630.014L1459.85 632.377L1462.67 634.741L1465.45 637.107L1468.19 639.474L1470.91 641.843L1473.59 644.213L1476.23 646.584L1478.85 648.957L1481.43 651.331L1483.97 653.706L1486.49 656.083L1488.96 658.461L1491.41 660.84L1493.82 663.22L1496.19 665.601L1498.53 667.984L1500.84 670.367L1503.11 672.752L1505.34 675.138L1507.54 677.525L1509.71 679.913L1511.84 682.301L1513.93 684.691L1515.99 687.082L1518.01 689.474L1520 691.866L1521.95 694.26L1523.86 696.654L1525.74 699.049L1527.59 701.445L1529.39 703.842L1531.16 706.239L1532.9 708.637L1534.59 711.036L1536.25 713.436L1537.88 715.837L1539.46 718.238L1541.01 720.639L1542.53 723.042L1544 725.445L1545.44 727.848L1546.84 730.253L1548.2 732.657L1549.53 735.063L1550.82 737.469L1552.07 739.875L1553.29 742.282L1554.46 744.689L1555.6 747.097L1556.7 749.505L1557.76 751.914L1558.79 754.323L1559.78 756.732L1560.73 759.142L1561.64 761.552L1562.51 763.963L1563.34 766.374L1564.14 768.785L1564.9 771.197L1565.62 773.608L1566.3 776.021L1566.94 778.433L1567.55 780.845L1568.11 783.258L1568.64 785.671L1569.13 788.084L1569.58 790.498L1570 792.911L1570.37 795.325L1570.71 797.739L1571 800.153L1571.26 802.567L1571.48 804.981L1571.66 807.395L1571.8 809.809L1571.91 812.223L1571.97 814.638L1572 817.052" stroke="#F3F4F6" stroke-width="3"/>
</svg>
